<svg width="1152" height="535" fill="none" xmlns="http://www.w3.org/2000/svg"><mask id="a" fill="#fff"><path d="M-32 .635h63.438V535H-32V.635zm251.212 0h63.438V535h-63.438V.635zm251.213 0h63.437V535h-63.437V.635zm251.212 0h63.438V535h-63.438V.635zm-628.031 0h63.438V535H93.606V.635zm251.213 0h63.437V535h-63.437V.635zm251.212 0h63.438V535h-63.438V.635zm251.213 0h63.437V535h-63.437V.635z"/><path d="M30.803.635h63.438V535H30.803V.635zm251.213 0h63.437V535h-63.437V.635zm251.212 0h63.438V535h-63.438V.635zm251.212 0h63.438V535H784.44V.635zm-628.031 0h63.438V535h-63.438V.635zm251.213 0h63.437V535h-63.437V.635zm251.212 0h63.438V535h-63.438V.635zm251.213 0h63.437V535h-63.437V.635z"/><path d="M972.85.635h63.44V535h-63.44V.635z"/><path d="M1035.65.635h63.44V535h-63.44V.635z"/><path d="M1098.46.635h63.43V535h-63.43V.635z"/><path d="M-32 63.464V0h1218v63.464H-32z"/><path d="M-32 126.293V62.829h1218v63.464H-32zm0 188.488v-63.464h1218v63.463l-1218 .001z"/><path d="M-32 189.122v-63.464h1218v63.464H-32zm0 188.488v-63.464h1218v63.464H-32z"/><path d="M-32 251.951v-63.463h1218v63.463H-32zm0 188.488v-63.464h1218v63.464H-32z"/></mask><path d="M-32 .635h63.438V535H-32V.635z" stroke="url(#paint0_linear)" stroke-width=".6" mask="url(#a)"/><path d="M219.212.635h63.438V535h-63.438V.635z" stroke="url(#paint1_linear)" stroke-width=".6" mask="url(#a)"/><path d="M470.425.635h63.437V535h-63.437V.635z" stroke="url(#paint2_linear)" stroke-width=".6" mask="url(#a)"/><path d="M721.637.635h63.438V535h-63.438V.635z" stroke="url(#paint3_linear)" stroke-width=".6" mask="url(#a)"/><path d="M93.606.635h63.438V535H93.606V.635z" stroke="url(#paint4_linear)" stroke-width=".6" mask="url(#a)"/><path d="M344.819.635h63.437V535h-63.437V.635z" stroke="url(#paint5_linear)" stroke-width=".6" mask="url(#a)"/><path d="M596.031.635h63.438V535h-63.438V.635z" stroke="url(#paint6_linear)" stroke-width=".6" mask="url(#a)"/><path d="M847.244.635h63.437V535h-63.437V.635z" stroke="url(#paint7_linear)" stroke-width=".6" mask="url(#a)"/><path d="M30.803.635h63.438V535H30.803V.635z" stroke="url(#paint8_linear)" stroke-width=".6" mask="url(#a)"/><path d="M282.016.635h63.437V535h-63.437V.635z" stroke="url(#paint9_linear)" stroke-width=".6" mask="url(#a)"/><path d="M533.228.635h63.438V535h-63.438V.635z" stroke="url(#paint10_linear)" stroke-width=".6" mask="url(#a)"/><path d="M784.44.635h63.438V535H784.44V.635z" stroke="url(#paint11_linear)" stroke-width=".6" mask="url(#a)"/><path d="M156.409.635h63.438V535h-63.438V.635z" stroke="url(#paint12_linear)" stroke-width=".6" mask="url(#a)"/><path d="M407.622.635h63.437V535h-63.437V.635z" stroke="url(#paint13_linear)" stroke-width=".6" mask="url(#a)"/><path d="M658.834.635h63.438V535h-63.438V.635z" stroke="url(#paint14_linear)" stroke-width=".6" mask="url(#a)"/><path d="M910.047.635h63.437V535h-63.437V.635z" stroke="url(#paint15_linear)" stroke-width=".6" mask="url(#a)"/><path d="M972.85.635h63.44V535h-63.44V.635z" stroke="url(#paint16_linear)" stroke-width=".6" mask="url(#a)"/><path d="M1035.65.635h63.44V535h-63.44V.635z" stroke="url(#paint17_linear)" stroke-width=".6" mask="url(#a)"/><path d="M1098.46.635h63.43V535h-63.43V.635z" stroke="url(#paint18_linear)" stroke-width=".6" mask="url(#a)"/><path d="M-32 63.464V0h1218v63.464H-32z" stroke="url(#paint19_linear)" stroke-width=".6" mask="url(#a)"/><path d="M-32 126.293V62.829h1218v63.464H-32z" stroke="url(#paint20_linear)" stroke-width=".6" mask="url(#a)"/><path d="M-32 314.781v-63.464h1218v63.463l-1218 .001z" stroke="url(#paint21_linear)" stroke-width=".6" mask="url(#a)"/><path d="M-32 189.122v-63.464h1218v63.464H-32z" stroke="url(#paint22_linear)" stroke-width=".6" mask="url(#a)"/><path d="M-32 377.61v-63.464h1218v63.464H-32z" stroke="url(#paint23_linear)" stroke-width=".6" mask="url(#a)"/><path d="M-32 251.951v-63.463h1218v63.463H-32z" stroke="url(#paint24_linear)" stroke-width=".6" mask="url(#a)"/><path d="M-32 440.439v-63.464h1218v63.464H-32z" stroke="url(#paint25_linear)" stroke-width=".6" mask="url(#a)"/><defs><linearGradient id="paint0_linear" x1="577" y1="0" x2="577" y2="535" gradientUnits="userSpaceOnUse"><stop stop-color="#4B8CF4"/><stop offset="1" stop-color="#629EFE"/></linearGradient><linearGradient id="paint1_linear" x1="577" y1="0" x2="577" y2="535" gradientUnits="userSpaceOnUse"><stop stop-color="#4B8CF4"/><stop offset="1" stop-color="#629EFE"/></linearGradient><linearGradient id="paint2_linear" x1="577" y1="0" x2="577" y2="535" gradientUnits="userSpaceOnUse"><stop stop-color="#4B8CF4"/><stop offset="1" stop-color="#629EFE"/></linearGradient><linearGradient id="paint3_linear" x1="577" y1="0" x2="577" y2="535" gradientUnits="userSpaceOnUse"><stop stop-color="#4B8CF4"/><stop offset="1" stop-color="#629EFE"/></linearGradient><linearGradient id="paint4_linear" x1="577" y1="0" x2="577" y2="535" gradientUnits="userSpaceOnUse"><stop stop-color="#4B8CF4"/><stop offset="1" stop-color="#629EFE"/></linearGradient><linearGradient id="paint5_linear" x1="577" y1="0" x2="577" y2="535" gradientUnits="userSpaceOnUse"><stop stop-color="#4B8CF4"/><stop offset="1" stop-color="#629EFE"/></linearGradient><linearGradient id="paint6_linear" x1="577" y1="0" x2="577" y2="535" gradientUnits="userSpaceOnUse"><stop stop-color="#4B8CF4"/><stop offset="1" stop-color="#629EFE"/></linearGradient><linearGradient id="paint7_linear" x1="577" y1="0" x2="577" y2="535" gradientUnits="userSpaceOnUse"><stop stop-color="#4B8CF4"/><stop offset="1" stop-color="#629EFE"/></linearGradient><linearGradient id="paint8_linear" x1="577" y1="0" x2="577" y2="535" gradientUnits="userSpaceOnUse"><stop stop-color="#4B8CF4"/><stop offset="1" stop-color="#629EFE"/></linearGradient><linearGradient id="paint9_linear" x1="577" y1="0" x2="577" y2="535" gradientUnits="userSpaceOnUse"><stop stop-color="#4B8CF4"/><stop offset="1" stop-color="#629EFE"/></linearGradient><linearGradient id="paint10_linear" x1="577" y1="0" x2="577" y2="535" gradientUnits="userSpaceOnUse"><stop stop-color="#4B8CF4"/><stop offset="1" stop-color="#629EFE"/></linearGradient><linearGradient id="paint11_linear" x1="577" y1="0" x2="577" y2="535" gradientUnits="userSpaceOnUse"><stop stop-color="#4B8CF4"/><stop offset="1" stop-color="#629EFE"/></linearGradient><linearGradient id="paint12_linear" x1="577" y1="0" x2="577" y2="535" gradientUnits="userSpaceOnUse"><stop stop-color="#4B8CF4"/><stop offset="1" stop-color="#629EFE"/></linearGradient><linearGradient id="paint13_linear" x1="577" y1="0" x2="577" y2="535" gradientUnits="userSpaceOnUse"><stop stop-color="#4B8CF4"/><stop offset="1" stop-color="#629EFE"/></linearGradient><linearGradient id="paint14_linear" x1="577" y1="0" x2="577" y2="535" gradientUnits="userSpaceOnUse"><stop stop-color="#4B8CF4"/><stop offset="1" stop-color="#629EFE"/></linearGradient><linearGradient id="paint15_linear" x1="577" y1="0" x2="577" y2="535" gradientUnits="userSpaceOnUse"><stop stop-color="#4B8CF4"/><stop offset="1" stop-color="#629EFE"/></linearGradient><linearGradient id="paint16_linear" x1="577" y1="0" x2="577" y2="535" gradientUnits="userSpaceOnUse"><stop stop-color="#4B8CF4"/><stop offset="1" stop-color="#629EFE"/></linearGradient><linearGradient id="paint17_linear" x1="577" y1="0" x2="577" y2="535" gradientUnits="userSpaceOnUse"><stop stop-color="#4B8CF4"/><stop offset="1" stop-color="#629EFE"/></linearGradient><linearGradient id="paint18_linear" x1="577" y1="0" x2="577" y2="535" gradientUnits="userSpaceOnUse"><stop stop-color="#4B8CF4"/><stop offset="1" stop-color="#629EFE"/></linearGradient><linearGradient id="paint19_linear" x1="577" y1="0" x2="577" y2="535" gradientUnits="userSpaceOnUse"><stop stop-color="#4B8CF4"/><stop offset="1" stop-color="#629EFE"/></linearGradient><linearGradient id="paint20_linear" x1="577" y1="0" x2="577" y2="535" gradientUnits="userSpaceOnUse"><stop stop-color="#4B8CF4"/><stop offset="1" stop-color="#629EFE"/></linearGradient><linearGradient id="paint21_linear" x1="577" y1="0" x2="577" y2="535" gradientUnits="userSpaceOnUse"><stop stop-color="#4B8CF4"/><stop offset="1" stop-color="#629EFE"/></linearGradient><linearGradient id="paint22_linear" x1="577" y1="0" x2="577" y2="535" gradientUnits="userSpaceOnUse"><stop stop-color="#4B8CF4"/><stop offset="1" stop-color="#629EFE"/></linearGradient><linearGradient id="paint23_linear" x1="577" y1="0" x2="577" y2="535" gradientUnits="userSpaceOnUse"><stop stop-color="#4B8CF4"/><stop offset="1" stop-color="#629EFE"/></linearGradient><linearGradient id="paint24_linear" x1="577" y1="0" x2="577" y2="535" gradientUnits="userSpaceOnUse"><stop stop-color="#4B8CF4"/><stop offset="1" stop-color="#629EFE"/></linearGradient><linearGradient id="paint25_linear" x1="577" y1="0" x2="577" y2="535" gradientUnits="userSpaceOnUse"><stop stop-color="#4B8CF4"/><stop offset="1" stop-color="#629EFE"/></linearGradient></defs></svg>