<svg width="123" height="21" fill="none" xmlns="http://www.w3.org/2000/svg"><path d="M63.651 15.767v-3.168h6.538v-2.455H63.65V7.166h7.4v-2.55H60.43v13.701h10.88v-2.55h-7.66zm38.428 2.55l-.016-8.22-4.13 6.763h-1.464l-4.115-6.59v8.031h-3.057V4.616h2.683l5.27 8.521 5.187-8.506h2.667l.033 13.686h-3.058zM114.926 7.04c2.506 0 4.554 1.995 4.554 4.434 0 2.44-2.048 4.435-4.554 4.435-2.504 0-4.552-1.995-4.552-4.435 0-2.439 2.032-4.435 4.552-4.435zm0-2.741c-4.065 0-7.366 3.215-7.366 7.175s3.301 7.176 7.366 7.176c4.066 0 7.367-3.216 7.367-7.176S118.992 4.3 114.926 4.3zm-27.727.317h-3.594l-3.334 4.45-1.789 2.408-5.139 6.843h3.594l3.334-4.45 3.334 4.45h3.594l-5.123-6.843L87.2 4.616zm-8.066 2.946l-2.196-2.946h-3.594l4 5.338 1.79-2.392zM27.581 4.615L9.27 4.6 8.13 2.667 9.27.751h18.31l-1.138 1.932 1.138 1.932zm-3.513 13.702L34.493.751h2.292l1.139 1.932L27.5 20.25l-1.139-1.933h-2.293zm16.751 0L51.243.751h2.293l1.138 1.932L44.25 20.25l-1.138-1.933h-2.293zM43.258 7.8l-6.229 10.517h-2.293l-1.138-1.933 6.229-10.517 1.138 1.932h2.293zM19.45 18.317H1.138L0 16.4l1.138-1.932H19.45L18.31 16.4l1.139 1.917zM5.22 7.61h12.457l1.139 1.932-1.139 1.932H5.22l1.14-1.932-1.14-1.933z" fill="#fff"/></svg>