<svg width="1215" height="261" fill="none" xmlns="http://www.w3.org/2000/svg"><path opacity=".2" d="M1159.56 98.648h-1.82V101h-2.53v-2.352h-6.03v-1.744l5.28-7.104h2.72l-4.9 6.736h3.01V94.44h2.45v2.096h1.82v2.112zm8.6-3.536c.55.277.97.64 1.26 1.088.3.448.45.965.45 1.552 0 .693-.2 1.301-.59 1.824-.4.512-.95.912-1.67 1.2-.71.277-1.54.416-2.48.416s-1.76-.139-2.48-.416c-.7-.288-1.25-.688-1.65-1.2-.38-.523-.57-1.13-.57-1.824 0-.587.14-1.104.43-1.552.3-.448.72-.81 1.26-1.088a2.86 2.86 0 01-.96-.96 2.713 2.713 0 01-.33-1.344c0-.65.18-1.216.54-1.696.36-.48.87-.848 1.52-1.104.65-.267 1.4-.4 2.24-.4.85 0 1.61.133 2.26.4.66.256 1.17.624 1.53 1.104.37.48.55 1.045.55 1.696 0 .501-.11.95-.34 1.344-.22.384-.55.704-.97.96zm-3.03-3.6c-.52 0-.94.128-1.26.384-.31.245-.47.587-.47 1.024 0 .427.16.763.47 1.008.31.245.73.368 1.26.368s.96-.123 1.28-.368c.32-.245.48-.581.48-1.008 0-.437-.16-.779-.48-1.024-.32-.256-.75-.384-1.28-.384zm0 7.776c.65 0 1.16-.144 1.54-.432.38-.299.57-.693.57-1.184 0-.49-.19-.88-.57-1.168-.38-.288-.89-.432-1.54-.432-.64 0-1.15.144-1.52.432-.37.288-.56.677-.56 1.168 0 .501.19.896.56 1.184.37.288.88.432 1.52.432zm7.55 1.84c-.44 0-.8-.149-1.1-.448-.3-.299-.45-.672-.45-1.12 0-.459.15-.827.45-1.104.3-.288.66-.432 1.1-.432.44 0 .81.144 1.11.432.29.277.44.645.44 1.104 0 .448-.15.821-.44 1.12-.3.299-.67.448-1.11.448zm6.65-11.52c1.57 0 2.8.48 3.68 1.44.89.95 1.33 2.32 1.33 4.112 0 1.27-.24 2.357-.72 3.264-.47.907-1.13 1.595-2 2.064-.86.469-1.86.704-2.99.704-.6 0-1.17-.064-1.71-.192-.55-.139-1.01-.331-1.39-.576l.96-1.904c.54.373 1.24.56 2.09.56.95 0 1.7-.277 2.26-.832.55-.565.85-1.376.89-2.432-.67.672-1.6 1.008-2.78 1.008-.72 0-1.37-.144-1.95-.432a3.395 3.395 0 01-1.39-1.216c-.35-.533-.52-1.147-.52-1.84 0-.747.19-1.403.56-1.968.38-.565.88-.997 1.52-1.296.65-.31 1.37-.464 2.16-.464zm.2 5.28c.56 0 1.02-.155 1.37-.464.36-.32.55-.725.55-1.216 0-.49-.18-.89-.53-1.2-.34-.31-.82-.464-1.43-.464-.55 0-1 .15-1.36.448-.34.299-.51.704-.51 1.216s.17.923.51 1.232c.36.299.82.448 1.4.448zm9.99-5.28c1.57 0 2.8.48 3.68 1.44.89.95 1.33 2.32 1.33 4.112 0 1.27-.24 2.357-.72 3.264a4.818 4.818 0 01-2 2.064c-.87.469-1.86.704-2.99.704-.6 0-1.17-.064-1.72-.192-.54-.139-1-.331-1.39-.576l.96-1.904c.55.373 1.25.56 2.1.56.95 0 1.7-.277 2.25-.832.56-.565.86-1.376.9-2.432-.67.672-1.6 1.008-2.78 1.008-.72 0-1.37-.144-1.96-.432a3.46 3.46 0 01-1.39-1.216c-.34-.533-.51-1.147-.51-1.84 0-.747.19-1.403.56-1.968.37-.565.88-.997 1.52-1.296.65-.31 1.37-.464 2.16-.464zm.19 5.28c.57 0 1.03-.155 1.38-.464.36-.32.54-.725.54-1.216 0-.49-.17-.89-.53-1.2-.34-.31-.81-.464-1.42-.464-.55 0-1.01.15-1.36.448-.34.299-.51.704-.51 1.216s.17.923.51 1.232c.35.299.82.448 1.39.448zM1200 89.8V101h-2.59v-9.12h-2.24V89.8h4.83zm-323.238 67.56c.982.16 1.734.528 2.256 1.104.523.565.784 1.269.784 2.112a3.38 3.38 0 01-.512 1.808c-.341.544-.864.981-1.568 1.312-.693.331-1.546.496-2.56.496a9.105 9.105 0 01-2.336-.304c-.757-.213-1.402-.512-1.936-.896l1.008-1.984c.427.32.918.571 1.472.752a5.943 5.943 0 001.728.256c.651 0 1.163-.123 1.536-.368.374-.256.56-.613.56-1.072 0-.917-.698-1.376-2.096-1.376h-1.184v-1.712l2.304-2.608h-4.768v-2.08h7.84v1.68l-2.528 2.88zm8.557-4.56V164h-2.592v-9.12h-2.24v-2.08h4.832zm3.418 11.328c-.438 0-.806-.149-1.104-.448-.299-.299-.448-.672-.448-1.12 0-.459.149-.827.448-1.104a1.527 1.527 0 011.104-.432c.437 0 .805.144 1.104.432.298.277.448.645.448 1.104 0 .448-.15.821-.448 1.12a1.5 1.5 0 01-1.104.448zm7.312.064c-.928 0-1.755-.229-2.48-.688-.725-.459-1.296-1.12-1.712-1.984-.405-.875-.608-1.915-.608-3.12s.203-2.24.608-3.104c.416-.875.987-1.541 1.712-2 .725-.459 1.552-.688 2.48-.688.928 0 1.755.229 2.48.688.725.459 1.291 1.125 1.696 2 .416.864.624 1.899.624 3.104s-.208 2.245-.624 3.12c-.405.864-.971 1.525-1.696 1.984-.725.459-1.552.688-2.48.688zm0-2.192c.683 0 1.216-.293 1.6-.88.395-.587.592-1.493.592-2.72s-.197-2.133-.592-2.72c-.384-.587-.917-.88-1.6-.88-.672 0-1.205.293-1.6.88-.384.587-.576 1.493-.576 2.72s.192 2.133.576 2.72c.395.587.928.88 1.6.88zm10.286-9.2V164h-2.592v-9.12h-2.24v-2.08h4.832zm10.313 9.088V164h-8.464v-1.68l4.32-4.08c.459-.437.768-.811.928-1.12.16-.32.24-.635.24-.944 0-.448-.154-.789-.464-1.024-.298-.245-.741-.368-1.328-.368-.49 0-.933.096-1.328.288a2.485 2.485 0 00-.992.832l-1.888-1.216c.438-.651 1.04-1.157 1.808-1.52.768-.373 1.648-.56 2.64-.56.832 0 1.558.139 2.176.416.63.267 1.115.651 1.456 1.152.352.491.528 1.072.528 1.744 0 .608-.128 1.179-.384 1.712-.256.533-.752 1.141-1.488 1.824l-2.576 2.432h4.816zM300.007 226.8V238h-2.593v-9.12h-2.239v-2.08h4.832zm5.785 4.208c1.579 0 2.741.315 3.488.944.757.629 1.136 1.472 1.136 2.528 0 .683-.171 1.307-.512 1.872-.341.555-.864 1.003-1.568 1.344-.693.331-1.552.496-2.576.496a9.105 9.105 0 01-2.336-.304c-.757-.213-1.403-.512-1.936-.896l1.024-1.984c.427.32.917.571 1.472.752a5.778 5.778 0 001.712.256c.651 0 1.163-.128 1.536-.384s.56-.613.56-1.072c0-.48-.197-.843-.592-1.088-.384-.245-1.056-.368-2.016-.368h-2.864l.576-6.304h6.832v2.08h-4.672l-.176 2.128h.912zm7.148 7.12c-.438 0-.806-.149-1.104-.448-.299-.299-.448-.672-.448-1.12 0-.459.149-.827.448-1.104a1.527 1.527 0 011.104-.432c.437 0 .805.144 1.104.432.298.277.448.645.448 1.104 0 .448-.15.821-.448 1.12a1.5 1.5 0 01-1.104.448zm6.555-7.12c1.579 0 2.742.315 3.488.944.758.629 1.136 1.472 1.136 2.528 0 .683-.17 1.307-.512 1.872-.341.555-.864 1.003-1.568 1.344-.693.331-1.552.496-2.576.496a9.105 9.105 0 01-2.336-.304c-.757-.213-1.402-.512-1.936-.896l1.024-1.984c.427.32.918.571 1.472.752a5.783 5.783 0 001.712.256c.651 0 1.163-.128 1.536-.384.374-.256.56-.613.56-1.072 0-.48-.197-.843-.592-1.088-.384-.245-1.056-.368-2.016-.368h-2.864l.576-6.304h6.832v2.08h-4.672l-.176 2.128h.912zm15.932 4.64h-1.824V238h-2.528v-2.352h-6.032v-1.744l5.28-7.104h2.72l-4.896 6.736h3.008v-2.096h2.448v2.096h1.824v2.112zm5.898-4.288c.981.16 1.733.528 2.256 1.104.522.565.784 1.269.784 2.112 0 .651-.171 1.253-.512 1.808-.342.544-.864.981-1.568 1.312-.694.331-1.547.496-2.56.496a9.1 9.1 0 01-2.336-.304c-.758-.213-1.403-.512-1.936-.896l1.008-1.984c.426.32.917.571 1.472.752a5.933 5.933 0 001.728.256c.65 0 1.162-.123 1.536-.368.373-.256.56-.613.56-1.072 0-.917-.699-1.376-2.096-1.376h-1.184v-1.712l2.304-2.608h-4.768v-2.08h7.84v1.68l-2.528 2.88zM21.281 192.888V195h-8.464v-1.68l4.32-4.08c.459-.437.768-.811.928-1.12.16-.32.24-.635.24-.944 0-.448-.155-.789-.464-1.024-.299-.245-.741-.368-1.328-.368-.49 0-.933.096-1.328.288a2.478 2.478 0 00-.992.832l-1.888-1.216c.437-.651 1.04-1.157 1.808-1.52.768-.373 1.648-.56 2.64-.56.832 0 1.557.139 2.176.416.63.267 1.115.651 1.456 1.152.352.491.528 1.072.528 1.744 0 .608-.128 1.179-.384 1.712-.256.533-.752 1.141-1.488 1.824l-2.576 2.432h4.816zm8.734-3.776c.554.277.976.64 1.264 1.088.298.448.448.965.448 1.552 0 .693-.198 1.301-.592 1.824-.395.512-.95.912-1.664 1.2-.715.277-1.542.416-2.48.416-.94 0-1.766-.139-2.48-.416-.704-.288-1.254-.688-1.648-1.2-.384-.523-.576-1.131-.576-1.824 0-.587.144-1.104.432-1.552.298-.448.72-.811 1.264-1.088a2.756 2.756 0 01-.96-.96 2.676 2.676 0 01-.336-1.344c0-.651.18-1.216.544-1.696.362-.48.869-.848 1.52-1.104.65-.267 1.397-.4 2.24-.4.853 0 1.605.133 2.256.4.66.256 1.173.624 1.536 1.104.362.48.544 1.045.544 1.696 0 .501-.112.949-.336 1.344-.224.384-.55.704-.976.96zm-3.024-3.6c-.523 0-.944.128-1.264.384-.31.245-.464.587-.464 1.024 0 .427.154.763.464 1.008.309.245.73.368 1.264.368.533 0 .96-.123 1.28-.368.32-.245.48-.581.48-1.008 0-.437-.16-.779-.48-1.024-.32-.256-.747-.384-1.28-.384zm0 7.776c.65 0 1.162-.144 1.536-.432.384-.299.576-.693.576-1.184s-.192-.88-.576-1.168c-.374-.288-.886-.432-1.536-.432-.64 0-1.147.144-1.52.432-.374.288-.56.677-.56 1.168 0 .501.186.896.56 1.184.373.288.88.432 1.52.432zm7.55 1.84a1.5 1.5 0 01-1.104-.448 1.52 1.52 0 01-.448-1.12c0-.459.15-.827.448-1.104a1.53 1.53 0 011.104-.432c.438 0 .806.144 1.104.432.299.277.448.645.448 1.104 0 .448-.149.821-.448 1.12a1.499 1.499 0 01-1.104.448zm12.972-2.48h-1.824V195H43.16v-2.352h-6.032v-1.744l5.28-7.104h2.72l-4.896 6.736h3.008v-2.096h2.448v2.096h1.824v2.112zm6.167-4.672a4.37 4.37 0 011.952.432c.587.288 1.05.699 1.392 1.232.341.523.512 1.131.512 1.824 0 .747-.187 1.403-.56 1.968a3.7 3.7 0 01-1.536 1.312c-.64.299-1.355.448-2.144.448-1.568 0-2.795-.48-3.68-1.44-.885-.96-1.328-2.331-1.328-4.112 0-1.269.24-2.357.72-3.264.48-.907 1.147-1.595 2-2.064.864-.469 1.861-.704 2.992-.704a6.89 6.89 0 011.712.208c.555.128 1.024.315 1.408.56l-.96 1.904c-.555-.373-1.253-.56-2.096-.56-.95 0-1.701.277-2.256.832-.555.555-.853 1.36-.896 2.416.661-.661 1.584-.992 2.768-.992zm-.528 5.28c.555 0 1.003-.149 1.344-.448.352-.299.528-.704.528-1.216s-.176-.917-.528-1.216c-.341-.309-.8-.464-1.376-.464-.565 0-1.03.16-1.392.48a1.503 1.503 0 00-.544 1.2c0 .491.176.891.528 1.2.352.309.832.464 1.44.464zm14.03-9.456v1.68l-4.16 9.52h-2.817l4.016-9.088H60.51v1.824h-2.304V183.8h8.976zm50.307-167.44c.981.16 1.733.528 2.256 1.104.522.565.784 1.27.784 2.112 0 .65-.171 1.253-.512 1.808-.342.544-.864.981-1.568 1.312-.694.33-1.547.496-2.56.496a9.1 9.1 0 01-2.336-.304c-.758-.213-1.403-.512-1.936-.896l1.008-1.984c.426.32.917.57 1.472.752.565.17 1.141.256 1.728.256.65 0 1.162-.123 1.536-.368.373-.256.56-.613.56-1.072 0-.917-.699-1.376-2.096-1.376h-1.184v-1.712l2.304-2.608h-4.768V11.8h7.84v1.68l-2.528 2.88zm9.629-.384c.714 0 1.365.144 1.952.432a3.4 3.4 0 011.392 1.232c.341.523.512 1.13.512 1.824 0 .747-.187 1.403-.56 1.968a3.707 3.707 0 01-1.536 1.312c-.64.299-1.355.448-2.144.448-1.568 0-2.795-.48-3.68-1.44-.886-.96-1.328-2.33-1.328-4.112 0-1.27.24-2.357.72-3.264.48-.907 1.146-1.595 2-2.064.864-.47 1.861-.704 2.992-.704.597 0 1.168.07 1.712.208.554.128 1.024.315 1.408.56l-.96 1.904c-.555-.373-1.254-.56-2.096-.56-.95 0-1.702.277-2.256.832-.555.555-.854 1.36-.896 2.416.661-.661 1.584-.992 2.768-.992zm-.528 5.28c.554 0 1.002-.15 1.344-.448.352-.299.528-.704.528-1.216s-.176-.917-.528-1.216c-.342-.31-.8-.464-1.376-.464-.566 0-1.03.16-1.392.48-.363.31-.544.71-.544 1.2s.176.89.528 1.2c.352.31.832.464 1.44.464zm6.951 1.872c-.437 0-.805-.15-1.104-.448a1.522 1.522 0 01-.448-1.12c0-.459.15-.827.448-1.104a1.53 1.53 0 011.104-.432c.438 0 .806.144 1.104.432.299.277.448.645.448 1.104 0 .448-.149.821-.448 1.12a1.498 1.498 0 01-1.104.448zm7.905-7.152c.714 0 1.365.144 1.952.432a3.4 3.4 0 011.392 1.232c.341.523.512 1.13.512 1.824 0 .747-.187 1.403-.56 1.968a3.707 3.707 0 01-1.536 1.312c-.64.299-1.355.448-2.144.448-1.568 0-2.795-.48-3.68-1.44-.886-.96-1.328-2.33-1.328-4.112 0-1.27.24-2.357.72-3.264.48-.907 1.146-1.595 2-2.064.864-.47 1.861-.704 2.992-.704.597 0 1.168.07 1.712.208.554.128 1.024.315 1.408.56l-.96 1.904c-.555-.373-1.254-.56-2.096-.56-.95 0-1.702.277-2.256.832-.555.555-.854 1.36-.896 2.416.661-.661 1.584-.992 2.768-.992zm-.528 5.28c.554 0 1.002-.15 1.344-.448.352-.299.528-.704.528-1.216s-.176-.917-.528-1.216c-.342-.31-.8-.464-1.376-.464-.566 0-1.03.16-1.392.48-.363.31-.544.71-.544 1.2s.176.89.528 1.2c.352.31.832.464 1.44.464zm12.987-4.144c.555.277.976.64 1.264 1.088.299.448.448.965.448 1.552 0 .693-.197 1.301-.592 1.824-.394.512-.949.912-1.664 1.2-.714.277-1.541.416-2.48.416-.938 0-1.765-.139-2.48-.416-.704-.288-1.253-.688-1.648-1.2-.384-.523-.576-1.13-.576-1.824 0-.587.144-1.104.432-1.552.299-.448.72-.81 1.264-1.088a2.756 2.756 0 01-.96-.96 2.675 2.675 0 01-.336-1.344c0-.65.182-1.216.544-1.696.363-.48.87-.848 1.52-1.104.651-.267 1.398-.4 2.24-.4.854 0 1.606.133 2.256.4.662.256 1.174.624 1.536 1.104.363.48.544 1.045.544 1.696 0 .501-.112.95-.336 1.344a2.716 2.716 0 01-.976.96zm-3.024-3.6c-.522 0-.944.128-1.264.384-.309.245-.464.587-.464 1.024 0 .427.155.763.464 1.008.31.245.731.368 1.264.368.534 0 .96-.123 1.28-.368.32-.245.48-.581.48-1.008 0-.437-.16-.779-.48-1.024-.32-.256-.746-.384-1.28-.384zm0 7.776c.651 0 1.163-.144 1.536-.432.384-.299.576-.693.576-1.184 0-.49-.192-.88-.576-1.168-.373-.288-.885-.432-1.536-.432-.64 0-1.146.144-1.52.432-.373.288-.56.677-.56 1.168 0 .501.187.896.56 1.184.374.288.88.432 1.52.432zm11.315-5.312c.714 0 1.365.144 1.952.432a3.4 3.4 0 011.392 1.232c.341.523.512 1.13.512 1.824 0 .747-.187 1.403-.56 1.968a3.707 3.707 0 01-1.536 1.312c-.64.299-1.355.448-2.144.448-1.568 0-2.795-.48-3.68-1.44-.886-.96-1.328-2.33-1.328-4.112 0-1.27.24-2.357.72-3.264.48-.907 1.146-1.595 2-2.064.864-.47 1.861-.704 2.992-.704.597 0 1.168.07 1.712.208.554.128 1.024.315 1.408.56l-.96 1.904c-.555-.373-1.254-.56-2.096-.56-.95 0-1.702.277-2.256.832-.555.555-.854 1.36-.896 2.416.661-.661 1.584-.992 2.768-.992zm-.528 5.28c.554 0 1.002-.15 1.344-.448.352-.299.528-.704.528-1.216s-.176-.917-.528-1.216c-.342-.31-.8-.464-1.376-.464-.566 0-1.03.16-1.392.48-.363.31-.544.71-.544 1.2s.176.89.528 1.2c.352.31.832.464 1.44.464z" fill="#fff"/></svg>