<svg width="547" height="363" fill="none" xmlns="http://www.w3.org/2000/svg"><path opacity=".3" d="M481.13 310.835c.97.12 1.71.45 2.22.99.51.54.765 1.215.765 2.025 0 .61-.155 1.165-.465 1.665-.31.5-.78.9-1.41 1.2-.62.29-1.38.435-2.28.435-.75 0-1.475-.105-2.175-.315-.69-.22-1.28-.52-1.77-.9l.84-1.515c.38.32.84.575 1.38.765.55.18 1.115.27 1.695.27.69 0 1.23-.14 1.62-.42.4-.29.6-.68.6-1.17 0-.49-.19-.87-.57-1.14-.37-.28-.94-.42-1.71-.42h-.96v-1.335l2.385-2.835h-4.77V306.5h7.155v1.305l-2.55 3.03zm13.62 3.78h-1.86V317H491v-2.385h-5.76v-1.35l5.175-6.765h2.085l-4.875 6.465h3.435v-2.115h1.83v2.115h1.86v1.65zm2.284 2.49c-.34 0-.63-.115-.87-.345-.24-.24-.36-.54-.36-.9 0-.37.115-.67.345-.9.24-.23.535-.345.885-.345s.64.115.87.345c.24.23.36.53.36.9 0 .36-.12.66-.36.9-.24.23-.53.345-.87.345zm11.779-2.49h-1.86V317h-1.89v-2.385h-5.76v-1.35l5.175-6.765h2.085l-4.875 6.465h3.435v-2.115h1.83v2.115h1.86v1.65zm7.777-3.135c.55.25.97.59 1.26 1.02.3.42.45.915.45 1.485 0 .64-.18 1.2-.54 1.68-.35.48-.85.85-1.5 1.11-.65.25-1.405.375-2.265.375-.86 0-1.615-.125-2.265-.375-.64-.26-1.135-.63-1.485-1.11-.35-.48-.525-1.04-.525-1.68 0-.57.145-1.065.435-1.485.29-.43.705-.77 1.245-1.02-.42-.23-.745-.53-.975-.9-.22-.38-.33-.815-.33-1.305 0-.59.16-1.105.48-1.545.33-.44.79-.78 1.38-1.02.59-.24 1.27-.36 2.04-.36.78 0 1.465.12 2.055.36.59.24 1.05.58 1.38 1.02.33.44.495.955.495 1.545 0 .49-.115.92-.345 1.29-.23.37-.56.675-.99.915zm-2.595-3.6c-.61 0-1.095.13-1.455.39-.35.26-.525.625-.525 1.095 0 .45.175.81.525 1.08.36.26.845.39 1.455.39.62 0 1.11-.13 1.47-.39.36-.27.54-.63.54-1.08 0-.47-.185-.835-.555-1.095-.36-.26-.845-.39-1.455-.39zm0 7.74c.72 0 1.29-.15 1.71-.45.42-.3.63-.715.63-1.245 0-.52-.21-.93-.63-1.23-.42-.3-.99-.45-1.71-.45s-1.285.15-1.695.45c-.41.3-.615.71-.615 1.23 0 .53.205.945.615 1.245.41.3.975.45 1.695.45zm10.04-4.785c.97.12 1.71.45 2.22.99.51.54.765 1.215.765 2.025 0 .61-.155 1.165-.465 1.665-.31.5-.78.9-1.41 1.2-.62.29-1.38.435-2.28.435-.75 0-1.475-.105-2.175-.315-.69-.22-1.28-.52-1.77-.9l.84-1.515c.38.32.84.575 1.38.765.55.18 1.115.27 1.695.27.69 0 1.23-.14 1.62-.42.4-.29.6-.68.6-1.17 0-.49-.19-.87-.57-1.14-.37-.28-.94-.42-1.71-.42h-.96v-1.335l2.385-2.835h-4.77V306.5h7.155v1.305l-2.55 3.03zm-194.015 34.78h-1.86V348h-1.89v-2.385h-5.76v-1.35l5.175-6.765h2.085l-4.875 6.465h3.435v-2.115h1.83v2.115h1.86v1.65zm5.591-4.095c.69 0 1.31.135 1.86.405.55.26.98.635 1.29 1.125.31.49.465 1.055.465 1.695 0 .68-.17 1.28-.51 1.8-.34.51-.8.905-1.38 1.185-.58.28-1.23.42-1.95.42-1.44 0-2.56-.45-3.36-1.35-.79-.9-1.185-2.19-1.185-3.87 0-1.18.215-2.185.645-3.015.43-.84 1.03-1.475 1.8-1.905.78-.44 1.68-.66 2.7-.66.54 0 1.045.06 1.515.18.48.11.895.275 1.245.495l-.72 1.47c-.52-.34-1.185-.51-1.995-.51-1.01 0-1.8.31-2.37.93-.57.62-.855 1.515-.855 2.685v.015c.31-.36.705-.63 1.185-.81a4.37 4.37 0 011.62-.285zm-.33 5.1c.61 0 1.105-.16 1.485-.48.38-.33.57-.765.57-1.305 0-.55-.19-.985-.57-1.305-.38-.32-.89-.48-1.53-.48-.63 0-1.145.17-1.545.51-.39.34-.585.77-.585 1.29 0 .51.19.935.57 1.275.39.33.925.495 1.605.495zm6.28 1.485c-.34 0-.63-.115-.87-.345-.24-.24-.36-.54-.36-.9 0-.37.115-.67.345-.9.24-.23.535-.345.885-.345s.64.115.87.345c.24.23.36.53.36.9 0 .36-.12.66-.36.9-.24.23-.53.345-.87.345zm11.779-2.49h-1.86V348h-1.89v-2.385h-5.76v-1.35l5.175-6.765h2.085l-4.875 6.465h3.435v-2.115h1.83v2.115h1.86v1.65zm5.591-4.095c.69 0 1.31.135 1.86.405.55.26.98.635 1.29 1.125.31.49.465 1.055.465 1.695 0 .68-.17 1.28-.51 1.8-.34.51-.8.905-1.38 1.185-.58.28-1.23.42-1.95.42-1.44 0-2.56-.45-3.36-1.35-.79-.9-1.185-2.19-1.185-3.87 0-1.18.215-2.185.645-3.015.43-.84 1.03-1.475 1.8-1.905.78-.44 1.68-.66 2.7-.66.54 0 1.045.06 1.515.18.48.11.895.275 1.245.495l-.72 1.47c-.52-.34-1.185-.51-1.995-.51-1.01 0-1.8.31-2.37.93-.57.62-.855 1.515-.855 2.685v.015c.31-.36.705-.63 1.185-.81a4.37 4.37 0 011.62-.285zm-.33 5.1c.61 0 1.105-.16 1.485-.48.38-.33.57-.765.57-1.305 0-.55-.19-.985-.57-1.305-.38-.32-.89-.48-1.53-.48-.63 0-1.145.17-1.545.51-.39.34-.585.77-.585 1.29 0 .51.19.935.57 1.275.39.33.925.495 1.605.495zm14.324-1.005h-1.86V348h-1.89v-2.385h-5.76v-1.35l5.175-6.765h2.085l-4.875 6.465h3.435v-2.115h1.83v2.115h1.86v1.65zm-1.905-334h-1.86V14h-1.89v-2.385h-5.76v-1.35l5.175-6.765h2.085l-4.875 6.465h3.435V7.85h1.83v2.115h1.86v1.65zm5.591-4.095c.69 0 1.31.135 1.86.405.55.26.98.635 1.29 1.125.31.49.465 1.055.465 1.695 0 .68-.17 1.28-.51 1.8-.34.51-.8.905-1.38 1.185-.58.28-1.23.42-1.95.42-1.44 0-2.56-.45-3.36-1.35-.79-.9-1.185-2.19-1.185-3.87 0-1.18.215-2.185.645-3.015.43-.84 1.03-1.475 1.8-1.905.78-.44 1.68-.66 2.7-.66.54 0 1.045.06 1.515.18.48.11.895.275 1.245.495l-.72 1.47c-.52-.34-1.185-.51-1.995-.51-1.01 0-1.8.31-2.37.93-.57.62-.855 1.515-.855 2.685v.015c.31-.36.705-.63 1.185-.81a4.37 4.37 0 011.62-.285zm-.33 5.1c.61 0 1.105-.16 1.485-.48.38-.33.57-.765.57-1.305 0-.55-.19-.985-.57-1.305-.38-.32-.89-.48-1.53-.48-.63 0-1.145.17-1.545.51-.39.34-.585.77-.585 1.29 0 .51.19.935.57 1.275.39.33.925.495 1.605.495zm6.28 1.485c-.34 0-.63-.115-.87-.345-.24-.24-.36-.54-.36-.9 0-.37.115-.67.345-.9.24-.23.535-.345.885-.345s.64.115.87.345c.24.23.36.53.36.9 0 .36-.12.66-.36.9-.24.23-.53.345-.87.345zm11.779-2.49h-1.86V14h-1.89v-2.385h-5.76v-1.35l5.175-6.765h2.085l-4.875 6.465h3.435V7.85h1.83v2.115h1.86v1.65zm5.591-4.095c.69 0 1.31.135 1.86.405.55.26.98.635 1.29 1.125.31.49.465 1.055.465 1.695 0 .68-.17 1.28-.51 1.8-.34.51-.8.905-1.38 1.185-.58.28-1.23.42-1.95.42-1.44 0-2.56-.45-3.36-1.35-.79-.9-1.185-2.19-1.185-3.87 0-1.18.215-2.185.645-3.015.43-.84 1.03-1.475 1.8-1.905.78-.44 1.68-.66 2.7-.66.54 0 1.045.06 1.515.18.48.11.895.275 1.245.495l-.72 1.47c-.52-.34-1.185-.51-1.995-.51-1.01 0-1.8.31-2.37.93-.57.62-.855 1.515-.855 2.685v.015c.31-.36.705-.63 1.185-.81a4.37 4.37 0 011.62-.285zm-.33 5.1c.61 0 1.105-.16 1.485-.48.38-.33.57-.765.57-1.305 0-.55-.19-.985-.57-1.305-.38-.32-.89-.48-1.53-.48-.63 0-1.145.17-1.545.51-.39.34-.585.77-.585 1.29 0 .51.19.935.57 1.275.39.33.925.495 1.605.495zm14.324-1.005h-1.86V14h-1.89v-2.385h-5.76v-1.35L409.59 3.5h2.085L406.8 9.965h3.435V7.85h1.83v2.115h1.86v1.65zm-237.905 295h-1.86V309h-1.89v-2.385h-5.76v-1.35l5.175-6.765h2.085l-4.875 6.465h3.435v-2.115h1.83v2.115h1.86v1.65zm4.062-4.05c1.48 0 2.575.29 3.285.87.71.57 1.065 1.35 1.065 2.34 0 .63-.155 1.2-.465 1.71-.31.51-.775.915-1.395 1.215-.62.3-1.385.45-2.295.45-.75 0-1.475-.105-2.175-.315-.7-.22-1.29-.52-1.77-.9l.825-1.515c.39.32.855.575 1.395.765.55.18 1.115.27 1.695.27.69 0 1.23-.14 1.62-.42.4-.29.6-.685.6-1.185 0-.54-.215-.945-.645-1.215-.42-.28-1.145-.42-2.175-.42h-2.535l.54-5.715h6.165v1.635h-4.515l-.225 2.43h1.005zm6.644 6.54c-.34 0-.63-.115-.87-.345-.24-.24-.36-.54-.36-.9 0-.37.115-.67.345-.9.24-.23.535-.345.885-.345s.64.115.87.345c.24.23.36.53.36.9 0 .36-.12.66-.36.9-.24.23-.53.345-.87.345zm7.087-6.585c.69 0 1.31.135 1.86.405.55.26.98.635 1.29 1.125.31.49.465 1.055.465 1.695 0 .68-.17 1.28-.51 1.8-.34.51-.8.905-1.38 1.185-.58.28-1.23.42-1.95.42-1.44 0-2.56-.45-3.36-1.35-.79-.9-1.185-2.19-1.185-3.87 0-1.18.215-2.185.645-3.015.43-.84 1.03-1.475 1.8-1.905.78-.44 1.68-.66 2.7-.66.54 0 1.045.06 1.515.18.48.11.895.275 1.245.495l-.72 1.47c-.52-.34-1.185-.51-1.995-.51-1.01 0-1.8.31-2.37.93-.57.62-.855 1.515-.855 2.685v.015c.31-.36.705-.63 1.185-.81a4.37 4.37 0 011.62-.285zm-.33 5.1c.61 0 1.105-.16 1.485-.48.38-.33.57-.765.57-1.305 0-.55-.19-.985-.57-1.305-.38-.32-.89-.48-1.53-.48-.63 0-1.145.17-1.545.51-.39.34-.585.77-.585 1.29 0 .51.19.935.57 1.275.39.33.925.495 1.605.495zm12.811-9.12v1.305l-4.08 9.195h-2.085l3.945-8.85h-4.125v1.785h-1.815V298.5h8.16zm5.683 4.02c.69 0 1.31.135 1.86.405.55.26.98.635 1.29 1.125.31.49.465 1.055.465 1.695 0 .68-.17 1.28-.51 1.8-.34.51-.8.905-1.38 1.185-.58.28-1.23.42-1.95.42-1.44 0-2.56-.45-3.36-1.35-.79-.9-1.185-2.19-1.185-3.87 0-1.18.215-2.185.645-3.015.43-.84 1.03-1.475 1.8-1.905.78-.44 1.68-.66 2.7-.66.54 0 1.045.06 1.515.18.48.11.895.275 1.245.495l-.72 1.47c-.52-.34-1.185-.51-1.995-.51-1.01 0-1.8.31-2.37.93-.57.62-.855 1.515-.855 2.685v.015c.31-.36.705-.63 1.185-.81a4.37 4.37 0 011.62-.285zm-.33 5.1c.61 0 1.105-.16 1.485-.48.38-.33.57-.765.57-1.305 0-.55-.19-.985-.57-1.305-.38-.32-.89-.48-1.53-.48-.63 0-1.145.17-1.545.51-.39.34-.585.77-.585 1.29 0 .51.19.935.57 1.275.39.33.925.495 1.605.495zM10.02 25.615H8.16V28H6.27v-2.385H.51v-1.35L5.685 17.5H7.77l-4.875 6.465H6.33V21.85h1.83v2.115h1.86v1.65zm4.062-4.05c1.48 0 2.575.29 3.285.87.71.57 1.065 1.35 1.065 2.34 0 .63-.155 1.2-.465 1.71-.31.51-.775.915-1.395 1.215-.62.3-1.385.45-2.295.45-.75 0-1.475-.105-2.175-.315-.7-.22-1.29-.52-1.77-.9l.825-1.515c.39.32.855.575 1.395.765.55.18 1.115.27 1.695.27.69 0 1.23-.14 1.62-.42.4-.29.6-.685.6-1.185 0-.54-.215-.945-.645-1.215-.42-.28-1.145-.42-2.175-.42h-2.535l.54-5.715h6.165v1.635h-4.515l-.225 2.43h1.005zm6.645 6.54c-.34 0-.63-.115-.87-.345-.24-.24-.36-.54-.36-.9 0-.37.114-.67.345-.9.24-.23.535-.345.885-.345s.64.115.87.345c.24.23.36.53.36.9 0 .36-.12.66-.36.9-.24.23-.53.345-.87.345zm7.086-6.585c.69 0 1.31.135 1.86.405.55.26.98.635 1.29 1.125.31.49.465 1.055.465 1.695 0 .68-.17 1.28-.51 1.8-.34.51-.8.905-1.38 1.185-.58.28-1.23.42-1.95.42-1.44 0-2.56-.45-3.36-1.35-.79-.9-1.185-2.19-1.185-3.87 0-1.18.215-2.185.645-3.015.43-.84 1.03-1.475 1.8-1.905.78-.44 1.68-.66 2.7-.66.54 0 1.045.06 1.515.18.48.11.895.275 1.245.495l-.72 1.47c-.52-.34-1.185-.51-1.995-.51-1.01 0-1.8.31-2.37.93-.57.62-.855 1.515-.855 2.685v.015c.31-.36.705-.63 1.185-.81a4.37 4.37 0 011.62-.285zm-.33 5.1c.61 0 1.105-.16 1.485-.48.38-.33.57-.765.57-1.305 0-.55-.19-.985-.57-1.305-.38-.32-.89-.48-1.53-.48-.63 0-1.145.17-1.545.51-.39.34-.585.77-.585 1.29 0 .51.19.935.57 1.275.39.33.925.495 1.605.495zm12.81-9.12v1.305L36.214 28H34.13l3.945-8.85H33.95v1.785h-1.815V17.5h8.16zm5.684 4.02c.69 0 1.31.135 1.86.405.55.26.98.635 1.29 1.125.31.49.465 1.055.465 1.695 0 .68-.17 1.28-.51 1.8-.34.51-.8.905-1.38 1.185-.58.28-1.23.42-1.95.42-1.44 0-2.56-.45-3.36-1.35-.79-.9-1.185-2.19-1.185-3.87 0-1.18.215-2.185.645-3.015.43-.84 1.03-1.475 1.8-1.905.78-.44 1.68-.66 2.7-.66.54 0 1.045.06 1.515.18.48.11.895.275 1.245.495l-.72 1.47c-.52-.34-1.185-.51-1.995-.51-1.01 0-1.8.31-2.37.93-.57.62-.855 1.515-.855 2.685v.015c.31-.36.705-.63 1.185-.81a4.37 4.37 0 011.62-.285zm-.33 5.1c.61 0 1.105-.16 1.485-.48.38-.33.57-.765.57-1.305 0-.55-.19-.985-.57-1.305-.38-.32-.89-.48-1.53-.48-.63 0-1.145.17-1.545.51-.39.34-.585.77-.585 1.29 0 .51.19.935.57 1.275.39.33.925.495 1.605.495zM481.13 156.835c.97.12 1.71.45 2.22.99.51.54.765 1.215.765 2.025 0 .61-.155 1.165-.465 1.665-.31.5-.78.9-1.41 1.2-.62.29-1.38.435-2.28.435-.75 0-1.475-.105-2.175-.315-.69-.22-1.28-.52-1.77-.9l.84-1.515c.38.32.84.575 1.38.765.55.18 1.115.27 1.695.27.69 0 1.23-.14 1.62-.42.4-.29.6-.68.6-1.17 0-.49-.19-.87-.57-1.14-.37-.28-.94-.42-1.71-.42h-.96v-1.335l2.385-2.835h-4.77V152.5h7.155v1.305l-2.55 3.03zm8.64 6.315c-.84 0-1.59-.21-2.25-.63-.66-.43-1.18-1.05-1.56-1.86-.38-.82-.57-1.79-.57-2.91s.19-2.085.57-2.895c.38-.82.9-1.44 1.56-1.86.66-.43 1.41-.645 2.25-.645.84 0 1.59.215 2.25.645.67.42 1.195 1.04 1.575 1.86.38.81.57 1.775.57 2.895s-.19 2.09-.57 2.91c-.38.81-.905 1.43-1.575 1.86-.66.42-1.41.63-2.25.63zm0-1.695c.75 0 1.34-.31 1.77-.93.44-.62.66-1.545.66-2.775s-.22-2.155-.66-2.775c-.43-.62-1.02-.93-1.77-.93-.74 0-1.33.31-1.77.93-.43.62-.645 1.545-.645 2.775s.215 2.155.645 2.775c.44.62 1.03.93 1.77.93zm6.707 1.65c-.34 0-.63-.115-.87-.345-.24-.24-.36-.54-.36-.9 0-.37.115-.67.345-.9.24-.23.535-.345.885-.345s.64.115.87.345c.24.23.36.53.36.9 0 .36-.12.66-.36.9-.24.23-.53.345-.87.345zm10.244-1.755V163h-7.74v-1.305l4.17-3.96c.47-.45.785-.84.945-1.17.17-.34.255-.675.255-1.005 0-.49-.165-.865-.495-1.125-.33-.26-.815-.39-1.455-.39-1.07 0-1.89.365-2.46 1.095l-1.365-1.05c.41-.55.96-.975 1.65-1.275.7-.31 1.48-.465 2.34-.465 1.14 0 2.05.27 2.73.81.68.54 1.02 1.275 1.02 2.205 0 .57-.12 1.105-.36 1.605s-.7 1.07-1.38 1.71l-2.805 2.67h4.95zm5.596-4.515c.97.12 1.71.45 2.22.99.51.54.765 1.215.765 2.025 0 .61-.155 1.165-.465 1.665-.31.5-.78.9-1.41 1.2-.62.29-1.38.435-2.28.435-.75 0-1.475-.105-2.175-.315-.69-.22-1.28-.52-1.77-.9l.84-1.515c.38.32.84.575 1.38.765.55.18 1.115.27 1.695.27.69 0 1.23-.14 1.62-.42.4-.29.6-.68.6-1.17 0-.49-.19-.87-.57-1.14-.37-.28-.94-.42-1.71-.42h-.96v-1.335l2.385-2.835h-4.77V152.5h7.155v1.305l-2.55 3.03zm7.399-.27c1.48 0 2.575.29 3.285.87.71.57 1.065 1.35 1.065 2.34 0 .63-.155 1.2-.465 1.71-.31.51-.775.915-1.395 1.215-.62.3-1.385.45-2.295.45-.75 0-1.475-.105-2.175-.315-.7-.22-1.29-.52-1.77-.9l.825-1.515c.39.32.855.575 1.395.765.55.18 1.115.27 1.695.27.69 0 1.23-.14 1.62-.42.4-.29.6-.685.6-1.185 0-.54-.215-.945-.645-1.215-.42-.28-1.145-.42-2.175-.42h-2.535l.54-5.715h6.165v1.635h-4.515l-.225 2.43h1.005zM9.265 261.35V263h-7.74v-1.305l4.17-3.96c.47-.45.785-.84.945-1.17.17-.34.255-.675.255-1.005 0-.49-.165-.865-.495-1.125-.33-.26-.815-.39-1.455-.39-1.07 0-1.89.365-2.46 1.095l-1.365-1.05c.41-.55.96-.975 1.65-1.275.7-.31 1.48-.465 2.34-.465 1.14 0 2.05.27 2.73.81.68.54 1.02 1.275 1.02 2.205 0 .57-.12 1.105-.36 1.605s-.7 1.07-1.38 1.71l-2.805 2.67h4.95zm5.595-4.515c.97.12 1.71.45 2.22.99.51.54.766 1.215.766 2.025 0 .61-.155 1.165-.465 1.665-.31.5-.78.9-1.41 1.2-.62.29-1.38.435-2.28.435-.75 0-1.476-.105-2.176-.315-.69-.22-1.28-.52-1.77-.9l.84-1.515c.38.32.84.575 1.38.765.55.18 1.116.27 1.696.27.69 0 1.23-.14 1.62-.42.4-.29.6-.68.6-1.17 0-.49-.19-.87-.57-1.14-.37-.28-.94-.42-1.71-.42h-.96v-1.335l2.384-2.835h-4.77V252.5h7.155v1.305l-2.55 3.03zm5.43 6.27c-.34 0-.63-.115-.87-.345-.24-.24-.36-.54-.36-.9 0-.37.116-.67.346-.9.24-.23.535-.345.885-.345s.64.115.87.345c.24.23.36.53.36.9 0 .36-.12.66-.36.9-.24.23-.53.345-.87.345zM30.484 252.5v1.305L26.403 263h-2.085l3.945-8.85h-4.125v1.785h-1.815V252.5h8.16zm4.228 4.065c1.48 0 2.575.29 3.285.87.71.57 1.065 1.35 1.065 2.34 0 .63-.155 1.2-.465 1.71-.31.51-.775.915-1.395 1.215-.62.3-1.385.45-2.295.45-.75 0-1.475-.105-2.175-.315-.7-.22-1.29-.52-1.77-.9l.825-1.515c.39.32.855.575 1.395.765.55.18 1.115.27 1.695.27.69 0 1.23-.14 1.62-.42.4-.29.6-.685.6-1.185 0-.54-.215-.945-.645-1.215-.42-.28-1.145-.42-2.175-.42H31.74l.54-5.715h6.165v1.635H33.93l-.225 2.43h1.005zm14.834 4.05h-1.86V263h-1.89v-2.385h-5.76v-1.35l5.175-6.765h2.085l-4.875 6.465h3.435v-2.115h1.83v2.115h1.86v1.65z" fill="#fff"/></svg>