<svg width="480" height="190" fill="none" xmlns="http://www.w3.org/2000/svg"><g filter="url(#filter0_d)"><path d="M59 59h362v38H59V59z" fill="#fff"/></g><path d="M93.612 79.336a2.354 2.354 0 00-1-.804c.281-.191.51-.44.683-.746a2.51 2.51 0 00.31-1.26c0-.774-.29-1.388-.871-1.83-.58-.447-1.395-.664-2.435-.664h-4.177v9.41h4.426c1.12 0 1.99-.217 2.595-.665h0c.608-.46.91-1.11.91-1.936 0-.595-.145-1.099-.441-1.505zm0 0s0 0 0 0l-.081.058m.08-.058s0 0 0 0l-.08.058m0 0c.281.386.422.869.422 1.447 0 .799-.29 1.417-.87 1.856l-.574-4.1c.424.17.764.436 1.022.797zm9.069-.185h-.001c-.309.51-.756.9-1.335 1.17m1.336-1.17l-1.379 1.08m1.379-1.08c.308-.518.461-1.12.461-1.801 0-.69-.152-1.293-.462-1.802-.309-.51-.756-.9-1.335-1.17-.572-.27-1.241-.404-2.007-.404h-3.68v9.41h1.818v-2.658m5.206-1.575l-5.306 1.575m3.97-.405h-.001l-.042-.09m.043.09s0 0 0 0l-.043-.09m.043.09c-.572.271-1.241.405-2.007.405h-1.863m3.827-.495c-.555.263-1.21.395-1.964.395h-1.863v.1m0 0h-.1m0 0v2.557-2.557zM82.563 78.53h-.1v2.912c-.486.286-1.048.43-1.69.43a3.068 3.068 0 01-1.578-.407 2.94 2.94 0 01-1.081-1.12 3.333 3.333 0 01-.386-1.61c0-.617.13-1.16.386-1.636a2.846 2.846 0 011.08-1.105c.464-.263.993-.395 1.591-.395.908 0 1.682.339 2.326 1.021l.072.076.073-.075 1.019-1.053.062-.064-.057-.069a4.01 4.01 0 00-1.541-1.146 5.125 5.125 0 00-2.028-.39c-.911 0-1.736.21-2.474.631a4.47 4.47 0 00-1.715 1.722c-.415.736-.622 1.564-.622 2.483 0 .92.207 1.748.622 2.484a4.558 4.558 0 001.715 1.734h0c.73.413 1.546.619 2.449.619.64 0 1.264-.103 1.871-.308a4.848 4.848 0 001.599-.887l.035-.03v-3.816h-1.628zm8.796-2.648h0l.002.002c.276.19.417.472.417.865 0 .383-.14.667-.418.865-.275.194-.682.298-1.235.298h-2.187v-2.34h2.187c.553 0 .96.108 1.234.31zm.866 4.788c0 .416-.145.715-.427.914-.288.205-.733.314-1.35.314h-2.51v-2.457h2.51c.617 0 1.062.11 1.35.314.282.2.427.498.427.915zm8.496-1.984c-.34.294-.847.45-1.538.45h-1.79v-3.458h1.79c.69 0 1.198.155 1.538.449.338.293.512.714.512 1.28 0 .565-.174.986-.512 1.28zm88.243 3.208v-.1h-4.029l2.191-2.17s0 0 0 0c.577-.566.974-1.075 1.184-1.53.209-.452.313-.936.313-1.45 0-.842-.298-1.516-.896-2.01-.596-.493-1.388-.734-2.365-.734-.737 0-1.409.138-2.013.417a3.485 3.485 0 00-1.43 1.151l-.055.077.074.06 1.15.92.08.065.062-.083c.459-.612 1.119-.92 1.993-.92.528 0 .91.111 1.163.32.25.204.381.502.381.909 0 .272-.068.551-.205.838h-.001c-.127.275-.383.607-.776.998 0 0 0 0 0 0l-3.514 3.474-.03.029v1.286h6.723v-1.547zm5.527-1.316c0 .409-.155.725-.466.96-.306.228-.737.348-1.305.348-.478 0-.943-.077-1.395-.231a3.697 3.697 0 01-1.144-.653l-.096-.081-.058.111-.695 1.329-.038.072.063.051c.416.343.924.612 1.524.808h.001c.6.187 1.221.28 1.863.28.778 0 1.439-.133 1.979-.404.537-.271.945-.639 1.217-1.105.271-.464.405-.981.405-1.55 0-.894-.309-1.608-.933-2.13-.624-.53-1.575-.786-2.832-.786h-.738l.172-1.931h3.813v-1.634h-5.386l-.009.09-.455 5.013-.01.11h2.246c.865 0 1.449.123 1.776.35h0l.002.001c.331.217.499.539.499.982zm3.092.751h.001c.326.726.775 1.285 1.349 1.674h.001c.574.38 1.225.57 1.951.57.727 0 1.378-.19 1.952-.57h0c.582-.389 1.036-.948 1.363-1.673h0c.327-.735.489-1.6.489-2.594 0-.993-.162-1.854-.489-2.58-.327-.733-.78-1.293-1.363-1.674a3.4 3.4 0 00-1.952-.582c-.726 0-1.378.194-1.951.583-.575.38-1.024.94-1.351 1.673-.327.726-.489 1.587-.489 2.58 0 .993.162 1.859.489 2.593zm4.711-.215v.001c-.345.517-.811.771-1.409.771-.588 0-1.055-.254-1.408-.771-.346-.52-.527-1.308-.527-2.379 0-1.07.181-1.858.527-2.378.353-.518.82-.771 1.408-.771.598 0 1.064.254 1.409.77v.002c.355.52.539 1.307.539 2.377 0 1.07-.184 1.858-.539 2.378zm126.088-.338h0c.322.725.764 1.285 1.33 1.674h.001a3.37 3.37 0 001.924.57 3.37 3.37 0 001.924-.57h.001c.574-.389 1.021-.948 1.343-1.673h0c.322-.735.482-1.6.482-2.593 0-.993-.16-1.854-.482-2.58-.322-.733-.769-1.293-1.343-1.674a3.32 3.32 0 00-1.925-.583c-.716 0-1.359.195-1.924.584-.567.38-1.01.94-1.331 1.673-.323.726-.482 1.587-.482 2.58 0 .993.159 1.858.482 2.592zm4.641-4.971h.001c.349.52.531 1.308.531 2.379 0 1.07-.182 1.858-.531 2.378l-.001.001c-.339.517-.798.77-1.386.77-.578 0-1.038-.252-1.386-.77-.342-.52-.519-1.309-.519-2.38 0-1.07.177-1.858.519-2.378.348-.518.808-.77 1.386-.77.588 0 1.047.253 1.386.77z" fill="#11111F" stroke="#000" stroke-width=".2"/><g opacity=".9"><g opacity=".7"><path d="M66 30.605h347.581v30.604H66V30.605z" fill="#fff"/><path d="M83.513 47.46v1.362H76.93v-8.744h6.406v1.361H78.56v2.274h4.237v1.336H78.56v2.411h4.952zm7.247 1.362l-2.382-3.323-2.357 3.323h-1.855l3.26-4.46-3.085-4.284h1.843l2.245 3.11 2.219-3.11h1.767L89.344 44.3l3.297 4.522h-1.88zm6.481-8.744c.76 0 1.421.125 1.981.374.568.25 1.003.608 1.304 1.075.301.466.451 1.02.451 1.661 0 .633-.15 1.187-.451 1.661-.301.467-.736.825-1.304 1.075-.56.25-1.22.374-1.98.374H95.26v2.524h-1.63v-8.744h3.611zm-.075 4.846c.71 0 1.25-.15 1.617-.45.368-.3.552-.728.552-1.286s-.184-.987-.552-1.287c-.368-.3-.907-.45-1.617-.45H95.26v3.473h1.906zm89.061 3.898c-.698 0-1.321-.17-1.869-.51-.548-.348-.98-.85-1.295-1.506-.316-.664-.474-1.45-.474-2.356 0-.907.158-1.688.474-2.344.315-.664.747-1.166 1.295-1.506.548-.348 1.171-.522 1.869-.522.697 0 1.32.174 1.868.522.556.34.992.842 1.308 1.506.315.656.473 1.437.473 2.344 0 .906-.158 1.692-.473 2.356-.316.656-.752 1.158-1.308 1.506-.548.34-1.171.51-1.868.51zm0-1.373c.622 0 1.112-.25 1.469-.752.366-.503.548-1.251.548-2.247s-.182-1.745-.548-2.247c-.357-.502-.847-.753-1.469-.753-.615 0-1.105.251-1.47.753-.357.502-.536 1.25-.536 2.247 0 .996.179 1.744.536 2.246.365.503.855.754 1.47.754zm145.007 1.373c-.697 0-1.32-.17-1.868-.51-.548-.348-.98-.85-1.296-1.506-.315-.664-.473-1.45-.473-2.356 0-.907.158-1.688.473-2.344.316-.664.748-1.166 1.296-1.506.548-.348 1.171-.522 1.868-.522.698 0 1.321.174 1.869.522.556.34.992.842 1.308 1.506.315.656.473 1.437.473 2.344 0 .906-.158 1.692-.473 2.356-.316.656-.752 1.158-1.308 1.506-.548.34-1.171.51-1.869.51zm0-1.373c.623 0 1.113-.25 1.47-.752.366-.503.548-1.251.548-2.247s-.182-1.745-.548-2.247c-.357-.502-.847-.753-1.47-.753-.614 0-1.104.251-1.469.753-.358.502-.536 1.25-.536 2.247 0 .996.178 1.744.536 2.246.365.503.855.754 1.469.754z" opacity=".5" fill="#11111F"/></g><g opacity=".7"><path d="M66 95h347.581v30.605H66V95z" fill="#fff"/><path d="M80.744 113.217c-1.2 0-2.136-.328-2.807-.984-.671-.664-1.006-1.611-1.006-2.841v-4.798h1.614v4.737c0 1.668.737 2.502 2.211 2.502 1.466 0 2.199-.834 2.199-2.502v-4.737h1.59v4.798c0 1.23-.336 2.177-1.006 2.841-.663.656-1.594.984-2.795.984zm8.757 0a6.85 6.85 0 01-1.95-.279c-.62-.186-1.113-.433-1.478-.741l.56-1.227c.355.276.79.502 1.303.68a5.03 5.03 0 001.565.255c.646 0 1.127-.101 1.441-.303.323-.203.485-.47.485-.802a.743.743 0 00-.274-.595 1.772 1.772 0 00-.67-.376 15.17 15.17 0 00-1.118-.304c-.663-.154-1.2-.308-1.615-.461a2.737 2.737 0 01-1.056-.717c-.29-.332-.434-.777-.434-1.336 0-.469.128-.895.385-1.275.265-.389.658-.696 1.18-.923.53-.227 1.175-.34 1.937-.34.53 0 1.052.065 1.565.194.514.13.957.316 1.33.559l-.51 1.226a5.092 5.092 0 00-1.192-.497 4.528 4.528 0 00-1.205-.17c-.638 0-1.114.105-1.429.315-.306.211-.46.49-.46.838 0 .243.088.442.262.595.182.154.41.276.683.365.273.089.646.19 1.118.303.646.146 1.176.3 1.59.462a2.62 2.62 0 011.055.716c.299.324.447.761.447 1.312 0 .47-.132.895-.397 1.275-.257.381-.65.684-1.18.911-.53.227-1.176.34-1.938.34zm5.117-8.623h3.8c.928 0 1.752.178 2.472.535.721.348 1.28.846 1.677 1.494.397.639.596 1.38.596 2.222 0 .842-.199 1.587-.596 2.235-.397.639-.956 1.137-1.677 1.493-.72.349-1.544.523-2.472.523h-3.8v-8.502zm3.726 7.166c.638 0 1.197-.118 1.677-.352a2.604 2.604 0 001.118-1.021c.265-.445.397-.959.397-1.542 0-.583-.132-1.093-.397-1.53a2.503 2.503 0 00-1.118-1.02c-.48-.243-1.04-.365-1.677-.365h-2.112v5.83h2.112zm87.883 1.457c-.698 0-1.321-.17-1.869-.51-.548-.348-.98-.85-1.295-1.506-.316-.664-.474-1.449-.474-2.356 0-.907.158-1.688.474-2.344.315-.664.747-1.166 1.295-1.506.548-.348 1.171-.522 1.869-.522.697 0 1.32.174 1.868.522.556.34.992.842 1.308 1.506.315.656.473 1.437.473 2.344 0 .907-.158 1.692-.473 2.356-.316.656-.752 1.158-1.308 1.506-.548.34-1.171.51-1.868.51zm0-1.372c.622 0 1.112-.251 1.469-.753.366-.502.548-1.251.548-2.247s-.182-1.745-.548-2.247c-.357-.502-.847-.753-1.469-.753-.615 0-1.105.251-1.47.753-.357.502-.536 1.251-.536 2.247s.179 1.745.536 2.247c.365.502.855.753 1.47.753zm145.007 1.372c-.697 0-1.32-.17-1.868-.51-.548-.348-.98-.85-1.296-1.506-.315-.664-.473-1.449-.473-2.356 0-.907.158-1.688.473-2.344.316-.664.748-1.166 1.296-1.506.548-.348 1.171-.522 1.868-.522.698 0 1.321.174 1.869.522.556.34.992.842 1.308 1.506.315.656.473 1.437.473 2.344 0 .907-.158 1.692-.473 2.356-.316.656-.752 1.158-1.308 1.506-.548.34-1.171.51-1.869.51zm0-1.372c.623 0 1.113-.251 1.47-.753.366-.502.548-1.251.548-2.247s-.182-1.745-.548-2.247c-.357-.502-.847-.753-1.47-.753-.614 0-1.104.251-1.469.753-.358.502-.536 1.251-.536 2.247s.178 1.745.536 2.247c.365.502.855.753 1.469.753z" opacity=".5" fill="#11111F"/></g><g opacity=".7"><path d="M66 127.333h347.581v30.605H66v-30.605z" fill="#fff"/><path d="M83.44 144.691v1.455h-6.51v-9.34h6.336v1.454h-4.724v2.429h4.191v1.427h-4.19v2.575h4.897zm5.529 1.588c-1.199 0-2.133-.36-2.802-1.081-.67-.729-1.005-1.77-1.005-3.122v-5.27h1.612v5.204c0 1.832.736 2.748 2.207 2.748 1.463 0 2.195-.916 2.195-2.748v-5.204h1.587v5.27c0 1.352-.335 2.393-1.005 3.122-.66.721-1.59 1.081-2.79 1.081zm11.73-.133l-1.773-2.736a3.01 3.01 0 01-.335.014h-1.959v2.722H95.02v-9.34h3.571c.752 0 1.405.134 1.959.4.562.267.992.65 1.289 1.148.298.498.447 1.089.447 1.774 0 .703-.161 1.308-.484 1.815-.314.507-.769.885-1.364 1.134l1.997 3.069h-1.736zm-.037-6.018c0-.596-.182-1.054-.546-1.374-.364-.32-.897-.48-1.6-.48h-1.884v3.722h1.885c.702 0 1.235-.16 1.599-.48.364-.329.546-.792.546-1.388zm85.565 6.151a3.268 3.268 0 01-1.869-.553c-.548-.377-.98-.921-1.295-1.631-.316-.719-.474-1.57-.474-2.552 0-.983.158-1.829.474-2.54.315-.719.747-1.263 1.295-1.631a3.22 3.22 0 011.869-.566c.697 0 1.32.189 1.868.566.556.368.992.912 1.308 1.631.315.711.473 1.557.473 2.54 0 .982-.158 1.833-.473 2.552-.316.71-.752 1.254-1.308 1.631a3.267 3.267 0 01-1.868.553zm0-1.487c.622 0 1.112-.272 1.469-.815.366-.544.548-1.356.548-2.434 0-1.079-.182-1.891-.548-2.434-.357-.544-.847-.816-1.469-.816-.615 0-1.105.272-1.47.816-.357.543-.536 1.355-.536 2.434 0 1.078.179 1.89.536 2.434.365.543.855.815 1.47.815zm145.007 1.487c-.697 0-1.32-.184-1.868-.553-.548-.377-.98-.921-1.296-1.631-.315-.719-.473-1.57-.473-2.552 0-.983.158-1.829.473-2.54.316-.719.748-1.263 1.296-1.631a3.219 3.219 0 011.868-.566 3.22 3.22 0 011.869.566c.556.368.992.912 1.308 1.631.315.711.473 1.557.473 2.54 0 .982-.158 1.833-.473 2.552-.316.71-.752 1.254-1.308 1.631a3.268 3.268 0 01-1.869.553zm0-1.487c.623 0 1.113-.272 1.47-.815.366-.544.548-1.356.548-2.434 0-1.079-.182-1.891-.548-2.434-.357-.544-.847-.816-1.47-.816-.614 0-1.104.272-1.469.816-.358.543-.536 1.355-.536 2.434 0 1.078.178 1.89.536 2.434.365.543.855.815 1.469.815z" opacity=".5" fill="#11111F"/></g><g opacity=".7"><path d="M66 159.395h347.581v22.954c0 4.225-3.429 7.651-7.66 7.651H73.661C69.43 190 66 186.574 66 182.349v-22.954z" fill="#fff"/><path d="M82.538 177.489l-1.75-2.525a2.99 2.99 0 01-.331.013h-1.935v2.512h-1.591v-8.621h3.526c.743 0 1.388.123 1.934.37.555.246.98.599 1.274 1.059.294.46.44 1.006.44 1.638 0 .648-.159 1.207-.477 1.675-.31.468-.76.817-1.347 1.047l1.971 2.832h-1.714zm-.036-5.554c0-.55-.18-.973-.54-1.269-.358-.295-.885-.443-1.579-.443h-1.86v3.436h1.86c.694 0 1.22-.148 1.58-.443.359-.304.539-.731.539-1.281zm7.07 5.677c-1.184 0-2.106-.332-2.767-.997-.662-.673-.992-1.634-.992-2.882v-4.865h1.592v4.803c0 1.692.726 2.537 2.179 2.537 1.445 0 2.167-.845 2.167-2.537v-4.803h1.567v4.865c0 1.248-.33 2.209-.991 2.882-.653.665-1.572.997-2.755.997zm12.048-4.606a2.25 2.25 0 011.127.788c.277.362.416.813.416 1.355 0 .747-.285 1.326-.857 1.737-.571.402-1.404.603-2.498.603h-4.26v-8.621h4.016c1.012 0 1.791.201 2.338.604.547.394.82.94.82 1.638 0 .427-.098.804-.293 1.133a2.016 2.016 0 01-.809.763zm-4.48-2.882v2.377h2.252c.555 0 .98-.098 1.273-.295.302-.206.453-.501.453-.887 0-.394-.151-.69-.453-.887-.293-.205-.718-.308-1.273-.308H97.14zm2.57 6.109c1.233 0 1.849-.415 1.849-1.244s-.616-1.244-1.849-1.244h-2.57v2.488h2.57zm86.517 1.379c-.698 0-1.321-.17-1.869-.51-.548-.348-.98-.85-1.295-1.506-.316-.664-.474-1.449-.474-2.356 0-.907.158-1.688.474-2.344.315-.664.747-1.166 1.295-1.506.548-.348 1.171-.522 1.869-.522.697 0 1.32.174 1.868.522.556.34.992.842 1.308 1.506.315.656.473 1.437.473 2.344 0 .907-.158 1.692-.473 2.356-.316.656-.752 1.158-1.308 1.506-.548.34-1.171.51-1.868.51zm0-1.372c.622 0 1.112-.251 1.469-.753.366-.502.548-1.251.548-2.247s-.182-1.745-.548-2.247c-.357-.501-.847-.752-1.469-.752-.615 0-1.105.251-1.47.752-.357.502-.536 1.251-.536 2.247s.179 1.745.536 2.247c.365.502.855.753 1.47.753zm145.007 1.372c-.697 0-1.32-.17-1.868-.51-.548-.348-.98-.85-1.296-1.506-.315-.664-.473-1.449-.473-2.356 0-.907.158-1.688.473-2.344.316-.664.748-1.166 1.296-1.506.548-.348 1.171-.522 1.868-.522.698 0 1.321.174 1.869.522.556.34.992.842 1.308 1.506.315.656.473 1.437.473 2.344 0 .907-.158 1.692-.473 2.356-.316.656-.752 1.158-1.308 1.506-.548.34-1.171.51-1.869.51zm0-1.372c.623 0 1.113-.251 1.47-.753.366-.502.548-1.251.548-2.247s-.182-1.745-.548-2.247c-.357-.501-.847-.752-1.47-.752-.614 0-1.104.251-1.469.752-.358.502-.536 1.251-.536 2.247s.178 1.745.536 2.247c.365.502.855.753 1.469.753z" opacity=".5" fill="#11111F"/></g><path d="M66 7.651C66 3.426 69.43 0 73.66 0h332.261c4.231 0 7.66 3.426 7.66 7.651v22.954H66V7.65z" fill="#6DA4FD"/><path d="M80.488 19.569c-.81 0-1.543-.184-2.2-.552a4.111 4.111 0 01-1.536-1.548c-.367-.656-.55-1.396-.55-2.22 0-.823.187-1.563.561-2.22a4.024 4.024 0 011.536-1.535c.657-.376 1.39-.564 2.2-.564a4.4 4.4 0 011.8.36c.542.24 1 .588 1.375 1.044l-.963.948c-.58-.656-1.295-.984-2.143-.984a2.86 2.86 0 00-1.478.384 2.621 2.621 0 00-1.02 1.044 3.128 3.128 0 00-.367 1.523c0 .568.122 1.076.367 1.524.244.448.584.8 1.02 1.056.435.248.928.372 1.478.372.848 0 1.563-.332 2.143-.996l.963.96a3.661 3.661 0 01-1.387 1.044c-.542.24-1.142.36-1.8.36zm10.233-6.527v6.407h-1.364v-.816a2.345 2.345 0 01-.86.672 2.718 2.718 0 01-1.11.228c-.818 0-1.464-.236-1.938-.708-.466-.48-.699-1.188-.699-2.124v-3.66h1.433v3.456c0 .576.122 1.008.366 1.296.253.28.608.42 1.066.42.512 0 .917-.164 1.215-.492.306-.336.459-.816.459-1.44v-3.24h1.432zm3.239.936c.413-.672 1.139-1.008 2.178-1.008v1.428a1.74 1.74 0 00-.332-.036c-.558 0-.994.172-1.307.515-.313.336-.47.824-.47 1.464v3.108h-1.432v-6.407h1.364v.936zm4.757 0c.413-.672 1.138-1.008 2.178-1.008v1.428a1.755 1.755 0 00-.333-.036c-.558 0-.993.172-1.306.515-.314.336-.47.824-.47 1.464v3.108h-1.433v-6.407h1.364v.936zm9.09 2.303c0 .104-.008.252-.023.444h-4.802c.084.472.302.848.653 1.128.359.272.803.408 1.33.408.672 0 1.226-.232 1.662-.696l.767.924a2.588 2.588 0 01-1.043.78c-.42.176-.893.264-1.421.264-.672 0-1.264-.14-1.776-.42a3 3 0 01-1.192-1.164c-.275-.504-.412-1.072-.412-1.704 0-.624.133-1.184.401-1.68a2.985 2.985 0 011.134-1.175 3.18 3.18 0 011.628-.42c.596 0 1.127.14 1.593.42.473.272.84.66 1.1 1.164.267.495.401 1.071.401 1.727zm-3.094-2.111c-.459 0-.848.144-1.169.432-.314.28-.505.655-.573 1.127h3.472c-.061-.463-.248-.84-.561-1.127-.314-.288-.703-.432-1.169-.432zm7.943-1.2c.771 0 1.39.236 1.856.708.466.472.699 1.171.699 2.1v3.67h-1.432V15.97c0-.56-.126-.98-.379-1.26-.252-.287-.611-.431-1.077-.431-.527 0-.943.168-1.249.504-.306.328-.458.803-.458 1.427v3.24h-1.433v-6.407h1.364v.828c.237-.296.535-.52.894-.672a3.089 3.089 0 011.215-.228zm7.236 6.563c-.634 0-1.203-.14-1.707-.42a3.018 3.018 0 01-1.181-1.164 3.429 3.429 0 01-.424-1.704c0-.632.142-1.196.424-1.691a3.047 3.047 0 011.169-1.164c.504-.28 1.077-.42 1.719-.42.604 0 1.131.128 1.582.384.458.256.802.624 1.031 1.104l-1.1.671a1.725 1.725 0 00-.665-.66 1.668 1.668 0 00-.859-.227c-.535 0-.978.184-1.33.552-.351.36-.527.843-.527 1.451 0 .608.172 1.096.516 1.464.351.36.798.54 1.341.54.313 0 .6-.072.859-.216.268-.152.489-.376.665-.672l1.1.672a2.57 2.57 0 01-1.043 1.116c-.45.256-.974.384-1.57.384zm9.503-6.491l-2.865 6.923c-.267.696-.592 1.183-.974 1.463-.382.288-.844.432-1.387.432a2.73 2.73 0 01-.905-.156 1.976 1.976 0 01-.733-.431l.573-1.104c.137.136.298.244.481.324.191.08.382.12.573.12.252 0 .458-.068.619-.204.168-.136.321-.364.458-.684l.103-.252-2.67-6.431h1.49l1.925 4.74 1.937-4.74h1.375zm60.243.834c.579.215 1.027.527 1.344.938.317.41.476.905.476 1.484 0 .859-.355 1.526-1.064 2.002-.709.467-1.736.7-3.08.7h-5.516V9.2h5.236c1.307 0 2.291.233 2.954.7.672.467 1.008 1.087 1.008 1.862 0 .457-.117.868-.35 1.232-.224.364-.56.658-1.008.882zm-4.592-2.366v1.456h1.54c.719 0 1.078-.243 1.078-.728s-.359-.728-1.078-.728h-1.54zm1.988 5.18c.728 0 1.092-.257 1.092-.77s-.364-.77-1.092-.77h-1.988v1.54h1.988zm8.924-5.488c1.344 0 2.371.303 3.08.91.709.597 1.064 1.521 1.064 2.772V19h-2.94v-1.008c-.364.765-1.087 1.148-2.17 1.148-.607 0-1.125-.103-1.554-.308a2.41 2.41 0 01-.966-.854 2.35 2.35 0 01-.322-1.218c0-.756.289-1.33.868-1.722.579-.392 1.456-.588 2.632-.588h1.274c-.103-.597-.583-.896-1.442-.896-.345 0-.695.056-1.05.168a2.837 2.837 0 00-.91.434l-1.008-2.086c.439-.27.966-.48 1.582-.63a7.544 7.544 0 011.862-.238zm-.014 6.034c.224 0 .425-.06.602-.182.177-.121.308-.303.392-.546v-.532h-.784c-.644 0-.966.215-.966.644 0 .177.065.327.196.448.14.112.327.168.56.168zm5.526-8.624h3.164V19h-3.164V8.612zm7.996 2.59c1.344 0 2.371.303 3.08.91.709.597 1.064 1.521 1.064 2.772V19h-2.94v-1.008c-.364.765-1.087 1.148-2.17 1.148-.607 0-1.125-.103-1.554-.308a2.41 2.41 0 01-.966-.854 2.35 2.35 0 01-.322-1.218c0-.756.289-1.33.868-1.722.579-.392 1.456-.588 2.632-.588h1.274c-.103-.597-.583-.896-1.442-.896-.345 0-.695.056-1.05.168a2.837 2.837 0 00-.91.434l-1.008-2.086c.439-.27.966-.48 1.582-.63a7.544 7.544 0 011.862-.238zm-.014 6.034c.224 0 .425-.06.602-.182.177-.121.308-.303.392-.546v-.532h-.784c-.644 0-.966.215-.966.644 0 .177.065.327.196.448.14.112.327.168.56.168zm10.845-6.034c.943 0 1.699.285 2.268.854.579.57.868 1.428.868 2.576V19h-3.164v-3.822c0-.877-.312-1.316-.938-1.316-.354 0-.644.126-.868.378-.214.243-.322.63-.322 1.162V19h-3.164v-7.658h3.01v.756a2.922 2.922 0 011.036-.672c.392-.15.817-.224 1.274-.224zm8.763 7.938c-.868 0-1.647-.168-2.338-.504a3.957 3.957 0 01-1.61-1.414c-.383-.607-.574-1.293-.574-2.058 0-.765.191-1.447.574-2.044a3.957 3.957 0 011.61-1.414c.691-.336 1.47-.504 2.338-.504.933 0 1.731.2 2.394.602.663.401 1.12.957 1.372 1.666l-2.45 1.204c-.299-.672-.742-1.008-1.33-1.008-.373 0-.686.13-.938.392-.243.261-.364.63-.364 1.106 0 .485.121.859.364 1.12.252.261.565.392.938.392.588 0 1.031-.336 1.33-1.008l2.45 1.204a3.122 3.122 0 01-1.372 1.666c-.663.401-1.461.602-2.394.602zm12.577-3.976c0 .047-.014.294-.042.742h-5.32c.112.29.299.513.56.672.261.15.588.224.98.224.336 0 .616-.042.84-.126.233-.084.485-.229.756-.434l1.652 1.666c-.747.821-1.862 1.232-3.346 1.232-.924 0-1.736-.168-2.436-.504-.7-.345-1.241-.821-1.624-1.428a3.749 3.749 0 01-.574-2.044c0-.765.187-1.447.56-2.044a3.924 3.924 0 011.554-1.414c.663-.336 1.405-.504 2.226-.504.775 0 1.479.154 2.114.462a3.58 3.58 0 011.526 1.358c.383.597.574 1.311.574 2.142zm-4.186-1.806c-.327 0-.597.089-.812.266-.215.177-.355.43-.42.756h2.464c-.065-.317-.205-.565-.42-.742-.215-.187-.485-.28-.812-.28zm90.875-1.938h1.488v8.173h-1.488V11.42zm6.987 1.868c.771 0 1.389.23 1.854.69.466.458.699 1.14.699 2.042v3.573h-1.431v-3.386c0-.545-.126-.953-.378-1.226-.252-.28-.611-.42-1.076-.42-.527 0-.943.163-1.248.49-.305.32-.458.783-.458 1.39v3.152h-1.431v-6.235h1.362v.806c.237-.288.535-.506.893-.654a3.164 3.164 0 011.214-.222zm10.28 6.386a3.414 3.414 0 01-1.672-.408 3.005 3.005 0 01-1.168-1.133 3.34 3.34 0 01-.412-1.657c0-.615.138-1.164.412-1.646.283-.483.672-.86 1.168-1.133a3.414 3.414 0 011.672-.409c.625 0 1.186.137 1.682.409.497.272.882.65 1.157 1.133.282.482.423 1.03.423 1.646 0 .614-.141 1.167-.423 1.657a2.92 2.92 0 01-1.157 1.133c-.496.272-1.057.408-1.682.408zm0-1.249c.526 0 .961-.179 1.305-.537.343-.358.515-.829.515-1.412 0-.584-.172-1.055-.515-1.413-.344-.358-.779-.537-1.305-.537-.527 0-.962.179-1.305.537-.336.358-.504.829-.504 1.413 0 .583.168 1.054.504 1.412.343.358.778.537 1.305.537zm5.993-4.155c.412-.655 1.137-.982 2.175-.982v1.39a1.78 1.78 0 00-.332-.035c-.557 0-.992.167-1.305.502-.313.327-.469.801-.469 1.424v3.024h-1.431v-6.235h1.362v.911zm9.321-3.34v8.663h-1.374v-.806a2.213 2.213 0 01-.882.666 2.862 2.862 0 01-1.144.221 3.204 3.204 0 01-1.592-.397 2.849 2.849 0 01-1.099-1.12c-.267-.49-.4-1.051-.4-1.681 0-.63.133-1.187.4-1.67a2.849 2.849 0 011.099-1.12 3.204 3.204 0 011.592-.398c.404 0 .774.07 1.11.21.336.14.622.35.859.631V10.93h1.431zm-3.229 7.495c.344 0 .653-.078.928-.233.274-.164.492-.393.652-.69.16-.295.241-.637.241-1.026 0-.39-.081-.732-.241-1.028a1.675 1.675 0 00-.652-.677 1.78 1.78 0 00-.928-.245 1.78 1.78 0 00-.927.245 1.677 1.677 0 00-.653.677c-.16.296-.24.638-.24 1.028 0 .389.08.731.24 1.027.161.296.378.525.653.689.275.155.584.233.927.233zm10.848-1.915c0 .102-.008.246-.023.432h-4.797c.084.46.301.825.653 1.098.358.265.801.397 1.328.397.671 0 1.224-.226 1.66-.677l.767.899a2.587 2.587 0 01-1.042.759c-.42.17-.893.256-1.42.256-.671 0-1.263-.136-1.774-.408a2.961 2.961 0 01-1.191-1.133 3.33 3.33 0 01-.412-1.657c0-.607.134-1.152.401-1.635.274-.49.652-.872 1.133-1.144a3.241 3.241 0 011.626-.409c.595 0 1.125.137 1.591.409.473.265.839.642 1.099 1.133.267.482.401 1.042.401 1.68zm-3.091-2.054c-.458 0-.847.14-1.168.42-.313.273-.504.638-.572 1.098h3.468c-.061-.452-.248-.818-.561-1.098-.313-.28-.702-.42-1.167-.42zm5.828-.186c.412-.655 1.137-.982 2.175-.982v1.39a1.78 1.78 0 00-.332-.035c-.557 0-.992.167-1.305.502-.313.327-.47.801-.47 1.424v3.024H369.9v-6.235h1.363v.911zm5.3 5.404c-.496 0-.981-.066-1.454-.198s-.851-.3-1.133-.502l.549-1.11c.275.188.603.34.985.456.389.11.771.164 1.145.164.854 0 1.282-.23 1.282-.69 0-.217-.111-.369-.332-.454-.214-.086-.561-.168-1.042-.246a8.53 8.53 0 01-1.236-.268 1.957 1.957 0 01-.825-.526c-.229-.256-.343-.61-.343-1.062 0-.591.24-1.062.721-1.413.489-.358 1.145-.537 1.969-.537.42 0 .84.051 1.259.152.42.094.764.222 1.031.385l-.55 1.11a3.339 3.339 0 00-1.751-.468c-.42 0-.741.067-.962.199-.214.124-.32.292-.32.502 0 .234.114.4.343.502.237.093.599.183 1.088.268.488.078.889.168 1.202.269.313.101.58.272.801.514.229.241.343.583.343 1.027 0 .584-.248 1.05-.744 1.401-.496.35-1.171.525-2.026.525z" fill="#fff"/></g><defs><filter id="filter0_d" x="0" y="5" width="480" height="156" filterUnits="userSpaceOnUse" color-interpolation-filters="sRGB"><feFlood flood-opacity="0" result="BackgroundImageFix"/><feColorMatrix in="SourceAlpha" values="0 0 0 0 0 0 0 0 0 0 0 0 0 0 0 0 0 0 127 0"/><feOffset dy="5"/><feGaussianBlur stdDeviation="29.5"/><feColorMatrix values="0 0 0 0 0 0 0 0 0 0 0 0 0 0 0 0 0 0 0.13 0"/><feBlend in2="BackgroundImageFix" result="effect1_dropShadow"/><feBlend in="SourceGraphic" in2="effect1_dropShadow" result="shape"/></filter></defs></svg>