<svg width="1152" height="535" viewBox="0 0 1152 535" fill="none" xmlns="http://www.w3.org/2000/svg">
<mask id="path-1-inside-1" fill="white">
<path d="M-32 0.634619H31.4375V535H-32V0.634619Z"/>
<path d="M219.212 0.634619H282.65V535H219.212V0.634619Z"/>
<path d="M470.425 0.634619H533.862V535H470.425V0.634619Z"/>
<path d="M721.637 0.634619H785.075V535H721.637V0.634619Z"/>
<path d="M93.6063 0.634619H157.044V535H93.6063V0.634619Z"/>
<path d="M344.819 0.634619H408.256V535H344.819V0.634619Z"/>
<path d="M596.031 0.634619H659.469V535H596.031V0.634619Z"/>
<path d="M847.244 0.634619H910.681V535H847.244V0.634619Z"/>
<path d="M30.8032 0.634619H94.2407V535H30.8032V0.634619Z"/>
<path d="M282.016 0.634619H345.453V535H282.016V0.634619Z"/>
<path d="M533.228 0.634619H596.666V535H533.228V0.634619Z"/>
<path d="M784.44 0.634619H847.878V535H784.44V0.634619Z"/>
<path d="M156.409 0.634619H219.847V535H156.409V0.634619Z"/>
<path d="M407.622 0.634619H471.059V535H407.622V0.634619Z"/>
<path d="M658.834 0.634619H722.272V535H658.834V0.634619Z"/>
<path d="M910.047 0.634619H973.484V535H910.047V0.634619Z"/>
<path d="M972.85 0.634619H1036.29V535H972.85V0.634619Z"/>
<path d="M1035.65 0.634619H1099.09V535H1035.65V0.634619Z"/>
<path d="M1098.46 0.634619H1161.89V535H1098.46V0.634619Z"/>
<path d="M-32 63.4638L-32 5.32626e-05L1186 0V63.4638L-32 63.4638Z"/>
<path d="M-32 126.293L-32 62.8292L1186 62.8292V126.293L-32 126.293Z"/>
<path d="M-32 314.781L-32 251.317L1186 251.317V314.78L-32 314.781Z"/>
<path d="M-32 189.122L-32 125.658L1186 125.658V189.122L-32 189.122Z"/>
<path d="M-32 377.61L-32 314.146L1186 314.146V377.61L-32 377.61Z"/>
<path d="M-32 251.951L-32 188.488L1186 188.488V251.951L-32 251.951Z"/>
<path d="M-32 440.439L-32 376.975L1186 376.975V440.439L-32 440.439Z"/>
</mask>
<path d="M-32 0.634619H31.4375V535H-32V0.634619Z" stroke="url(#paint0_linear)" stroke-width="0.6" mask="url(#path-1-inside-1)"/>
<path d="M219.212 0.634619H282.65V535H219.212V0.634619Z" stroke="url(#paint1_linear)" stroke-width="0.6" mask="url(#path-1-inside-1)"/>
<path d="M470.425 0.634619H533.862V535H470.425V0.634619Z" stroke="url(#paint2_linear)" stroke-width="0.6" mask="url(#path-1-inside-1)"/>
<path d="M721.637 0.634619H785.075V535H721.637V0.634619Z" stroke="url(#paint3_linear)" stroke-width="0.6" mask="url(#path-1-inside-1)"/>
<path d="M93.6063 0.634619H157.044V535H93.6063V0.634619Z" stroke="url(#paint4_linear)" stroke-width="0.6" mask="url(#path-1-inside-1)"/>
<path d="M344.819 0.634619H408.256V535H344.819V0.634619Z" stroke="url(#paint5_linear)" stroke-width="0.6" mask="url(#path-1-inside-1)"/>
<path d="M596.031 0.634619H659.469V535H596.031V0.634619Z" stroke="url(#paint6_linear)" stroke-width="0.6" mask="url(#path-1-inside-1)"/>
<path d="M847.244 0.634619H910.681V535H847.244V0.634619Z" stroke="url(#paint7_linear)" stroke-width="0.6" mask="url(#path-1-inside-1)"/>
<path d="M30.8032 0.634619H94.2407V535H30.8032V0.634619Z" stroke="url(#paint8_linear)" stroke-width="0.6" mask="url(#path-1-inside-1)"/>
<path d="M282.016 0.634619H345.453V535H282.016V0.634619Z" stroke="url(#paint9_linear)" stroke-width="0.6" mask="url(#path-1-inside-1)"/>
<path d="M533.228 0.634619H596.666V535H533.228V0.634619Z" stroke="url(#paint10_linear)" stroke-width="0.6" mask="url(#path-1-inside-1)"/>
<path d="M784.44 0.634619H847.878V535H784.44V0.634619Z" stroke="url(#paint11_linear)" stroke-width="0.6" mask="url(#path-1-inside-1)"/>
<path d="M156.409 0.634619H219.847V535H156.409V0.634619Z" stroke="url(#paint12_linear)" stroke-width="0.6" mask="url(#path-1-inside-1)"/>
<path d="M407.622 0.634619H471.059V535H407.622V0.634619Z" stroke="url(#paint13_linear)" stroke-width="0.6" mask="url(#path-1-inside-1)"/>
<path d="M658.834 0.634619H722.272V535H658.834V0.634619Z" stroke="url(#paint14_linear)" stroke-width="0.6" mask="url(#path-1-inside-1)"/>
<path d="M910.047 0.634619H973.484V535H910.047V0.634619Z" stroke="url(#paint15_linear)" stroke-width="0.6" mask="url(#path-1-inside-1)"/>
<path d="M972.85 0.634619H1036.29V535H972.85V0.634619Z" stroke="url(#paint16_linear)" stroke-width="0.6" mask="url(#path-1-inside-1)"/>
<path d="M1035.65 0.634619H1099.09V535H1035.65V0.634619Z" stroke="url(#paint17_linear)" stroke-width="0.6" mask="url(#path-1-inside-1)"/>
<path d="M1098.46 0.634619H1161.89V535H1098.46V0.634619Z" stroke="url(#paint18_linear)" stroke-width="0.6" mask="url(#path-1-inside-1)"/>
<path d="M-32 63.4638L-32 5.32626e-05L1186 0V63.4638L-32 63.4638Z" stroke="url(#paint19_linear)" stroke-width="0.6" mask="url(#path-1-inside-1)"/>
<path d="M-32 126.293L-32 62.8292L1186 62.8292V126.293L-32 126.293Z" stroke="url(#paint20_linear)" stroke-width="0.6" mask="url(#path-1-inside-1)"/>
<path d="M-32 314.781L-32 251.317L1186 251.317V314.78L-32 314.781Z" stroke="url(#paint21_linear)" stroke-width="0.6" mask="url(#path-1-inside-1)"/>
<path d="M-32 189.122L-32 125.658L1186 125.658V189.122L-32 189.122Z" stroke="url(#paint22_linear)" stroke-width="0.6" mask="url(#path-1-inside-1)"/>
<path d="M-32 377.61L-32 314.146L1186 314.146V377.61L-32 377.61Z" stroke="url(#paint23_linear)" stroke-width="0.6" mask="url(#path-1-inside-1)"/>
<path d="M-32 251.951L-32 188.488L1186 188.488V251.951L-32 251.951Z" stroke="url(#paint24_linear)" stroke-width="0.6" mask="url(#path-1-inside-1)"/>
<path d="M-32 440.439L-32 376.975L1186 376.975V440.439L-32 440.439Z" stroke="url(#paint25_linear)" stroke-width="0.6" mask="url(#path-1-inside-1)"/>
<defs>
<linearGradient id="paint0_linear" x1="577" y1="0" x2="577" y2="535" gradientUnits="userSpaceOnUse">
<stop stop-color="#4B8CF4"/>
<stop offset="1" stop-color="#629EFE"/>
</linearGradient>
<linearGradient id="paint1_linear" x1="577" y1="0" x2="577" y2="535" gradientUnits="userSpaceOnUse">
<stop stop-color="#4B8CF4"/>
<stop offset="1" stop-color="#629EFE"/>
</linearGradient>
<linearGradient id="paint2_linear" x1="577" y1="0" x2="577" y2="535" gradientUnits="userSpaceOnUse">
<stop stop-color="#4B8CF4"/>
<stop offset="1" stop-color="#629EFE"/>
</linearGradient>
<linearGradient id="paint3_linear" x1="577" y1="0" x2="577" y2="535" gradientUnits="userSpaceOnUse">
<stop stop-color="#4B8CF4"/>
<stop offset="1" stop-color="#629EFE"/>
</linearGradient>
<linearGradient id="paint4_linear" x1="577" y1="0" x2="577" y2="535" gradientUnits="userSpaceOnUse">
<stop stop-color="#4B8CF4"/>
<stop offset="1" stop-color="#629EFE"/>
</linearGradient>
<linearGradient id="paint5_linear" x1="577" y1="0" x2="577" y2="535" gradientUnits="userSpaceOnUse">
<stop stop-color="#4B8CF4"/>
<stop offset="1" stop-color="#629EFE"/>
</linearGradient>
<linearGradient id="paint6_linear" x1="577" y1="0" x2="577" y2="535" gradientUnits="userSpaceOnUse">
<stop stop-color="#4B8CF4"/>
<stop offset="1" stop-color="#629EFE"/>
</linearGradient>
<linearGradient id="paint7_linear" x1="577" y1="0" x2="577" y2="535" gradientUnits="userSpaceOnUse">
<stop stop-color="#4B8CF4"/>
<stop offset="1" stop-color="#629EFE"/>
</linearGradient>
<linearGradient id="paint8_linear" x1="577" y1="0" x2="577" y2="535" gradientUnits="userSpaceOnUse">
<stop stop-color="#4B8CF4"/>
<stop offset="1" stop-color="#629EFE"/>
</linearGradient>
<linearGradient id="paint9_linear" x1="577" y1="0" x2="577" y2="535" gradientUnits="userSpaceOnUse">
<stop stop-color="#4B8CF4"/>
<stop offset="1" stop-color="#629EFE"/>
</linearGradient>
<linearGradient id="paint10_linear" x1="577" y1="0" x2="577" y2="535" gradientUnits="userSpaceOnUse">
<stop stop-color="#4B8CF4"/>
<stop offset="1" stop-color="#629EFE"/>
</linearGradient>
<linearGradient id="paint11_linear" x1="577" y1="0" x2="577" y2="535" gradientUnits="userSpaceOnUse">
<stop stop-color="#4B8CF4"/>
<stop offset="1" stop-color="#629EFE"/>
</linearGradient>
<linearGradient id="paint12_linear" x1="577" y1="0" x2="577" y2="535" gradientUnits="userSpaceOnUse">
<stop stop-color="#4B8CF4"/>
<stop offset="1" stop-color="#629EFE"/>
</linearGradient>
<linearGradient id="paint13_linear" x1="577" y1="0" x2="577" y2="535" gradientUnits="userSpaceOnUse">
<stop stop-color="#4B8CF4"/>
<stop offset="1" stop-color="#629EFE"/>
</linearGradient>
<linearGradient id="paint14_linear" x1="577" y1="0" x2="577" y2="535" gradientUnits="userSpaceOnUse">
<stop stop-color="#4B8CF4"/>
<stop offset="1" stop-color="#629EFE"/>
</linearGradient>
<linearGradient id="paint15_linear" x1="577" y1="0" x2="577" y2="535" gradientUnits="userSpaceOnUse">
<stop stop-color="#4B8CF4"/>
<stop offset="1" stop-color="#629EFE"/>
</linearGradient>
<linearGradient id="paint16_linear" x1="577" y1="0" x2="577" y2="535" gradientUnits="userSpaceOnUse">
<stop stop-color="#4B8CF4"/>
<stop offset="1" stop-color="#629EFE"/>
</linearGradient>
<linearGradient id="paint17_linear" x1="577" y1="0" x2="577" y2="535" gradientUnits="userSpaceOnUse">
<stop stop-color="#4B8CF4"/>
<stop offset="1" stop-color="#629EFE"/>
</linearGradient>
<linearGradient id="paint18_linear" x1="577" y1="0" x2="577" y2="535" gradientUnits="userSpaceOnUse">
<stop stop-color="#4B8CF4"/>
<stop offset="1" stop-color="#629EFE"/>
</linearGradient>
<linearGradient id="paint19_linear" x1="577" y1="0" x2="577" y2="535" gradientUnits="userSpaceOnUse">
<stop stop-color="#4B8CF4"/>
<stop offset="1" stop-color="#629EFE"/>
</linearGradient>
<linearGradient id="paint20_linear" x1="577" y1="0" x2="577" y2="535" gradientUnits="userSpaceOnUse">
<stop stop-color="#4B8CF4"/>
<stop offset="1" stop-color="#629EFE"/>
</linearGradient>
<linearGradient id="paint21_linear" x1="577" y1="0" x2="577" y2="535" gradientUnits="userSpaceOnUse">
<stop stop-color="#4B8CF4"/>
<stop offset="1" stop-color="#629EFE"/>
</linearGradient>
<linearGradient id="paint22_linear" x1="577" y1="0" x2="577" y2="535" gradientUnits="userSpaceOnUse">
<stop stop-color="#4B8CF4"/>
<stop offset="1" stop-color="#629EFE"/>
</linearGradient>
<linearGradient id="paint23_linear" x1="577" y1="0" x2="577" y2="535" gradientUnits="userSpaceOnUse">
<stop stop-color="#4B8CF4"/>
<stop offset="1" stop-color="#629EFE"/>
</linearGradient>
<linearGradient id="paint24_linear" x1="577" y1="0" x2="577" y2="535" gradientUnits="userSpaceOnUse">
<stop stop-color="#4B8CF4"/>
<stop offset="1" stop-color="#629EFE"/>
</linearGradient>
<linearGradient id="paint25_linear" x1="577" y1="0" x2="577" y2="535" gradientUnits="userSpaceOnUse">
<stop stop-color="#4B8CF4"/>
<stop offset="1" stop-color="#629EFE"/>
</linearGradient>
</defs>
</svg>
