<svg width="123" height="21" viewBox="0 0 123 21" fill="none" xmlns="http://www.w3.org/2000/svg">
<path d="M63.651 15.767V12.599H70.1885V10.1437H63.651V7.16583H71.0505V4.6156H60.4312V18.3171H71.3106V15.767H63.651Z" fill="white"/>
<path d="M102.079 18.3171L102.063 10.0962L97.9322 16.8599H96.4686L92.3542 10.2705V18.3013H89.2969V4.6156H91.9802L97.2492 13.1375L102.437 4.63144H105.104L105.137 18.3171H102.079Z" fill="white"/>
<path d="M114.926 7.03914C117.432 7.03914 119.48 9.03497 119.48 11.4743C119.48 13.9137 117.432 15.9095 114.926 15.9095C112.422 15.9095 110.374 13.9137 110.374 11.4743C110.374 9.03497 112.406 7.03914 114.926 7.03914ZM114.926 4.29883C110.861 4.29883 107.56 7.51434 107.56 11.4743C107.56 15.4343 110.861 18.6498 114.926 18.6498C118.992 18.6498 122.293 15.4343 122.293 11.4743C122.293 7.51434 118.992 4.29883 114.926 4.29883Z" fill="white"/>
<path d="M87.1989 4.6156H83.6049L80.2711 9.06662L78.4822 11.4743L73.3433 18.3171H76.9373L80.2711 13.8661L83.6049 18.3171H87.1989L82.0762 11.4743L87.1989 4.6156Z" fill="white"/>
<path d="M79.1327 7.56183L76.9373 4.6156H73.3433L77.3439 9.95366L79.1327 7.56183Z" fill="white"/>
<path d="M27.5812 4.61547L9.26972 4.59963L8.13135 2.66715L9.26972 0.750519H27.5812L26.4428 2.68299L27.5812 4.61547Z" fill="white"/>
<path d="M24.0684 18.3171L34.4926 0.750519H36.7855L37.9239 2.68299L27.4997 20.2495L26.3613 18.3171H24.0684Z" fill="white"/>
<path d="M40.8188 18.3171L51.2431 0.750519H53.536L54.6744 2.68299L44.2502 20.2495L43.1118 18.3171H40.8188Z" fill="white"/>
<path d="M43.258 7.7992L37.0295 18.3169H34.7365L33.5981 16.3845L39.8266 5.86673L40.965 7.7992H43.258Z" fill="white"/>
<path d="M19.4499 18.3167H1.13837L0 16.4001L1.13837 14.4677H19.4499L18.3114 16.4001L19.4499 18.3167Z" fill="white"/>
<path d="M5.22021 7.60907H17.6772L18.8156 9.54154L17.6772 11.4741H5.22021L6.35858 9.54154L5.22021 7.60907Z" fill="white"/>
</svg>
