<svg width="1215" height="261" viewBox="0 0 1215 261" fill="none" xmlns="http://www.w3.org/2000/svg">
<path opacity="0.2" d="M1159.56 98.648H1157.74V101H1155.21V98.648H1149.18V96.904L1154.46 89.8H1157.18L1152.28 96.536H1155.29V94.44H1157.74V96.536H1159.56V98.648ZM1168.16 95.112C1168.71 95.3893 1169.13 95.752 1169.42 96.2C1169.72 96.648 1169.87 97.1653 1169.87 97.752C1169.87 98.4453 1169.67 99.0533 1169.28 99.576C1168.88 100.088 1168.33 100.488 1167.61 100.776C1166.9 101.053 1166.07 101.192 1165.13 101.192C1164.19 101.192 1163.37 101.053 1162.65 100.776C1161.95 100.488 1161.4 100.088 1161 99.576C1160.62 99.0533 1160.43 98.4453 1160.43 97.752C1160.43 97.1653 1160.57 96.648 1160.86 96.2C1161.16 95.752 1161.58 95.3893 1162.12 95.112C1161.71 94.856 1161.39 94.536 1161.16 94.152C1160.94 93.7573 1160.83 93.3093 1160.83 92.808C1160.83 92.1573 1161.01 91.592 1161.37 91.112C1161.73 90.632 1162.24 90.264 1162.89 90.008C1163.54 89.7413 1164.29 89.608 1165.13 89.608C1165.98 89.608 1166.74 89.7413 1167.39 90.008C1168.05 90.264 1168.56 90.632 1168.92 91.112C1169.29 91.592 1169.47 92.1573 1169.47 92.808C1169.47 93.3093 1169.36 93.7573 1169.13 94.152C1168.91 94.536 1168.58 94.856 1168.16 95.112ZM1165.13 91.512C1164.61 91.512 1164.19 91.64 1163.87 91.896C1163.56 92.1413 1163.4 92.4827 1163.4 92.92C1163.4 93.3467 1163.56 93.6827 1163.87 93.928C1164.18 94.1733 1164.6 94.296 1165.13 94.296C1165.66 94.296 1166.09 94.1733 1166.41 93.928C1166.73 93.6827 1166.89 93.3467 1166.89 92.92C1166.89 92.4827 1166.73 92.1413 1166.41 91.896C1166.09 91.64 1165.66 91.512 1165.13 91.512ZM1165.13 99.288C1165.78 99.288 1166.29 99.144 1166.67 98.856C1167.05 98.5573 1167.24 98.1627 1167.24 97.672C1167.24 97.1813 1167.05 96.792 1166.67 96.504C1166.29 96.216 1165.78 96.072 1165.13 96.072C1164.49 96.072 1163.98 96.216 1163.61 96.504C1163.24 96.792 1163.05 97.1813 1163.05 97.672C1163.05 98.1733 1163.24 98.568 1163.61 98.856C1163.98 99.144 1164.49 99.288 1165.13 99.288ZM1172.68 101.128C1172.24 101.128 1171.88 100.979 1171.58 100.68C1171.28 100.381 1171.13 100.008 1171.13 99.56C1171.13 99.1013 1171.28 98.7333 1171.58 98.456C1171.88 98.168 1172.24 98.024 1172.68 98.024C1173.12 98.024 1173.49 98.168 1173.79 98.456C1174.08 98.7333 1174.23 99.1013 1174.23 99.56C1174.23 100.008 1174.08 100.381 1173.79 100.68C1173.49 100.979 1173.12 101.128 1172.68 101.128ZM1179.33 89.608C1180.9 89.608 1182.13 90.088 1183.01 91.048C1183.9 91.9973 1184.34 93.368 1184.34 95.16C1184.34 96.4293 1184.1 97.5173 1183.62 98.424C1183.15 99.3307 1182.49 100.019 1181.62 100.488C1180.76 100.957 1179.76 101.192 1178.63 101.192C1178.03 101.192 1177.46 101.128 1176.92 101C1176.37 100.861 1175.91 100.669 1175.53 100.424L1176.49 98.52C1177.03 98.8933 1177.73 99.08 1178.58 99.08C1179.53 99.08 1180.28 98.8027 1180.84 98.248C1181.39 97.6827 1181.69 96.872 1181.73 95.816C1181.06 96.488 1180.13 96.824 1178.95 96.824C1178.23 96.824 1177.58 96.68 1177 96.392C1176.41 96.104 1175.95 95.6987 1175.61 95.176C1175.26 94.6427 1175.09 94.0293 1175.09 93.336C1175.09 92.5893 1175.28 91.9333 1175.65 91.368C1176.03 90.8027 1176.53 90.3707 1177.17 90.072C1177.82 89.7627 1178.54 89.608 1179.33 89.608ZM1179.53 94.888C1180.09 94.888 1180.55 94.7333 1180.9 94.424C1181.26 94.104 1181.45 93.6987 1181.45 93.208C1181.45 92.7173 1181.27 92.3173 1180.92 92.008C1180.58 91.6987 1180.1 91.544 1179.49 91.544C1178.94 91.544 1178.49 91.6933 1178.13 91.992C1177.79 92.2907 1177.62 92.696 1177.62 93.208C1177.62 93.72 1177.79 94.1307 1178.13 94.44C1178.49 94.7387 1178.95 94.888 1179.53 94.888ZM1189.52 89.608C1191.09 89.608 1192.32 90.088 1193.2 91.048C1194.09 91.9973 1194.53 93.368 1194.53 95.16C1194.53 96.4293 1194.29 97.5173 1193.81 98.424C1193.34 99.3307 1192.67 100.019 1191.81 100.488C1190.94 100.957 1189.95 101.192 1188.82 101.192C1188.22 101.192 1187.65 101.128 1187.1 101C1186.56 100.861 1186.1 100.669 1185.71 100.424L1186.67 98.52C1187.22 98.8933 1187.92 99.08 1188.77 99.08C1189.72 99.08 1190.47 98.8027 1191.02 98.248C1191.58 97.6827 1191.88 96.872 1191.92 95.816C1191.25 96.488 1190.32 96.824 1189.14 96.824C1188.42 96.824 1187.77 96.68 1187.18 96.392C1186.6 96.104 1186.13 95.6987 1185.79 95.176C1185.45 94.6427 1185.28 94.0293 1185.28 93.336C1185.28 92.5893 1185.47 91.9333 1185.84 91.368C1186.21 90.8027 1186.72 90.3707 1187.36 90.072C1188.01 89.7627 1188.73 89.608 1189.52 89.608ZM1189.71 94.888C1190.28 94.888 1190.74 94.7333 1191.09 94.424C1191.45 94.104 1191.63 93.6987 1191.63 93.208C1191.63 92.7173 1191.46 92.3173 1191.1 92.008C1190.76 91.6987 1190.29 91.544 1189.68 91.544C1189.13 91.544 1188.67 91.6933 1188.32 91.992C1187.98 92.2907 1187.81 92.696 1187.81 93.208C1187.81 93.72 1187.98 94.1307 1188.32 94.44C1188.67 94.7387 1189.14 94.888 1189.71 94.888ZM1200 89.8V101H1197.41V91.88H1195.17V89.8H1200Z" fill="white"/>
<path opacity="0.2" d="M876.762 157.36C877.744 157.52 878.496 157.888 879.018 158.464C879.541 159.029 879.802 159.733 879.802 160.576C879.802 161.227 879.632 161.829 879.29 162.384C878.949 162.928 878.426 163.365 877.722 163.696C877.029 164.027 876.176 164.192 875.162 164.192C874.373 164.192 873.594 164.091 872.826 163.888C872.069 163.675 871.424 163.376 870.89 162.992L871.898 161.008C872.325 161.328 872.816 161.579 873.37 161.76C873.936 161.931 874.512 162.016 875.098 162.016C875.749 162.016 876.261 161.893 876.634 161.648C877.008 161.392 877.194 161.035 877.194 160.576C877.194 159.659 876.496 159.2 875.098 159.2H873.914V157.488L876.218 154.88H871.45V152.8H879.29V154.48L876.762 157.36ZM885.319 152.8V164H882.727V154.88H880.487V152.8H885.319ZM888.737 164.128C888.299 164.128 887.931 163.979 887.633 163.68C887.334 163.381 887.185 163.008 887.185 162.56C887.185 162.101 887.334 161.733 887.633 161.456C887.931 161.168 888.299 161.024 888.737 161.024C889.174 161.024 889.542 161.168 889.841 161.456C890.139 161.733 890.289 162.101 890.289 162.56C890.289 163.008 890.139 163.381 889.841 163.68C889.542 163.979 889.174 164.128 888.737 164.128ZM896.049 164.192C895.121 164.192 894.294 163.963 893.569 163.504C892.844 163.045 892.273 162.384 891.857 161.52C891.452 160.645 891.249 159.605 891.249 158.4C891.249 157.195 891.452 156.16 891.857 155.296C892.273 154.421 892.844 153.755 893.569 153.296C894.294 152.837 895.121 152.608 896.049 152.608C896.977 152.608 897.804 152.837 898.529 153.296C899.254 153.755 899.82 154.421 900.225 155.296C900.641 156.16 900.849 157.195 900.849 158.4C900.849 159.605 900.641 160.645 900.225 161.52C899.82 162.384 899.254 163.045 898.529 163.504C897.804 163.963 896.977 164.192 896.049 164.192ZM896.049 162C896.732 162 897.265 161.707 897.649 161.12C898.044 160.533 898.241 159.627 898.241 158.4C898.241 157.173 898.044 156.267 897.649 155.68C897.265 155.093 896.732 154.8 896.049 154.8C895.377 154.8 894.844 155.093 894.449 155.68C894.065 156.267 893.873 157.173 893.873 158.4C893.873 159.627 894.065 160.533 894.449 161.12C894.844 161.707 895.377 162 896.049 162ZM906.335 152.8V164H903.743V154.88H901.503V152.8H906.335ZM916.648 161.888V164H908.184V162.32L912.504 158.24C912.963 157.803 913.272 157.429 913.432 157.12C913.592 156.8 913.672 156.485 913.672 156.176C913.672 155.728 913.518 155.387 913.208 155.152C912.91 154.907 912.467 154.784 911.88 154.784C911.39 154.784 910.947 154.88 910.552 155.072C910.158 155.253 909.827 155.531 909.56 155.904L907.672 154.688C908.11 154.037 908.712 153.531 909.48 153.168C910.248 152.795 911.128 152.608 912.12 152.608C912.952 152.608 913.678 152.747 914.296 153.024C914.926 153.291 915.411 153.675 915.752 154.176C916.104 154.667 916.28 155.248 916.28 155.92C916.28 156.528 916.152 157.099 915.896 157.632C915.64 158.165 915.144 158.773 914.408 159.456L911.832 161.888H916.648Z" fill="white"/>
<path opacity="0.2" d="M300.007 226.8V238H297.414V228.88H295.175V226.8H300.007ZM305.792 231.008C307.371 231.008 308.533 231.323 309.28 231.952C310.037 232.581 310.416 233.424 310.416 234.48C310.416 235.163 310.245 235.787 309.904 236.352C309.563 236.907 309.04 237.355 308.336 237.696C307.643 238.027 306.784 238.192 305.76 238.192C304.971 238.192 304.192 238.091 303.424 237.888C302.667 237.675 302.021 237.376 301.488 236.992L302.512 235.008C302.939 235.328 303.429 235.579 303.984 235.76C304.539 235.931 305.109 236.016 305.696 236.016C306.347 236.016 306.859 235.888 307.232 235.632C307.605 235.376 307.792 235.019 307.792 234.56C307.792 234.08 307.595 233.717 307.2 233.472C306.816 233.227 306.144 233.104 305.184 233.104H302.32L302.896 226.8H309.728V228.88H305.056L304.88 231.008H305.792ZM312.94 238.128C312.502 238.128 312.134 237.979 311.836 237.68C311.537 237.381 311.388 237.008 311.388 236.56C311.388 236.101 311.537 235.733 311.836 235.456C312.134 235.168 312.502 235.024 312.94 235.024C313.377 235.024 313.745 235.168 314.044 235.456C314.342 235.733 314.492 236.101 314.492 236.56C314.492 237.008 314.342 237.381 314.044 237.68C313.745 237.979 313.377 238.128 312.94 238.128ZM319.495 231.008C321.074 231.008 322.237 231.323 322.983 231.952C323.741 232.581 324.119 233.424 324.119 234.48C324.119 235.163 323.949 235.787 323.607 236.352C323.266 236.907 322.743 237.355 322.039 237.696C321.346 238.027 320.487 238.192 319.463 238.192C318.674 238.192 317.895 238.091 317.127 237.888C316.37 237.675 315.725 237.376 315.191 236.992L316.215 235.008C316.642 235.328 317.133 235.579 317.687 235.76C318.242 235.931 318.813 236.016 319.399 236.016C320.05 236.016 320.562 235.888 320.935 235.632C321.309 235.376 321.495 235.019 321.495 234.56C321.495 234.08 321.298 233.717 320.903 233.472C320.519 233.227 319.847 233.104 318.887 233.104H316.023L316.599 226.8H323.431V228.88H318.759L318.583 231.008H319.495ZM335.427 235.648H333.603V238H331.075V235.648H325.043V233.904L330.323 226.8H333.043L328.147 233.536H331.155V231.44H333.603V233.536H335.427V235.648ZM341.325 231.36C342.306 231.52 343.058 231.888 343.581 232.464C344.103 233.029 344.365 233.733 344.365 234.576C344.365 235.227 344.194 235.829 343.853 236.384C343.511 236.928 342.989 237.365 342.285 237.696C341.591 238.027 340.738 238.192 339.725 238.192C338.935 238.192 338.157 238.091 337.389 237.888C336.631 237.675 335.986 237.376 335.453 236.992L336.461 235.008C336.887 235.328 337.378 235.579 337.933 235.76C338.498 235.931 339.074 236.016 339.661 236.016C340.311 236.016 340.823 235.893 341.197 235.648C341.57 235.392 341.757 235.035 341.757 234.576C341.757 233.659 341.058 233.2 339.661 233.2H338.477V231.488L340.781 228.88H336.013V226.8H343.853V228.48L341.325 231.36Z" fill="white"/>
<path opacity="0.2" d="M21.2811 192.888V195H12.8171V193.32L17.1371 189.24C17.5957 188.803 17.9051 188.429 18.0651 188.12C18.2251 187.8 18.3051 187.485 18.3051 187.176C18.3051 186.728 18.1504 186.387 17.8411 186.152C17.5424 185.907 17.0997 185.784 16.5131 185.784C16.0224 185.784 15.5797 185.88 15.1851 186.072C14.7904 186.253 14.4597 186.531 14.1931 186.904L12.3051 185.688C12.7424 185.037 13.3451 184.531 14.1131 184.168C14.8811 183.795 15.7611 183.608 16.7531 183.608C17.5851 183.608 18.3104 183.747 18.9291 184.024C19.5584 184.291 20.0437 184.675 20.3851 185.176C20.7371 185.667 20.9131 186.248 20.9131 186.92C20.9131 187.528 20.7851 188.099 20.5291 188.632C20.2731 189.165 19.7771 189.773 19.0411 190.456L16.4651 192.888H21.2811ZM30.0146 189.112C30.5692 189.389 30.9906 189.752 31.2786 190.2C31.5772 190.648 31.7266 191.165 31.7266 191.752C31.7266 192.445 31.5292 193.053 31.1346 193.576C30.7399 194.088 30.1852 194.488 29.4706 194.776C28.7559 195.053 27.9292 195.192 26.9906 195.192C26.0519 195.192 25.2252 195.053 24.5106 194.776C23.8066 194.488 23.2572 194.088 22.8626 193.576C22.4786 193.053 22.2866 192.445 22.2866 191.752C22.2866 191.165 22.4306 190.648 22.7186 190.2C23.0172 189.752 23.4386 189.389 23.9826 189.112C23.5666 188.856 23.2466 188.536 23.0226 188.152C22.7986 187.757 22.6866 187.309 22.6866 186.808C22.6866 186.157 22.8679 185.592 23.2306 185.112C23.5932 184.632 24.0999 184.264 24.7506 184.008C25.4012 183.741 26.1479 183.608 26.9906 183.608C27.8439 183.608 28.5959 183.741 29.2466 184.008C29.9079 184.264 30.4199 184.632 30.7826 185.112C31.1452 185.592 31.3266 186.157 31.3266 186.808C31.3266 187.309 31.2146 187.757 30.9906 188.152C30.7666 188.536 30.4412 188.856 30.0146 189.112ZM26.9906 185.512C26.4679 185.512 26.0466 185.64 25.7266 185.896C25.4172 186.141 25.2626 186.483 25.2626 186.92C25.2626 187.347 25.4172 187.683 25.7266 187.928C26.0359 188.173 26.4572 188.296 26.9906 188.296C27.5239 188.296 27.9506 188.173 28.2706 187.928C28.5906 187.683 28.7506 187.347 28.7506 186.92C28.7506 186.483 28.5906 186.141 28.2706 185.896C27.9506 185.64 27.5239 185.512 26.9906 185.512ZM26.9906 193.288C27.6412 193.288 28.1532 193.144 28.5266 192.856C28.9106 192.557 29.1026 192.163 29.1026 191.672C29.1026 191.181 28.9106 190.792 28.5266 190.504C28.1532 190.216 27.6412 190.072 26.9906 190.072C26.3506 190.072 25.8439 190.216 25.4706 190.504C25.0972 190.792 24.9106 191.181 24.9106 191.672C24.9106 192.173 25.0972 192.568 25.4706 192.856C25.8439 193.144 26.3506 193.288 26.9906 193.288ZM34.5413 195.128C34.104 195.128 33.736 194.979 33.4373 194.68C33.1386 194.381 32.9893 194.008 32.9893 193.56C32.9893 193.101 33.1386 192.733 33.4373 192.456C33.736 192.168 34.104 192.024 34.5413 192.024C34.9786 192.024 35.3466 192.168 35.6453 192.456C35.944 192.733 36.0933 193.101 36.0933 193.56C36.0933 194.008 35.944 194.381 35.6453 194.68C35.3466 194.979 34.9786 195.128 34.5413 195.128ZM47.5128 192.648H45.6888V195H43.1608V192.648H37.1288V190.904L42.4088 183.8H45.1288L40.2328 190.536H43.2408V188.44H45.6888V190.536H47.5128V192.648ZM53.6801 187.976C54.3947 187.976 55.0454 188.12 55.6321 188.408C56.2187 188.696 56.6827 189.107 57.0241 189.64C57.3654 190.163 57.5361 190.771 57.5361 191.464C57.5361 192.211 57.3494 192.867 56.9761 193.432C56.6027 193.997 56.0907 194.435 55.4401 194.744C54.8001 195.043 54.0854 195.192 53.2961 195.192C51.7281 195.192 50.5014 194.712 49.6161 193.752C48.7307 192.792 48.2881 191.421 48.2881 189.64C48.2881 188.371 48.5281 187.283 49.0081 186.376C49.4881 185.469 50.1547 184.781 51.0081 184.312C51.8721 183.843 52.8694 183.608 54.0001 183.608C54.5974 183.608 55.1681 183.677 55.7121 183.816C56.2667 183.944 56.7361 184.131 57.1201 184.376L56.1601 186.28C55.6054 185.907 54.9067 185.72 54.0641 185.72C53.1147 185.72 52.3627 185.997 51.8081 186.552C51.2534 187.107 50.9547 187.912 50.9121 188.968C51.5734 188.307 52.4961 187.976 53.6801 187.976ZM53.1521 193.256C53.7067 193.256 54.1547 193.107 54.4961 192.808C54.8481 192.509 55.0241 192.104 55.0241 191.592C55.0241 191.08 54.8481 190.675 54.4961 190.376C54.1547 190.067 53.6961 189.912 53.1201 189.912C52.5547 189.912 52.0907 190.072 51.7281 190.392C51.3654 190.701 51.1841 191.101 51.1841 191.592C51.1841 192.083 51.3601 192.483 51.7121 192.792C52.0641 193.101 52.5441 193.256 53.1521 193.256ZM67.1811 183.8V185.48L63.0211 195H60.2051L64.2211 185.912H60.5091V187.736H58.2051V183.8H67.1811Z" fill="white"/>
<path opacity="0.2" d="M117.489 16.36C118.47 16.52 119.222 16.888 119.745 17.464C120.267 18.0293 120.529 18.7333 120.529 19.576C120.529 20.2267 120.358 20.8293 120.017 21.384C119.675 21.928 119.153 22.3653 118.449 22.696C117.755 23.0267 116.902 23.192 115.889 23.192C115.099 23.192 114.321 23.0907 113.553 22.888C112.795 22.6747 112.15 22.376 111.617 21.992L112.625 20.008C113.051 20.328 113.542 20.5787 114.097 20.76C114.662 20.9307 115.238 21.016 115.825 21.016C116.475 21.016 116.987 20.8933 117.361 20.648C117.734 20.392 117.921 20.0347 117.921 19.576C117.921 18.6587 117.222 18.2 115.825 18.2H114.641V16.488L116.945 13.88H112.177V11.8H120.017V13.48L117.489 16.36ZM127.118 15.976C127.832 15.976 128.483 16.12 129.07 16.408C129.656 16.696 130.12 17.1067 130.462 17.64C130.803 18.1627 130.974 18.7707 130.974 19.464C130.974 20.2107 130.787 20.8667 130.414 21.432C130.04 21.9973 129.528 22.4347 128.878 22.744C128.238 23.0427 127.523 23.192 126.734 23.192C125.166 23.192 123.939 22.712 123.054 21.752C122.168 20.792 121.726 19.4213 121.726 17.64C121.726 16.3707 121.966 15.2827 122.446 14.376C122.926 13.4693 123.592 12.7813 124.446 12.312C125.31 11.8427 126.307 11.608 127.438 11.608C128.035 11.608 128.606 11.6773 129.15 11.816C129.704 11.944 130.174 12.1307 130.558 12.376L129.598 14.28C129.043 13.9067 128.344 13.72 127.502 13.72C126.552 13.72 125.8 13.9973 125.246 14.552C124.691 15.1067 124.392 15.912 124.35 16.968C125.011 16.3067 125.934 15.976 127.118 15.976ZM126.59 21.256C127.144 21.256 127.592 21.1067 127.934 20.808C128.286 20.5093 128.462 20.104 128.462 19.592C128.462 19.08 128.286 18.6747 127.934 18.376C127.592 18.0667 127.134 17.912 126.558 17.912C125.992 17.912 125.528 18.072 125.166 18.392C124.803 18.7013 124.622 19.1013 124.622 19.592C124.622 20.0827 124.798 20.4827 125.15 20.792C125.502 21.1013 125.982 21.256 126.59 21.256ZM133.541 23.128C133.104 23.128 132.736 22.9787 132.437 22.68C132.139 22.3813 131.989 22.008 131.989 21.56C131.989 21.1013 132.139 20.7333 132.437 20.456C132.736 20.168 133.104 20.024 133.541 20.024C133.979 20.024 134.347 20.168 134.645 20.456C134.944 20.7333 135.093 21.1013 135.093 21.56C135.093 22.008 134.944 22.3813 134.645 22.68C134.347 22.9787 133.979 23.128 133.541 23.128ZM141.446 15.976C142.16 15.976 142.811 16.12 143.398 16.408C143.984 16.696 144.448 17.1067 144.79 17.64C145.131 18.1627 145.302 18.7707 145.302 19.464C145.302 20.2107 145.115 20.8667 144.742 21.432C144.368 21.9973 143.856 22.4347 143.206 22.744C142.566 23.0427 141.851 23.192 141.062 23.192C139.494 23.192 138.267 22.712 137.382 21.752C136.496 20.792 136.054 19.4213 136.054 17.64C136.054 16.3707 136.294 15.2827 136.774 14.376C137.254 13.4693 137.92 12.7813 138.774 12.312C139.638 11.8427 140.635 11.608 141.766 11.608C142.363 11.608 142.934 11.6773 143.478 11.816C144.032 11.944 144.502 12.1307 144.886 12.376L143.926 14.28C143.371 13.9067 142.672 13.72 141.83 13.72C140.88 13.72 140.128 13.9973 139.574 14.552C139.019 15.1067 138.72 15.912 138.678 16.968C139.339 16.3067 140.262 15.976 141.446 15.976ZM140.918 21.256C141.472 21.256 141.92 21.1067 142.262 20.808C142.614 20.5093 142.79 20.104 142.79 19.592C142.79 19.08 142.614 18.6747 142.262 18.376C141.92 18.0667 141.462 17.912 140.886 17.912C140.32 17.912 139.856 18.072 139.494 18.392C139.131 18.7013 138.95 19.1013 138.95 19.592C138.95 20.0827 139.126 20.4827 139.478 20.792C139.83 21.1013 140.31 21.256 140.918 21.256ZM153.905 17.112C154.46 17.3893 154.881 17.752 155.169 18.2C155.468 18.648 155.617 19.1653 155.617 19.752C155.617 20.4453 155.42 21.0533 155.025 21.576C154.631 22.088 154.076 22.488 153.361 22.776C152.647 23.0533 151.82 23.192 150.881 23.192C149.943 23.192 149.116 23.0533 148.401 22.776C147.697 22.488 147.148 22.088 146.753 21.576C146.369 21.0533 146.177 20.4453 146.177 19.752C146.177 19.1653 146.321 18.648 146.609 18.2C146.908 17.752 147.329 17.3893 147.873 17.112C147.457 16.856 147.137 16.536 146.913 16.152C146.689 15.7573 146.577 15.3093 146.577 14.808C146.577 14.1573 146.759 13.592 147.121 13.112C147.484 12.632 147.991 12.264 148.641 12.008C149.292 11.7413 150.039 11.608 150.881 11.608C151.735 11.608 152.487 11.7413 153.137 12.008C153.799 12.264 154.311 12.632 154.673 13.112C155.036 13.592 155.217 14.1573 155.217 14.808C155.217 15.3093 155.105 15.7573 154.881 16.152C154.657 16.536 154.332 16.856 153.905 17.112ZM150.881 13.512C150.359 13.512 149.937 13.64 149.617 13.896C149.308 14.1413 149.153 14.4827 149.153 14.92C149.153 15.3467 149.308 15.6827 149.617 15.928C149.927 16.1733 150.348 16.296 150.881 16.296C151.415 16.296 151.841 16.1733 152.161 15.928C152.481 15.6827 152.641 15.3467 152.641 14.92C152.641 14.4827 152.481 14.1413 152.161 13.896C151.841 13.64 151.415 13.512 150.881 13.512ZM150.881 21.288C151.532 21.288 152.044 21.144 152.417 20.856C152.801 20.5573 152.993 20.1627 152.993 19.672C152.993 19.1813 152.801 18.792 152.417 18.504C152.044 18.216 151.532 18.072 150.881 18.072C150.241 18.072 149.735 18.216 149.361 18.504C148.988 18.792 148.801 19.1813 148.801 19.672C148.801 20.1733 148.988 20.568 149.361 20.856C149.735 21.144 150.241 21.288 150.881 21.288ZM162.196 15.976C162.91 15.976 163.561 16.12 164.148 16.408C164.734 16.696 165.198 17.1067 165.54 17.64C165.881 18.1627 166.052 18.7707 166.052 19.464C166.052 20.2107 165.865 20.8667 165.492 21.432C165.118 21.9973 164.606 22.4347 163.956 22.744C163.316 23.0427 162.601 23.192 161.812 23.192C160.244 23.192 159.017 22.712 158.132 21.752C157.246 20.792 156.804 19.4213 156.804 17.64C156.804 16.3707 157.044 15.2827 157.524 14.376C158.004 13.4693 158.67 12.7813 159.524 12.312C160.388 11.8427 161.385 11.608 162.516 11.608C163.113 11.608 163.684 11.6773 164.228 11.816C164.782 11.944 165.252 12.1307 165.636 12.376L164.676 14.28C164.121 13.9067 163.422 13.72 162.58 13.72C161.63 13.72 160.878 13.9973 160.324 14.552C159.769 15.1067 159.47 15.912 159.428 16.968C160.089 16.3067 161.012 15.976 162.196 15.976ZM161.668 21.256C162.222 21.256 162.67 21.1067 163.012 20.808C163.364 20.5093 163.54 20.104 163.54 19.592C163.54 19.08 163.364 18.6747 163.012 18.376C162.67 18.0667 162.212 17.912 161.636 17.912C161.07 17.912 160.606 18.072 160.244 18.392C159.881 18.7013 159.7 19.1013 159.7 19.592C159.7 20.0827 159.876 20.4827 160.228 20.792C160.58 21.1013 161.06 21.256 161.668 21.256Z" fill="white"/>
</svg>
