<svg width="547" height="363" viewBox="0 0 547 363" fill="none" xmlns="http://www.w3.org/2000/svg">
<path opacity="0.3" d="M481.13 310.835C482.1 310.955 482.84 311.285 483.35 311.825C483.86 312.365 484.115 313.04 484.115 313.85C484.115 314.46 483.96 315.015 483.65 315.515C483.34 316.015 482.87 316.415 482.24 316.715C481.62 317.005 480.86 317.15 479.96 317.15C479.21 317.15 478.485 317.045 477.785 316.835C477.095 316.615 476.505 316.315 476.015 315.935L476.855 314.42C477.235 314.74 477.695 314.995 478.235 315.185C478.785 315.365 479.35 315.455 479.93 315.455C480.62 315.455 481.16 315.315 481.55 315.035C481.95 314.745 482.15 314.355 482.15 313.865C482.15 313.375 481.96 312.995 481.58 312.725C481.21 312.445 480.64 312.305 479.87 312.305H478.91V310.97L481.295 308.135H476.525V306.5H483.68V307.805L481.13 310.835ZM494.75 314.615H492.89V317H491V314.615H485.24V313.265L490.415 306.5H492.5L487.625 312.965H491.06V310.85H492.89V312.965H494.75V314.615ZM497.034 317.105C496.694 317.105 496.404 316.99 496.164 316.76C495.924 316.52 495.804 316.22 495.804 315.86C495.804 315.49 495.919 315.19 496.149 314.96C496.389 314.73 496.684 314.615 497.034 314.615C497.384 314.615 497.674 314.73 497.904 314.96C498.144 315.19 498.264 315.49 498.264 315.86C498.264 316.22 498.144 316.52 497.904 316.76C497.664 316.99 497.374 317.105 497.034 317.105ZM508.813 314.615H506.953V317H505.063V314.615H499.303V313.265L504.478 306.5H506.563L501.688 312.965H505.123V310.85H506.953V312.965H508.813V314.615ZM516.59 311.48C517.14 311.73 517.56 312.07 517.85 312.5C518.15 312.92 518.3 313.415 518.3 313.985C518.3 314.625 518.12 315.185 517.76 315.665C517.41 316.145 516.91 316.515 516.26 316.775C515.61 317.025 514.855 317.15 513.995 317.15C513.135 317.15 512.38 317.025 511.73 316.775C511.09 316.515 510.595 316.145 510.245 315.665C509.895 315.185 509.72 314.625 509.72 313.985C509.72 313.415 509.865 312.92 510.155 312.5C510.445 312.07 510.86 311.73 511.4 311.48C510.98 311.25 510.655 310.95 510.425 310.58C510.205 310.2 510.095 309.765 510.095 309.275C510.095 308.685 510.255 308.17 510.575 307.73C510.905 307.29 511.365 306.95 511.955 306.71C512.545 306.47 513.225 306.35 513.995 306.35C514.775 306.35 515.46 306.47 516.05 306.71C516.64 306.95 517.1 307.29 517.43 307.73C517.76 308.17 517.925 308.685 517.925 309.275C517.925 309.765 517.81 310.195 517.58 310.565C517.35 310.935 517.02 311.24 516.59 311.48ZM513.995 307.88C513.385 307.88 512.9 308.01 512.54 308.27C512.19 308.53 512.015 308.895 512.015 309.365C512.015 309.815 512.19 310.175 512.54 310.445C512.9 310.705 513.385 310.835 513.995 310.835C514.615 310.835 515.105 310.705 515.465 310.445C515.825 310.175 516.005 309.815 516.005 309.365C516.005 308.895 515.82 308.53 515.45 308.27C515.09 308.01 514.605 307.88 513.995 307.88ZM513.995 315.62C514.715 315.62 515.285 315.47 515.705 315.17C516.125 314.87 516.335 314.455 516.335 313.925C516.335 313.405 516.125 312.995 515.705 312.695C515.285 312.395 514.715 312.245 513.995 312.245C513.275 312.245 512.71 312.395 512.3 312.695C511.89 312.995 511.685 313.405 511.685 313.925C511.685 314.455 511.89 314.87 512.3 315.17C512.71 315.47 513.275 315.62 513.995 315.62ZM524.035 310.835C525.005 310.955 525.745 311.285 526.255 311.825C526.765 312.365 527.02 313.04 527.02 313.85C527.02 314.46 526.865 315.015 526.555 315.515C526.245 316.015 525.775 316.415 525.145 316.715C524.525 317.005 523.765 317.15 522.865 317.15C522.115 317.15 521.39 317.045 520.69 316.835C520 316.615 519.41 316.315 518.92 315.935L519.76 314.42C520.14 314.74 520.6 314.995 521.14 315.185C521.69 315.365 522.255 315.455 522.835 315.455C523.525 315.455 524.065 315.315 524.455 315.035C524.855 314.745 525.055 314.355 525.055 313.865C525.055 313.375 524.865 312.995 524.485 312.725C524.115 312.445 523.545 312.305 522.775 312.305H521.815V310.97L524.2 308.135H519.43V306.5H526.585V307.805L524.035 310.835Z" fill="white"/>
<path opacity="0.3" d="M330.02 345.615H328.16V348H326.27V345.615H320.51V344.265L325.685 337.5H327.77L322.895 343.965H326.33V341.85H328.16V343.965H330.02V345.615ZM335.611 341.52C336.301 341.52 336.921 341.655 337.471 341.925C338.021 342.185 338.451 342.56 338.761 343.05C339.071 343.54 339.226 344.105 339.226 344.745C339.226 345.425 339.056 346.025 338.716 346.545C338.376 347.055 337.916 347.45 337.336 347.73C336.756 348.01 336.106 348.15 335.386 348.15C333.946 348.15 332.826 347.7 332.026 346.8C331.236 345.9 330.841 344.61 330.841 342.93C330.841 341.75 331.056 340.745 331.486 339.915C331.916 339.075 332.516 338.44 333.286 338.01C334.066 337.57 334.966 337.35 335.986 337.35C336.526 337.35 337.031 337.41 337.501 337.53C337.981 337.64 338.396 337.805 338.746 338.025L338.026 339.495C337.506 339.155 336.841 338.985 336.031 338.985C335.021 338.985 334.231 339.295 333.661 339.915C333.091 340.535 332.806 341.43 332.806 342.6V342.615C333.116 342.255 333.511 341.985 333.991 341.805C334.471 341.615 335.011 341.52 335.611 341.52ZM335.281 346.62C335.891 346.62 336.386 346.46 336.766 346.14C337.146 345.81 337.336 345.375 337.336 344.835C337.336 344.285 337.146 343.85 336.766 343.53C336.386 343.21 335.876 343.05 335.236 343.05C334.606 343.05 334.091 343.22 333.691 343.56C333.301 343.9 333.106 344.33 333.106 344.85C333.106 345.36 333.296 345.785 333.676 346.125C334.066 346.455 334.601 346.62 335.281 346.62ZM341.561 348.105C341.221 348.105 340.931 347.99 340.691 347.76C340.451 347.52 340.331 347.22 340.331 346.86C340.331 346.49 340.446 346.19 340.676 345.96C340.916 345.73 341.211 345.615 341.561 345.615C341.911 345.615 342.201 345.73 342.431 345.96C342.671 346.19 342.791 346.49 342.791 346.86C342.791 347.22 342.671 347.52 342.431 347.76C342.191 347.99 341.901 348.105 341.561 348.105ZM353.34 345.615H351.48V348H349.59V345.615H343.83V344.265L349.005 337.5H351.09L346.215 343.965H349.65V341.85H351.48V343.965H353.34V345.615ZM358.931 341.52C359.621 341.52 360.241 341.655 360.791 341.925C361.341 342.185 361.771 342.56 362.081 343.05C362.391 343.54 362.546 344.105 362.546 344.745C362.546 345.425 362.376 346.025 362.036 346.545C361.696 347.055 361.236 347.45 360.656 347.73C360.076 348.01 359.426 348.15 358.706 348.15C357.266 348.15 356.146 347.7 355.346 346.8C354.556 345.9 354.161 344.61 354.161 342.93C354.161 341.75 354.376 340.745 354.806 339.915C355.236 339.075 355.836 338.44 356.606 338.01C357.386 337.57 358.286 337.35 359.306 337.35C359.846 337.35 360.351 337.41 360.821 337.53C361.301 337.64 361.716 337.805 362.066 338.025L361.346 339.495C360.826 339.155 360.161 338.985 359.351 338.985C358.341 338.985 357.551 339.295 356.981 339.915C356.411 340.535 356.126 341.43 356.126 342.6V342.615C356.436 342.255 356.831 341.985 357.311 341.805C357.791 341.615 358.331 341.52 358.931 341.52ZM358.601 346.62C359.211 346.62 359.706 346.46 360.086 346.14C360.466 345.81 360.656 345.375 360.656 344.835C360.656 344.285 360.466 343.85 360.086 343.53C359.706 343.21 359.196 343.05 358.556 343.05C357.926 343.05 357.411 343.22 357.011 343.56C356.621 343.9 356.426 344.33 356.426 344.85C356.426 345.36 356.616 345.785 356.996 346.125C357.386 346.455 357.921 346.62 358.601 346.62ZM372.925 345.615H371.065V348H369.175V345.615H363.415V344.265L368.59 337.5H370.675L365.8 343.965H369.235V341.85H371.065V343.965H372.925V345.615Z" fill="white"/>
<path opacity="0.3" d="M371.02 11.615H369.16V14H367.27V11.615H361.51V10.265L366.685 3.5H368.77L363.895 9.965H367.33V7.85H369.16V9.965H371.02V11.615ZM376.611 7.52C377.301 7.52 377.921 7.655 378.471 7.925C379.021 8.185 379.451 8.56 379.761 9.05C380.071 9.54 380.226 10.105 380.226 10.745C380.226 11.425 380.056 12.025 379.716 12.545C379.376 13.055 378.916 13.45 378.336 13.73C377.756 14.01 377.106 14.15 376.386 14.15C374.946 14.15 373.826 13.7 373.026 12.8C372.236 11.9 371.841 10.61 371.841 8.93C371.841 7.75 372.056 6.745 372.486 5.915C372.916 5.075 373.516 4.44 374.286 4.01C375.066 3.57 375.966 3.35 376.986 3.35C377.526 3.35 378.031 3.41 378.501 3.53C378.981 3.64 379.396 3.805 379.746 4.025L379.026 5.495C378.506 5.155 377.841 4.985 377.031 4.985C376.021 4.985 375.231 5.295 374.661 5.915C374.091 6.535 373.806 7.43 373.806 8.6V8.615C374.116 8.255 374.511 7.985 374.991 7.805C375.471 7.615 376.011 7.52 376.611 7.52ZM376.281 12.62C376.891 12.62 377.386 12.46 377.766 12.14C378.146 11.81 378.336 11.375 378.336 10.835C378.336 10.285 378.146 9.85 377.766 9.53C377.386 9.21 376.876 9.05 376.236 9.05C375.606 9.05 375.091 9.22 374.691 9.56C374.301 9.9 374.106 10.33 374.106 10.85C374.106 11.36 374.296 11.785 374.676 12.125C375.066 12.455 375.601 12.62 376.281 12.62ZM382.561 14.105C382.221 14.105 381.931 13.99 381.691 13.76C381.451 13.52 381.331 13.22 381.331 12.86C381.331 12.49 381.446 12.19 381.676 11.96C381.916 11.73 382.211 11.615 382.561 11.615C382.911 11.615 383.201 11.73 383.431 11.96C383.671 12.19 383.791 12.49 383.791 12.86C383.791 13.22 383.671 13.52 383.431 13.76C383.191 13.99 382.901 14.105 382.561 14.105ZM394.34 11.615H392.48V14H390.59V11.615H384.83V10.265L390.005 3.5H392.09L387.215 9.965H390.65V7.85H392.48V9.965H394.34V11.615ZM399.931 7.52C400.621 7.52 401.241 7.655 401.791 7.925C402.341 8.185 402.771 8.56 403.081 9.05C403.391 9.54 403.546 10.105 403.546 10.745C403.546 11.425 403.376 12.025 403.036 12.545C402.696 13.055 402.236 13.45 401.656 13.73C401.076 14.01 400.426 14.15 399.706 14.15C398.266 14.15 397.146 13.7 396.346 12.8C395.556 11.9 395.161 10.61 395.161 8.93C395.161 7.75 395.376 6.745 395.806 5.915C396.236 5.075 396.836 4.44 397.606 4.01C398.386 3.57 399.286 3.35 400.306 3.35C400.846 3.35 401.351 3.41 401.821 3.53C402.301 3.64 402.716 3.805 403.066 4.025L402.346 5.495C401.826 5.155 401.161 4.985 400.351 4.985C399.341 4.985 398.551 5.295 397.981 5.915C397.411 6.535 397.126 7.43 397.126 8.6V8.615C397.436 8.255 397.831 7.985 398.311 7.805C398.791 7.615 399.331 7.52 399.931 7.52ZM399.601 12.62C400.211 12.62 400.706 12.46 401.086 12.14C401.466 11.81 401.656 11.375 401.656 10.835C401.656 10.285 401.466 9.85 401.086 9.53C400.706 9.21 400.196 9.05 399.556 9.05C398.926 9.05 398.411 9.22 398.011 9.56C397.621 9.9 397.426 10.33 397.426 10.85C397.426 11.36 397.616 11.785 397.996 12.125C398.386 12.455 398.921 12.62 399.601 12.62ZM413.925 11.615H412.065V14H410.175V11.615H404.415V10.265L409.59 3.5H411.675L406.8 9.965H410.235V7.85H412.065V9.965H413.925V11.615Z" fill="white"/>
<path opacity="0.3" d="M176.02 306.615H174.16V309H172.27V306.615H166.51V305.265L171.685 298.5H173.77L168.895 304.965H172.33V302.85H174.16V304.965H176.02V306.615ZM180.082 302.565C181.562 302.565 182.657 302.855 183.367 303.435C184.077 304.005 184.432 304.785 184.432 305.775C184.432 306.405 184.277 306.975 183.967 307.485C183.657 307.995 183.192 308.4 182.572 308.7C181.952 309 181.187 309.15 180.277 309.15C179.527 309.15 178.802 309.045 178.102 308.835C177.402 308.615 176.812 308.315 176.332 307.935L177.157 306.42C177.547 306.74 178.012 306.995 178.552 307.185C179.102 307.365 179.667 307.455 180.247 307.455C180.937 307.455 181.477 307.315 181.867 307.035C182.267 306.745 182.467 306.35 182.467 305.85C182.467 305.31 182.252 304.905 181.822 304.635C181.402 304.355 180.677 304.215 179.647 304.215H177.112L177.652 298.5H183.817V300.135H179.302L179.077 302.565H180.082ZM186.726 309.105C186.386 309.105 186.096 308.99 185.856 308.76C185.616 308.52 185.496 308.22 185.496 307.86C185.496 307.49 185.611 307.19 185.841 306.96C186.081 306.73 186.376 306.615 186.726 306.615C187.076 306.615 187.366 306.73 187.596 306.96C187.836 307.19 187.956 307.49 187.956 307.86C187.956 308.22 187.836 308.52 187.596 308.76C187.356 308.99 187.066 309.105 186.726 309.105ZM193.813 302.52C194.503 302.52 195.123 302.655 195.673 302.925C196.223 303.185 196.653 303.56 196.963 304.05C197.273 304.54 197.428 305.105 197.428 305.745C197.428 306.425 197.258 307.025 196.918 307.545C196.578 308.055 196.118 308.45 195.538 308.73C194.958 309.01 194.308 309.15 193.588 309.15C192.148 309.15 191.028 308.7 190.228 307.8C189.438 306.9 189.043 305.61 189.043 303.93C189.043 302.75 189.258 301.745 189.688 300.915C190.118 300.075 190.718 299.44 191.488 299.01C192.268 298.57 193.168 298.35 194.188 298.35C194.728 298.35 195.233 298.41 195.703 298.53C196.183 298.64 196.598 298.805 196.948 299.025L196.228 300.495C195.708 300.155 195.043 299.985 194.233 299.985C193.223 299.985 192.433 300.295 191.863 300.915C191.293 301.535 191.008 302.43 191.008 303.6V303.615C191.318 303.255 191.713 302.985 192.193 302.805C192.673 302.615 193.213 302.52 193.813 302.52ZM193.483 307.62C194.093 307.62 194.588 307.46 194.968 307.14C195.348 306.81 195.538 306.375 195.538 305.835C195.538 305.285 195.348 304.85 194.968 304.53C194.588 304.21 194.078 304.05 193.438 304.05C192.808 304.05 192.293 304.22 191.893 304.56C191.503 304.9 191.308 305.33 191.308 305.85C191.308 306.36 191.498 306.785 191.878 307.125C192.268 307.455 192.803 307.62 193.483 307.62ZM206.294 298.5V299.805L202.214 309H200.129L204.074 300.15H199.949V301.935H198.134V298.5H206.294ZM211.977 302.52C212.667 302.52 213.287 302.655 213.837 302.925C214.387 303.185 214.817 303.56 215.127 304.05C215.437 304.54 215.592 305.105 215.592 305.745C215.592 306.425 215.422 307.025 215.082 307.545C214.742 308.055 214.282 308.45 213.702 308.73C213.122 309.01 212.472 309.15 211.752 309.15C210.312 309.15 209.192 308.7 208.392 307.8C207.602 306.9 207.207 305.61 207.207 303.93C207.207 302.75 207.422 301.745 207.852 300.915C208.282 300.075 208.882 299.44 209.652 299.01C210.432 298.57 211.332 298.35 212.352 298.35C212.892 298.35 213.397 298.41 213.867 298.53C214.347 298.64 214.762 298.805 215.112 299.025L214.392 300.495C213.872 300.155 213.207 299.985 212.397 299.985C211.387 299.985 210.597 300.295 210.027 300.915C209.457 301.535 209.172 302.43 209.172 303.6V303.615C209.482 303.255 209.877 302.985 210.357 302.805C210.837 302.615 211.377 302.52 211.977 302.52ZM211.647 307.62C212.257 307.62 212.752 307.46 213.132 307.14C213.512 306.81 213.702 306.375 213.702 305.835C213.702 305.285 213.512 304.85 213.132 304.53C212.752 304.21 212.242 304.05 211.602 304.05C210.972 304.05 210.457 304.22 210.057 304.56C209.667 304.9 209.472 305.33 209.472 305.85C209.472 306.36 209.662 306.785 210.042 307.125C210.432 307.455 210.967 307.62 211.647 307.62Z" fill="white"/>
<path opacity="0.3" d="M10.02 25.615H8.16V28H6.27V25.615H0.51V24.265L5.685 17.5H7.77L2.895 23.965H6.33V21.85H8.16V23.965H10.02V25.615ZM14.0817 21.565C15.5617 21.565 16.6567 21.855 17.3667 22.435C18.0767 23.005 18.4317 23.785 18.4317 24.775C18.4317 25.405 18.2767 25.975 17.9667 26.485C17.6567 26.995 17.1917 27.4 16.5717 27.7C15.9517 28 15.1867 28.15 14.2767 28.15C13.5267 28.15 12.8017 28.045 12.1017 27.835C11.4017 27.615 10.8117 27.315 10.3317 26.935L11.1567 25.42C11.5467 25.74 12.0117 25.995 12.5517 26.185C13.1017 26.365 13.6667 26.455 14.2467 26.455C14.9367 26.455 15.4767 26.315 15.8667 26.035C16.2667 25.745 16.4667 25.35 16.4667 24.85C16.4667 24.31 16.2517 23.905 15.8217 23.635C15.4017 23.355 14.6767 23.215 13.6467 23.215H11.1117L11.6517 17.5H17.8167V19.135H13.3017L13.0767 21.565H14.0817ZM20.7265 28.105C20.3865 28.105 20.0965 27.99 19.8565 27.76C19.6165 27.52 19.4965 27.22 19.4965 26.86C19.4965 26.49 19.6115 26.19 19.8415 25.96C20.0815 25.73 20.3765 25.615 20.7265 25.615C21.0765 25.615 21.3665 25.73 21.5965 25.96C21.8365 26.19 21.9565 26.49 21.9565 26.86C21.9565 27.22 21.8365 27.52 21.5965 27.76C21.3565 27.99 21.0665 28.105 20.7265 28.105ZM27.8128 21.52C28.5028 21.52 29.1228 21.655 29.6728 21.925C30.2228 22.185 30.6528 22.56 30.9628 23.05C31.2728 23.54 31.4278 24.105 31.4278 24.745C31.4278 25.425 31.2578 26.025 30.9178 26.545C30.5778 27.055 30.1178 27.45 29.5378 27.73C28.9578 28.01 28.3078 28.15 27.5878 28.15C26.1478 28.15 25.0278 27.7 24.2278 26.8C23.4378 25.9 23.0428 24.61 23.0428 22.93C23.0428 21.75 23.2578 20.745 23.6878 19.915C24.1178 19.075 24.7178 18.44 25.4878 18.01C26.2678 17.57 27.1678 17.35 28.1878 17.35C28.7278 17.35 29.2328 17.41 29.7028 17.53C30.1828 17.64 30.5978 17.805 30.9478 18.025L30.2278 19.495C29.7078 19.155 29.0428 18.985 28.2328 18.985C27.2228 18.985 26.4328 19.295 25.8628 19.915C25.2928 20.535 25.0078 21.43 25.0078 22.6V22.615C25.3178 22.255 25.7128 21.985 26.1928 21.805C26.6728 21.615 27.2128 21.52 27.8128 21.52ZM27.4828 26.62C28.0928 26.62 28.5878 26.46 28.9678 26.14C29.3478 25.81 29.5378 25.375 29.5378 24.835C29.5378 24.285 29.3478 23.85 28.9678 23.53C28.5878 23.21 28.0778 23.05 27.4378 23.05C26.8078 23.05 26.2928 23.22 25.8928 23.56C25.5028 23.9 25.3078 24.33 25.3078 24.85C25.3078 25.36 25.4978 25.785 25.8778 26.125C26.2678 26.455 26.8028 26.62 27.4828 26.62ZM40.2939 17.5V18.805L36.2139 28H34.1289L38.0739 19.15H33.9489V20.935H32.1339V17.5H40.2939ZM45.9769 21.52C46.6669 21.52 47.2869 21.655 47.8369 21.925C48.3869 22.185 48.8169 22.56 49.1269 23.05C49.4369 23.54 49.5919 24.105 49.5919 24.745C49.5919 25.425 49.4219 26.025 49.0819 26.545C48.7419 27.055 48.2819 27.45 47.7019 27.73C47.1219 28.01 46.4719 28.15 45.7519 28.15C44.3119 28.15 43.1919 27.7 42.3919 26.8C41.6019 25.9 41.2069 24.61 41.2069 22.93C41.2069 21.75 41.4219 20.745 41.8519 19.915C42.2819 19.075 42.8819 18.44 43.6519 18.01C44.4319 17.57 45.3319 17.35 46.3519 17.35C46.8919 17.35 47.3969 17.41 47.8669 17.53C48.3469 17.64 48.7619 17.805 49.1119 18.025L48.3919 19.495C47.8719 19.155 47.2069 18.985 46.3969 18.985C45.3869 18.985 44.5969 19.295 44.0269 19.915C43.4569 20.535 43.1719 21.43 43.1719 22.6V22.615C43.4819 22.255 43.8769 21.985 44.3569 21.805C44.8369 21.615 45.3769 21.52 45.9769 21.52ZM45.6469 26.62C46.2569 26.62 46.7519 26.46 47.1319 26.14C47.5119 25.81 47.7019 25.375 47.7019 24.835C47.7019 24.285 47.5119 23.85 47.1319 23.53C46.7519 23.21 46.2419 23.05 45.6019 23.05C44.9719 23.05 44.4569 23.22 44.0569 23.56C43.6669 23.9 43.4719 24.33 43.4719 24.85C43.4719 25.36 43.6619 25.785 44.0419 26.125C44.4319 26.455 44.9669 26.62 45.6469 26.62Z" fill="white"/>
<path opacity="0.3" d="M481.13 156.835C482.1 156.955 482.84 157.285 483.35 157.825C483.86 158.365 484.115 159.04 484.115 159.85C484.115 160.46 483.96 161.015 483.65 161.515C483.34 162.015 482.87 162.415 482.24 162.715C481.62 163.005 480.86 163.15 479.96 163.15C479.21 163.15 478.485 163.045 477.785 162.835C477.095 162.615 476.505 162.315 476.015 161.935L476.855 160.42C477.235 160.74 477.695 160.995 478.235 161.185C478.785 161.365 479.35 161.455 479.93 161.455C480.62 161.455 481.16 161.315 481.55 161.035C481.95 160.745 482.15 160.355 482.15 159.865C482.15 159.375 481.96 158.995 481.58 158.725C481.21 158.445 480.64 158.305 479.87 158.305H478.91V156.97L481.295 154.135H476.525V152.5H483.68V153.805L481.13 156.835ZM489.77 163.15C488.93 163.15 488.18 162.94 487.52 162.52C486.86 162.09 486.34 161.47 485.96 160.66C485.58 159.84 485.39 158.87 485.39 157.75C485.39 156.63 485.58 155.665 485.96 154.855C486.34 154.035 486.86 153.415 487.52 152.995C488.18 152.565 488.93 152.35 489.77 152.35C490.61 152.35 491.36 152.565 492.02 152.995C492.69 153.415 493.215 154.035 493.595 154.855C493.975 155.665 494.165 156.63 494.165 157.75C494.165 158.87 493.975 159.84 493.595 160.66C493.215 161.47 492.69 162.09 492.02 162.52C491.36 162.94 490.61 163.15 489.77 163.15ZM489.77 161.455C490.52 161.455 491.11 161.145 491.54 160.525C491.98 159.905 492.2 158.98 492.2 157.75C492.2 156.52 491.98 155.595 491.54 154.975C491.11 154.355 490.52 154.045 489.77 154.045C489.03 154.045 488.44 154.355 488 154.975C487.57 155.595 487.355 156.52 487.355 157.75C487.355 158.98 487.57 159.905 488 160.525C488.44 161.145 489.03 161.455 489.77 161.455ZM496.477 163.105C496.137 163.105 495.847 162.99 495.607 162.76C495.367 162.52 495.247 162.22 495.247 161.86C495.247 161.49 495.362 161.19 495.592 160.96C495.832 160.73 496.127 160.615 496.477 160.615C496.827 160.615 497.117 160.73 497.347 160.96C497.587 161.19 497.707 161.49 497.707 161.86C497.707 162.22 497.587 162.52 497.347 162.76C497.107 162.99 496.817 163.105 496.477 163.105ZM506.721 161.35V163H498.981V161.695L503.151 157.735C503.621 157.285 503.936 156.895 504.096 156.565C504.266 156.225 504.351 155.89 504.351 155.56C504.351 155.07 504.186 154.695 503.856 154.435C503.526 154.175 503.041 154.045 502.401 154.045C501.331 154.045 500.511 154.41 499.941 155.14L498.576 154.09C498.986 153.54 499.536 153.115 500.226 152.815C500.926 152.505 501.706 152.35 502.566 152.35C503.706 152.35 504.616 152.62 505.296 153.16C505.976 153.7 506.316 154.435 506.316 155.365C506.316 155.935 506.196 156.47 505.956 156.97C505.716 157.47 505.256 158.04 504.576 158.68L501.771 161.35H506.721ZM512.317 156.835C513.287 156.955 514.027 157.285 514.537 157.825C515.047 158.365 515.302 159.04 515.302 159.85C515.302 160.46 515.147 161.015 514.837 161.515C514.527 162.015 514.057 162.415 513.427 162.715C512.807 163.005 512.047 163.15 511.147 163.15C510.397 163.15 509.672 163.045 508.972 162.835C508.282 162.615 507.692 162.315 507.202 161.935L508.042 160.42C508.422 160.74 508.882 160.995 509.422 161.185C509.972 161.365 510.537 161.455 511.117 161.455C511.807 161.455 512.347 161.315 512.737 161.035C513.137 160.745 513.337 160.355 513.337 159.865C513.337 159.375 513.147 158.995 512.767 158.725C512.397 158.445 511.827 158.305 511.057 158.305H510.097V156.97L512.482 154.135H507.712V152.5H514.867V153.805L512.317 156.835ZM519.716 156.565C521.196 156.565 522.291 156.855 523.001 157.435C523.711 158.005 524.066 158.785 524.066 159.775C524.066 160.405 523.911 160.975 523.601 161.485C523.291 161.995 522.826 162.4 522.206 162.7C521.586 163 520.821 163.15 519.911 163.15C519.161 163.15 518.436 163.045 517.736 162.835C517.036 162.615 516.446 162.315 515.966 161.935L516.791 160.42C517.181 160.74 517.646 160.995 518.186 161.185C518.736 161.365 519.301 161.455 519.881 161.455C520.571 161.455 521.111 161.315 521.501 161.035C521.901 160.745 522.101 160.35 522.101 159.85C522.101 159.31 521.886 158.905 521.456 158.635C521.036 158.355 520.311 158.215 519.281 158.215H516.746L517.286 152.5H523.451V154.135H518.936L518.711 156.565H519.716Z" fill="white"/>
<path opacity="0.3" d="M9.265 261.35V263H1.525V261.695L5.695 257.735C6.165 257.285 6.48 256.895 6.64 256.565C6.81 256.225 6.895 255.89 6.895 255.56C6.895 255.07 6.73 254.695 6.4 254.435C6.07 254.175 5.585 254.045 4.945 254.045C3.875 254.045 3.055 254.41 2.485 255.14L1.12 254.09C1.53 253.54 2.08 253.115 2.77 252.815C3.47 252.505 4.25 252.35 5.11 252.35C6.25 252.35 7.16 252.62 7.84 253.16C8.52 253.7 8.86 254.435 8.86 255.365C8.86 255.935 8.74 256.47 8.5 256.97C8.26 257.47 7.8 258.04 7.12 258.68L4.315 261.35H9.265ZM14.8605 256.835C15.8305 256.955 16.5705 257.285 17.0805 257.825C17.5905 258.365 17.8455 259.04 17.8455 259.85C17.8455 260.46 17.6905 261.015 17.3805 261.515C17.0705 262.015 16.6005 262.415 15.9705 262.715C15.3505 263.005 14.5905 263.15 13.6905 263.15C12.9405 263.15 12.2155 263.045 11.5155 262.835C10.8255 262.615 10.2355 262.315 9.74547 261.935L10.5855 260.42C10.9655 260.74 11.4255 260.995 11.9655 261.185C12.5155 261.365 13.0805 261.455 13.6605 261.455C14.3505 261.455 14.8905 261.315 15.2805 261.035C15.6805 260.745 15.8805 260.355 15.8805 259.865C15.8805 259.375 15.6905 258.995 15.3105 258.725C14.9405 258.445 14.3705 258.305 13.6005 258.305H12.6405V256.97L15.0255 254.135H10.2555V252.5H17.4105V253.805L14.8605 256.835ZM20.2909 263.105C19.9509 263.105 19.6609 262.99 19.4209 262.76C19.1809 262.52 19.0609 262.22 19.0609 261.86C19.0609 261.49 19.1759 261.19 19.4059 260.96C19.6459 260.73 19.9409 260.615 20.2909 260.615C20.6409 260.615 20.9309 260.73 21.1609 260.96C21.4009 261.19 21.5209 261.49 21.5209 261.86C21.5209 262.22 21.4009 262.52 21.1609 262.76C20.9209 262.99 20.6309 263.105 20.2909 263.105ZM30.4833 252.5V253.805L26.4033 263H24.3183L28.2633 254.15H24.1383V255.935H22.3233V252.5H30.4833ZM34.7106 256.565C36.1906 256.565 37.2856 256.855 37.9956 257.435C38.7056 258.005 39.0606 258.785 39.0606 259.775C39.0606 260.405 38.9056 260.975 38.5956 261.485C38.2856 261.995 37.8206 262.4 37.2006 262.7C36.5806 263 35.8156 263.15 34.9056 263.15C34.1556 263.15 33.4306 263.045 32.7306 262.835C32.0306 262.615 31.4406 262.315 30.9606 261.935L31.7856 260.42C32.1756 260.74 32.6406 260.995 33.1806 261.185C33.7306 261.365 34.2956 261.455 34.8756 261.455C35.5656 261.455 36.1056 261.315 36.4956 261.035C36.8956 260.745 37.0956 260.35 37.0956 259.85C37.0956 259.31 36.8806 258.905 36.4506 258.635C36.0306 258.355 35.3056 258.215 34.2756 258.215H31.7406L32.2806 252.5H38.4456V254.135H33.9306L33.7056 256.565H34.7106ZM49.5454 260.615H47.6854V263H45.7954V260.615H40.0354V259.265L45.2104 252.5H47.2954L42.4204 258.965H45.8554V256.85H47.6854V258.965H49.5454V260.615Z" fill="white"/>
</svg>
