<svg width="480" height="190" viewBox="0 0 480 190" fill="none" xmlns="http://www.w3.org/2000/svg">
<g filter="url(#filter0_d)">
<path d="M59 59H421V97H59V59Z" fill="white"/>
</g>
<path d="M93.6118 79.3357C93.3561 78.9776 93.0217 78.7096 92.6111 78.532C92.8933 78.3405 93.1213 78.0915 93.2946 77.7858C93.5031 77.4181 93.6059 76.9972 93.6059 76.5261C93.6059 75.752 93.3158 75.1383 92.734 74.6969C92.1549 74.2487 91.3387 74.0316 90.2992 74.0316H86.2224H86.1224V74.1316V83.3413V83.4413H86.2224H90.5478C91.6687 83.4413 92.5386 83.2247 93.1428 82.777L93.1436 82.7764C93.7513 82.3169 94.0533 81.6675 94.0533 80.8415C94.0533 80.2462 93.9083 79.7421 93.6118 79.3357ZM93.6118 79.3357C93.6119 79.3359 93.612 79.336 93.6122 79.3362L93.5308 79.3943M93.6118 79.3357C93.6117 79.3356 93.6116 79.3354 93.6115 79.3353L93.5308 79.3943M93.5308 79.3943C93.8125 79.7802 93.9533 80.2626 93.9533 80.8415C93.9533 81.6397 93.6633 82.2581 93.0833 82.6966L92.5086 78.5976C92.9325 78.7678 93.2732 79.0334 93.5308 79.3943ZM102.6 79.2087L102.599 79.2094C102.29 79.7188 101.843 80.1087 101.264 80.3795M102.6 79.2087L101.221 80.2889M102.6 79.2087C102.908 78.6911 103.061 78.0896 103.061 77.4076C103.061 76.7172 102.909 76.1152 102.599 75.6058C102.29 75.0964 101.843 74.7065 101.264 74.4357C100.692 74.1651 100.023 74.0316 99.2574 74.0316H95.6778H95.5778V74.1316V83.3413V83.4413H95.6778H97.2936H97.3936V83.3413V80.7836M102.6 79.2087L97.2936 80.7836M101.264 80.3795C101.264 80.3795 101.264 80.3795 101.263 80.3795L101.221 80.2889M101.264 80.3795C101.264 80.3794 101.264 80.3794 101.264 80.3793L101.221 80.2889M101.264 80.3795C100.692 80.6501 100.023 80.7836 99.2574 80.7836H97.3936M101.221 80.2889C100.666 80.5521 100.011 80.6836 99.2574 80.6836H97.3936V80.7836M97.3936 80.7836H97.2936M97.2936 80.7836V83.2413V83.3413V80.7836ZM82.5626 78.5312H82.4626V78.6312V81.4428C81.9772 81.7287 81.415 81.873 80.7728 81.873C80.1842 81.873 79.6592 81.7367 79.1953 81.4658C78.7389 81.1945 78.3786 80.8219 78.1136 80.3461C77.8573 79.8711 77.7282 79.3353 77.7282 78.7364C77.7282 78.1195 77.8575 77.5751 78.1136 77.1004C78.3785 76.625 78.7384 76.257 79.1941 75.9946C79.658 75.7322 80.1875 75.5999 80.7852 75.5999C81.6931 75.5999 82.4667 75.9387 83.1113 76.6211L83.1831 76.6971L83.2559 76.622L84.275 75.5694L84.3373 75.5051L84.2803 75.4362C83.8639 74.9324 83.3495 74.5501 82.7385 74.2896C82.1281 74.0293 81.4516 73.9 80.7106 73.9C79.7998 73.9 78.9746 74.11 78.2375 74.5315C77.509 74.944 76.9368 75.5184 76.5219 76.2533C76.1067 76.9889 75.9 77.8174 75.9 78.7364C75.9 79.6554 76.1067 80.484 76.5219 81.2196C76.9367 81.9543 77.5088 82.533 78.2369 82.9542L78.2377 82.9547C78.9665 83.3674 79.7834 83.5729 80.6858 83.5729C81.3264 83.5729 81.9504 83.4702 82.5573 83.265C83.1649 83.0596 83.6981 82.7642 84.1558 82.3784L84.1913 82.3484V82.3019V78.6312V78.5312H84.0913H82.5626ZM91.3586 75.883L91.3586 75.8831L91.3612 75.8849C91.6367 76.0741 91.7777 76.3566 91.7777 76.7498C91.7777 77.1331 91.6373 77.417 91.3599 77.6155C91.0854 77.8091 90.6783 77.9128 90.1252 77.9128H87.9382V75.5736H90.1252C90.6778 75.5736 91.0843 75.6814 91.3586 75.883ZM92.2251 80.6705C92.2251 81.0868 92.0801 81.3859 91.7982 81.5855C91.5099 81.7896 91.0652 81.8993 90.4483 81.8993H87.9382V79.4416H90.4483C91.0652 79.4416 91.5099 79.5514 91.7982 79.7555C92.0801 79.9551 92.2251 80.2542 92.2251 80.6705ZM100.721 78.6872C100.381 78.9813 99.8739 79.1364 99.1828 79.1364H97.3936V75.6788H99.1828C99.8739 75.6788 100.381 75.8339 100.721 76.128C101.059 76.4207 101.233 76.842 101.233 77.4076C101.233 77.9732 101.059 78.3945 100.721 78.6872Z" fill="#11111F" stroke="black" stroke-width="0.2"/>
<path d="M188.964 81.8941V81.7941H188.864H184.935L187.126 79.6236C187.126 79.6235 187.126 79.6234 187.126 79.6234C187.703 79.0585 188.1 78.5486 188.31 78.0942C188.519 77.642 188.623 77.1584 188.623 76.6445C188.623 75.8023 188.325 75.128 187.727 74.6334C187.131 74.1411 186.339 73.9 185.362 73.9C184.625 73.9 183.953 74.0384 183.349 74.3169C182.753 74.5867 182.275 74.9703 181.919 75.468L181.864 75.545L181.938 75.6042L183.088 76.5252L183.168 76.5897L183.23 76.5072C183.689 75.8955 184.349 75.5867 185.223 75.5867C185.751 75.5867 186.133 75.6985 186.386 75.9061C186.636 76.1114 186.767 76.4092 186.767 76.8155C186.767 77.088 186.699 77.3671 186.562 77.6537L186.561 77.6548C186.434 77.9285 186.178 78.2607 185.785 78.6523C185.785 78.6523 185.785 78.6524 185.785 78.6524L182.271 82.1255L182.241 82.1549V82.1967V83.3413V83.4413H182.341H188.864H188.964V83.3413V81.8941ZM194.491 80.5784C194.491 80.9869 194.336 81.3032 194.025 81.5378C193.719 81.766 193.288 81.8862 192.72 81.8862C192.242 81.8862 191.777 81.8091 191.325 81.655C190.88 81.492 190.499 81.2742 190.181 81.0023L190.085 80.9208L190.027 81.032L189.332 82.3608L189.294 82.4327L189.357 82.4843C189.773 82.8269 190.281 83.0955 190.881 83.2916L190.882 83.292C191.482 83.4793 192.103 83.5729 192.745 83.5729C193.523 83.5729 194.184 83.4395 194.724 83.1675C195.261 82.8968 195.669 82.529 195.941 82.0629C196.212 81.5992 196.346 81.0817 196.346 80.5126C196.346 79.6186 196.037 78.9049 195.413 78.3837C194.789 77.853 193.838 77.597 192.581 77.597H191.843L192.015 75.6657H195.728H195.828V75.5657V74.1316V74.0316H195.728H190.533H190.442L190.433 74.1225L189.978 79.1353L189.968 79.2443H190.078H192.214C193.079 79.2443 193.663 79.3678 193.99 79.5948L193.99 79.5949L193.992 79.5964C194.323 79.8128 194.491 80.1347 194.491 80.5784ZM197.583 81.3295L197.584 81.3299C197.91 82.0545 198.359 82.6139 198.933 83.0031L198.934 83.0037C199.508 83.3836 200.159 83.5729 200.885 83.5729C201.612 83.5729 202.263 83.3836 202.837 83.0037L202.837 83.0034C203.419 82.6144 203.873 82.0549 204.2 81.3299L204.2 81.3295C204.527 80.5947 204.689 79.7295 204.689 78.7364C204.689 77.7435 204.527 76.8825 204.2 76.1563C203.873 75.4229 203.42 74.863 202.837 74.4825C202.263 74.0938 201.612 73.9 200.885 73.9C200.159 73.9 199.507 74.0939 198.934 74.4827C198.359 74.8633 197.91 75.4231 197.583 76.1563C197.256 76.8825 197.094 77.7435 197.094 78.7364C197.094 79.7295 197.256 80.5947 197.583 81.3295ZM202.294 81.1141L202.294 81.115C201.949 81.6321 201.483 81.8862 200.885 81.8862C200.297 81.8862 199.83 81.6325 199.477 81.1145C199.131 80.5947 198.95 79.8068 198.95 78.7364C198.95 77.666 199.131 76.8782 199.477 76.3584C199.83 75.8403 200.297 75.5867 200.885 75.5867C201.483 75.5867 201.949 75.8408 202.294 76.3579L202.294 76.3588C202.649 76.8784 202.833 77.666 202.833 78.7364C202.833 79.8068 202.649 80.5944 202.294 81.1141Z" fill="#11111F" stroke="black" stroke-width="0.2"/>
<path d="M328.382 80.7764L328.382 80.7769C328.704 81.5013 329.146 82.0608 329.712 82.4501L329.713 82.4507C330.278 82.8308 330.921 83.0203 331.637 83.0203C332.353 83.0203 332.996 82.8308 333.561 82.4507L333.562 82.4505C334.136 82.0613 334.583 81.5017 334.905 80.7769L334.905 80.7764C335.227 80.0418 335.387 79.1767 335.387 78.1838C335.387 77.1912 335.227 76.3303 334.905 75.6042C334.583 74.871 334.136 74.311 333.562 73.9303C332.996 73.5414 332.354 73.3474 331.637 73.3474C330.921 73.3474 330.278 73.5415 329.713 73.9305C329.146 74.3113 328.703 74.8712 328.382 75.6042C328.059 76.3303 327.9 77.1912 327.9 78.1838C327.9 79.1767 328.059 80.0418 328.382 80.7764ZM333.023 75.8047L333.023 75.8047L333.024 75.8056C333.373 76.3254 333.555 77.1132 333.555 78.1838C333.555 79.2545 333.373 80.0423 333.024 80.5621L333.023 80.563C332.684 81.0801 332.225 81.3336 331.637 81.3336C331.059 81.3336 330.599 81.0806 330.251 80.5625C329.909 80.0425 329.732 79.2544 329.732 78.1838C329.732 77.1133 329.909 76.3252 330.251 75.8052C330.599 75.2871 331.059 75.0341 331.637 75.0341C332.225 75.0341 332.684 75.2876 333.023 75.8047Z" fill="#11111F" stroke="black" stroke-width="0.2"/>
<g opacity="0.9">
<g opacity="0.7">
<path d="M66 30.6047H413.581V61.2094H66V30.6047Z" fill="white"/>
<g opacity="0.5">
<path d="M83.5126 47.4602V48.8218H76.9307V40.0776H83.3371V41.4392H78.5605V43.7127H82.798V45.0493H78.5605V47.4602H83.5126Z" fill="#11111F"/>
<path d="M90.7604 48.8218L88.3784 45.499L86.0214 48.8218H84.1659L87.4256 44.3623L84.3414 40.0776H86.1844L88.4285 43.1881L90.6476 40.0776H92.4153L89.3437 44.2998L92.641 48.8218H90.7604Z" fill="#11111F"/>
<path d="M97.2411 40.0776C98.0017 40.0776 98.662 40.2026 99.222 40.4524C99.7903 40.7022 100.225 41.0603 100.526 41.5267C100.827 41.993 100.977 42.5468 100.977 43.1881C100.977 43.821 100.827 44.3748 100.526 44.8495C100.225 45.3158 99.7903 45.6739 99.222 45.9238C98.662 46.1736 98.0017 46.2985 97.2411 46.2985H95.2603V48.8218H93.6304V40.0776H97.2411ZM97.1659 44.9244C97.8763 44.9244 98.4154 44.7745 98.7832 44.4747C99.1509 44.1749 99.3348 43.746 99.3348 43.1881C99.3348 42.6301 99.1509 42.2012 98.7832 41.9014C98.4154 41.6016 97.8763 41.4517 97.1659 41.4517H95.2603V44.9244H97.1659Z" fill="#11111F"/>
</g>
<path opacity="0.5" d="M186.227 48.8218C185.529 48.8218 184.906 48.6518 184.358 48.3117C183.81 47.9636 183.378 47.4616 183.063 46.8058C182.747 46.1419 182.589 45.3565 182.589 44.4497C182.589 43.5429 182.747 42.7616 183.063 42.1058C183.378 41.4419 183.81 40.9399 184.358 40.5999C184.906 40.2517 185.529 40.0776 186.227 40.0776C186.924 40.0776 187.547 40.2517 188.095 40.5999C188.651 40.9399 189.087 41.4419 189.403 42.1058C189.718 42.7616 189.876 43.5429 189.876 44.4497C189.876 45.3565 189.718 46.1419 189.403 46.8058C189.087 47.4616 188.651 47.9636 188.095 48.3117C187.547 48.6518 186.924 48.8218 186.227 48.8218ZM186.227 47.4495C186.849 47.4495 187.339 47.1985 187.696 46.6965C188.062 46.1945 188.244 45.4456 188.244 44.4497C188.244 43.4539 188.062 42.7049 187.696 42.203C187.339 41.701 186.849 41.45 186.227 41.45C185.612 41.45 185.122 41.701 184.757 42.203C184.4 42.7049 184.221 43.4539 184.221 44.4497C184.221 45.4456 184.4 46.1945 184.757 46.6965C185.122 47.1985 185.612 47.4495 186.227 47.4495Z" fill="#11111F"/>
<path opacity="0.5" d="M331.234 48.8218C330.537 48.8218 329.914 48.6518 329.366 48.3117C328.818 47.9636 328.386 47.4616 328.07 46.8058C327.755 46.1419 327.597 45.3565 327.597 44.4497C327.597 43.5429 327.755 42.7616 328.07 42.1058C328.386 41.4419 328.818 40.9399 329.366 40.5999C329.914 40.2517 330.537 40.0776 331.234 40.0776C331.932 40.0776 332.555 40.2517 333.103 40.5999C333.659 40.9399 334.095 41.4419 334.411 42.1058C334.726 42.7616 334.884 43.5429 334.884 44.4497C334.884 45.3565 334.726 46.1419 334.411 46.8058C334.095 47.4616 333.659 47.9636 333.103 48.3117C332.555 48.6518 331.932 48.8218 331.234 48.8218ZM331.234 47.4495C331.857 47.4495 332.347 47.1985 332.704 46.6965C333.07 46.1945 333.252 45.4456 333.252 44.4497C333.252 43.4539 333.07 42.7049 332.704 42.203C332.347 41.701 331.857 41.45 331.234 41.45C330.62 41.45 330.13 41.701 329.765 42.203C329.407 42.7049 329.229 43.4539 329.229 44.4497C329.229 45.4456 329.407 46.1945 329.765 46.6965C330.13 47.1985 330.62 47.4495 331.234 47.4495Z" fill="#11111F"/>
</g>
<g opacity="0.7">
<path d="M66 95H413.581V125.605H66V95Z" fill="white"/>
<g opacity="0.5">
<path d="M80.7439 113.217C79.5432 113.217 78.6075 112.889 77.9368 112.233C77.266 111.569 76.9307 110.622 76.9307 109.392V104.594H78.5454V109.331C78.5454 110.999 79.2824 111.833 80.7563 111.833C82.222 111.833 82.9548 110.999 82.9548 109.331V104.594H84.5447V109.392C84.5447 110.622 84.2093 111.569 83.5386 112.233C82.8761 112.889 81.9446 113.217 80.7439 113.217Z" fill="#11111F"/>
<path d="M89.5014 113.217C88.8307 113.217 88.1806 113.124 87.5513 112.938C86.9303 112.752 86.4376 112.505 86.0732 112.197L86.6322 110.97C86.9882 111.246 87.423 111.472 87.9364 111.65C88.458 111.82 88.9797 111.905 89.5014 111.905C90.1473 111.905 90.6276 111.804 90.9422 111.602C91.2652 111.399 91.4266 111.132 91.4266 110.8C91.4266 110.557 91.3355 110.359 91.1534 110.205C90.9795 110.043 90.7559 109.918 90.4826 109.829C90.2094 109.74 89.8368 109.638 89.3648 109.525C88.7023 109.371 88.1641 109.217 87.75 109.064C87.3443 108.91 86.9924 108.671 86.6943 108.347C86.4044 108.015 86.2595 107.57 86.2595 107.011C86.2595 106.542 86.3879 106.116 86.6446 105.736C86.9096 105.347 87.3029 105.04 87.8246 104.813C88.3545 104.586 89.0004 104.473 89.7622 104.473C90.2922 104.473 90.8139 104.538 91.3273 104.667C91.8407 104.797 92.2837 104.983 92.6563 105.226L92.147 106.452C91.7661 106.234 91.3687 106.068 90.9546 105.955C90.5406 105.841 90.139 105.785 89.7498 105.785C89.1122 105.785 88.6361 105.89 88.3214 106.1C88.015 106.311 87.8618 106.59 87.8618 106.938C87.8618 107.181 87.9488 107.38 88.1227 107.533C88.3048 107.687 88.5326 107.809 88.8058 107.898C89.0791 107.987 89.4517 108.088 89.9237 108.201C90.5696 108.347 91.0996 108.501 91.5136 108.663C91.9276 108.817 92.2795 109.056 92.5694 109.379C92.8675 109.703 93.0165 110.14 93.0165 110.691C93.0165 111.161 92.884 111.586 92.619 111.966C92.3623 112.347 91.969 112.65 91.4391 112.877C90.9091 113.104 90.2632 113.217 89.5014 113.217Z" fill="#11111F"/>
<path d="M94.6176 104.594H98.4184C99.3459 104.594 100.17 104.772 100.89 105.129C101.611 105.477 102.17 105.975 102.567 106.623C102.964 107.262 103.163 108.003 103.163 108.845C103.163 109.687 102.964 110.432 102.567 111.08C102.17 111.719 101.611 112.217 100.89 112.573C100.17 112.922 99.3459 113.096 98.4184 113.096H94.6176V104.594ZM98.3439 111.76C98.9815 111.76 99.5405 111.642 100.021 111.408C100.509 111.165 100.882 110.825 101.139 110.387C101.404 109.942 101.536 109.428 101.536 108.845C101.536 108.262 101.404 107.752 101.139 107.315C100.882 106.869 100.509 106.529 100.021 106.295C99.5405 106.052 98.9815 105.93 98.3439 105.93H96.2324V111.76H98.3439Z" fill="#11111F"/>
</g>
<path opacity="0.5" d="M186.227 113.217C185.529 113.217 184.906 113.047 184.358 112.707C183.81 112.359 183.378 111.857 183.063 111.201C182.747 110.537 182.589 109.752 182.589 108.845C182.589 107.938 182.747 107.157 183.063 106.501C183.378 105.837 183.81 105.335 184.358 104.995C184.906 104.647 185.529 104.473 186.227 104.473C186.924 104.473 187.547 104.647 188.095 104.995C188.651 105.335 189.087 105.837 189.403 106.501C189.718 107.157 189.876 107.938 189.876 108.845C189.876 109.752 189.718 110.537 189.403 111.201C189.087 111.857 188.651 112.359 188.095 112.707C187.547 113.047 186.924 113.217 186.227 113.217ZM186.227 111.845C186.849 111.845 187.339 111.594 187.696 111.092C188.062 110.59 188.244 109.841 188.244 108.845C188.244 107.849 188.062 107.1 187.696 106.598C187.339 106.096 186.849 105.845 186.227 105.845C185.612 105.845 185.122 106.096 184.757 106.598C184.4 107.1 184.221 107.849 184.221 108.845C184.221 109.841 184.4 110.59 184.757 111.092C185.122 111.594 185.612 111.845 186.227 111.845Z" fill="#11111F"/>
<path opacity="0.5" d="M331.234 113.217C330.537 113.217 329.914 113.047 329.366 112.707C328.818 112.359 328.386 111.857 328.07 111.201C327.755 110.537 327.597 109.752 327.597 108.845C327.597 107.938 327.755 107.157 328.07 106.501C328.386 105.837 328.818 105.335 329.366 104.995C329.914 104.647 330.537 104.473 331.234 104.473C331.932 104.473 332.555 104.647 333.103 104.995C333.659 105.335 334.095 105.837 334.411 106.501C334.726 107.157 334.884 107.938 334.884 108.845C334.884 109.752 334.726 110.537 334.411 111.201C334.095 111.857 333.659 112.359 333.103 112.707C332.555 113.047 331.932 113.217 331.234 113.217ZM331.234 111.845C331.857 111.845 332.347 111.594 332.704 111.092C333.07 110.59 333.252 109.841 333.252 108.845C333.252 107.849 333.07 107.1 332.704 106.598C332.347 106.096 331.857 105.845 331.234 105.845C330.62 105.845 330.13 106.096 329.765 106.598C329.407 107.1 329.229 107.849 329.229 108.845C329.229 109.841 329.407 110.59 329.765 111.092C330.13 111.594 330.62 111.845 331.234 111.845Z" fill="#11111F"/>
</g>
<g opacity="0.7">
<path d="M66 127.333H413.581V157.938H66V127.333Z" fill="white"/>
<g opacity="0.5">
<path d="M83.44 144.691V146.146H76.9307V136.806H83.2664V138.26H78.5425V140.689H82.7332V142.116H78.5425V144.691H83.44Z" fill="#11111F"/>
<path d="M88.9688 146.279C87.7703 146.279 86.8362 145.919 86.1667 145.198C85.4972 144.469 85.1624 143.428 85.1624 142.076V136.806H86.7742V142.01C86.7742 143.842 87.5099 144.758 88.9812 144.758C90.4442 144.758 91.1758 143.842 91.1758 142.01V136.806H92.7628V142.076C92.7628 143.428 92.428 144.469 91.7585 145.198C91.0972 145.919 90.1673 146.279 88.9688 146.279Z" fill="#11111F"/>
<path d="M100.699 146.146L98.9257 143.41C98.8513 143.419 98.7397 143.424 98.591 143.424H96.632V146.146H95.0201V136.806H98.591C99.3431 136.806 99.9961 136.94 100.55 137.206C101.112 137.473 101.542 137.856 101.839 138.354C102.137 138.852 102.286 139.443 102.286 140.128C102.286 140.831 102.125 141.436 101.802 141.943C101.488 142.45 101.033 142.828 100.438 143.077L102.435 146.146H100.699ZM100.662 140.128C100.662 139.532 100.48 139.074 100.116 138.754C99.7523 138.434 99.2192 138.274 98.5166 138.274H96.632V141.996H98.5166C99.2192 141.996 99.7523 141.836 100.116 141.516C100.48 141.187 100.662 140.724 100.662 140.128Z" fill="#11111F"/>
</g>
<path opacity="0.5" d="M186.227 146.279C185.529 146.279 184.906 146.095 184.358 145.726C183.81 145.349 183.378 144.805 183.063 144.095C182.747 143.376 182.589 142.525 182.589 141.543C182.589 140.56 182.747 139.714 183.063 139.003C183.378 138.284 183.81 137.74 184.358 137.372C184.906 136.995 185.529 136.806 186.227 136.806C186.924 136.806 187.547 136.995 188.095 137.372C188.651 137.74 189.087 138.284 189.403 139.003C189.718 139.714 189.876 140.56 189.876 141.543C189.876 142.525 189.718 143.376 189.403 144.095C189.087 144.805 188.651 145.349 188.095 145.726C187.547 146.095 186.924 146.279 186.227 146.279ZM186.227 144.792C186.849 144.792 187.339 144.52 187.696 143.977C188.062 143.433 188.244 142.621 188.244 141.543C188.244 140.464 188.062 139.652 187.696 139.109C187.339 138.565 186.849 138.293 186.227 138.293C185.612 138.293 185.122 138.565 184.757 139.109C184.4 139.652 184.221 140.464 184.221 141.543C184.221 142.621 184.4 143.433 184.757 143.977C185.122 144.52 185.612 144.792 186.227 144.792Z" fill="#11111F"/>
<path opacity="0.5" d="M331.234 146.279C330.537 146.279 329.914 146.095 329.366 145.726C328.818 145.349 328.386 144.805 328.07 144.095C327.755 143.376 327.597 142.525 327.597 141.543C327.597 140.56 327.755 139.714 328.07 139.003C328.386 138.284 328.818 137.74 329.366 137.372C329.914 136.995 330.537 136.806 331.234 136.806C331.932 136.806 332.555 136.995 333.103 137.372C333.659 137.74 334.095 138.284 334.411 139.003C334.726 139.714 334.884 140.56 334.884 141.543C334.884 142.525 334.726 143.376 334.411 144.095C334.095 144.805 333.659 145.349 333.103 145.726C332.555 146.095 331.932 146.279 331.234 146.279ZM331.234 144.792C331.857 144.792 332.347 144.52 332.704 143.977C333.07 143.433 333.252 142.621 333.252 141.543C333.252 140.464 333.07 139.652 332.704 139.109C332.347 138.565 331.857 138.293 331.234 138.293C330.62 138.293 330.13 138.565 329.765 139.109C329.407 139.652 329.229 140.464 329.229 141.543C329.229 142.621 329.407 143.433 329.765 143.977C330.13 144.52 330.62 144.792 331.234 144.792Z" fill="#11111F"/>
</g>
<g opacity="0.7">
<path d="M66 159.395H413.581V182.349C413.581 186.574 410.152 190 405.921 190H73.6602C69.4296 190 66 186.574 66 182.349V159.395Z" fill="white"/>
<g opacity="0.5">
<path d="M82.5384 177.489L80.7875 174.964C80.714 174.973 80.6038 174.977 80.4569 174.977H78.5224V177.489H76.9307V168.868H80.4569C81.1997 168.868 81.8445 168.991 82.3914 169.238C82.9465 169.484 83.3709 169.837 83.6648 170.297C83.9586 170.757 84.1056 171.303 84.1056 171.935C84.1056 172.583 83.9464 173.142 83.6281 173.61C83.3179 174.078 82.8689 174.427 82.2812 174.657L84.2525 177.489H82.5384ZM82.5016 171.935C82.5016 171.385 82.322 170.962 81.9629 170.666C81.6037 170.371 81.0773 170.223 80.3834 170.223H78.5224V173.659H80.3834C81.0773 173.659 81.6037 173.511 81.9629 173.216C82.322 172.912 82.5016 172.485 82.5016 171.935Z" fill="#11111F"/>
<path d="M89.5718 177.612C88.3882 177.612 87.4658 177.28 86.8047 176.615C86.1435 175.942 85.8129 174.981 85.8129 173.733V168.868H87.4046V173.671C87.4046 175.363 88.1311 176.208 89.584 176.208C91.0288 176.208 91.7512 175.363 91.7512 173.671V168.868H93.3184V173.733C93.3184 174.981 92.9878 175.942 92.3266 176.615C91.6736 177.28 90.7553 177.612 89.5718 177.612Z" fill="#11111F"/>
<path d="M101.62 173.006C102.094 173.162 102.469 173.425 102.747 173.794C103.024 174.156 103.163 174.607 103.163 175.149C103.163 175.896 102.878 176.475 102.306 176.886C101.735 177.288 100.902 177.489 99.8084 177.489H95.5475V168.868H99.5635C100.576 168.868 101.355 169.069 101.902 169.472C102.449 169.866 102.722 170.412 102.722 171.11C102.722 171.537 102.624 171.914 102.429 172.243C102.233 172.571 101.963 172.826 101.62 173.006ZM97.1392 170.124V172.501H99.3921C99.9472 172.501 100.372 172.403 100.665 172.206C100.967 172 101.118 171.705 101.118 171.319C101.118 170.925 100.967 170.629 100.665 170.432C100.372 170.227 99.9472 170.124 99.3921 170.124H97.1392ZM99.7105 176.233C100.943 176.233 101.559 175.818 101.559 174.989C101.559 174.16 100.943 173.745 99.7105 173.745H97.1392V176.233H99.7105Z" fill="#11111F"/>
</g>
<path opacity="0.5" d="M186.227 177.612C185.529 177.612 184.906 177.442 184.358 177.102C183.81 176.754 183.378 176.252 183.063 175.596C182.747 174.932 182.589 174.147 182.589 173.24C182.589 172.333 182.747 171.552 183.063 170.896C183.378 170.232 183.81 169.73 184.358 169.39C184.906 169.042 185.529 168.868 186.227 168.868C186.924 168.868 187.547 169.042 188.095 169.39C188.651 169.73 189.087 170.232 189.403 170.896C189.718 171.552 189.876 172.333 189.876 173.24C189.876 174.147 189.718 174.932 189.403 175.596C189.087 176.252 188.651 176.754 188.095 177.102C187.547 177.442 186.924 177.612 186.227 177.612ZM186.227 176.24C186.849 176.24 187.339 175.989 187.696 175.487C188.062 174.985 188.244 174.236 188.244 173.24C188.244 172.244 188.062 171.495 187.696 170.993C187.339 170.492 186.849 170.241 186.227 170.241C185.612 170.241 185.122 170.492 184.757 170.993C184.4 171.495 184.221 172.244 184.221 173.24C184.221 174.236 184.4 174.985 184.757 175.487C185.122 175.989 185.612 176.24 186.227 176.24Z" fill="#11111F"/>
<path opacity="0.5" d="M331.234 177.612C330.537 177.612 329.914 177.442 329.366 177.102C328.818 176.754 328.386 176.252 328.07 175.596C327.755 174.932 327.597 174.147 327.597 173.24C327.597 172.333 327.755 171.552 328.07 170.896C328.386 170.232 328.818 169.73 329.366 169.39C329.914 169.042 330.537 168.868 331.234 168.868C331.932 168.868 332.555 169.042 333.103 169.39C333.659 169.73 334.095 170.232 334.411 170.896C334.726 171.552 334.884 172.333 334.884 173.24C334.884 174.147 334.726 174.932 334.411 175.596C334.095 176.252 333.659 176.754 333.103 177.102C332.555 177.442 331.932 177.612 331.234 177.612ZM331.234 176.24C331.857 176.24 332.347 175.989 332.704 175.487C333.07 174.985 333.252 174.236 333.252 173.24C333.252 172.244 333.07 171.495 332.704 170.993C332.347 170.492 331.857 170.241 331.234 170.241C330.62 170.241 330.13 170.492 329.765 170.993C329.407 171.495 329.229 172.244 329.229 173.24C329.229 174.236 329.407 174.985 329.765 175.487C330.13 175.989 330.62 176.24 331.234 176.24Z" fill="#11111F"/>
</g>
<path d="M66 7.65116C66 3.42554 69.4296 0 73.6602 0H405.921C410.152 0 413.581 3.42554 413.581 7.65116V30.6047H66V7.65116Z" fill="#6DA4FD"/>
<path d="M80.4879 19.5688C79.678 19.5688 78.9445 19.3848 78.2875 19.0169C77.638 18.6409 77.1261 18.125 76.7518 17.4691C76.385 16.8132 76.2017 16.0733 76.2017 15.2495C76.2017 14.4256 76.3888 13.6857 76.7632 13.0298C77.1376 12.3739 77.6495 11.862 78.2989 11.4941C78.956 11.1181 79.6895 10.9302 80.4993 10.9302C81.1564 10.9302 81.7562 11.0502 82.2986 11.2901C82.8411 11.5301 83.2995 11.878 83.6739 12.3339L82.7112 13.2818C82.1305 12.6259 81.4162 12.298 80.5681 12.298C80.018 12.298 79.5252 12.4259 79.0897 12.6819C78.6542 12.9299 78.3142 13.2778 78.0697 13.7257C77.8252 14.1737 77.703 14.6816 77.703 15.2495C77.703 15.8174 77.8252 16.3253 78.0697 16.7732C78.3142 17.2212 78.6542 17.5731 79.0897 17.8291C79.5252 18.077 80.018 18.201 80.5681 18.201C81.4162 18.201 82.1305 17.8691 82.7112 17.2052L83.6739 18.165C83.2995 18.6209 82.8373 18.9689 82.2872 19.2088C81.7447 19.4488 81.1449 19.5688 80.4879 19.5688Z" fill="white"/>
<path d="M90.721 13.0418V19.4488H89.3573V18.6329C89.128 18.9209 88.8415 19.1448 88.4977 19.3048C88.1539 19.4568 87.7834 19.5328 87.3861 19.5328C86.5686 19.5328 85.9229 19.2968 85.4492 18.8249C84.9832 18.345 84.7502 17.6371 84.7502 16.7012V13.0418H86.1827V16.4973C86.1827 17.0732 86.305 17.5051 86.5494 17.7931C86.8016 18.073 87.1569 18.213 87.6153 18.213C88.1272 18.213 88.5321 18.049 88.8301 17.7211C89.1357 17.3851 89.2885 16.9052 89.2885 16.2813V13.0418H90.721Z" fill="white"/>
<path d="M93.9605 13.9777C94.3731 13.3058 95.0989 12.9698 96.138 12.9698V14.3976C96.0157 14.3736 95.905 14.3616 95.8056 14.3616C95.2479 14.3616 94.8124 14.5336 94.4991 14.8775C94.1859 15.2135 94.0293 15.7014 94.0293 16.3413V19.4488H92.5967V13.0418H93.9605V13.9777Z" fill="white"/>
<path d="M98.717 13.9777C99.1296 13.3058 99.8554 12.9698 100.895 12.9698V14.3976C100.772 14.3736 100.661 14.3616 100.562 14.3616C100.004 14.3616 99.5689 14.5336 99.2557 14.8775C98.9424 15.2135 98.7858 15.7014 98.7858 16.3413V19.4488H97.3532V13.0418H98.717V13.9777Z" fill="white"/>
<path d="M107.807 16.2813C107.807 16.3853 107.799 16.5333 107.784 16.7252H102.982C103.066 17.1972 103.284 17.5731 103.635 17.8531C103.994 18.125 104.438 18.261 104.965 18.261C105.637 18.261 106.191 18.029 106.627 17.5651L107.394 18.489C107.119 18.8329 106.772 19.0929 106.351 19.2688C105.931 19.4448 105.458 19.5328 104.93 19.5328C104.258 19.5328 103.666 19.3928 103.154 19.1129C102.642 18.8329 102.245 18.445 101.962 17.949C101.687 17.4451 101.55 16.8772 101.55 16.2453C101.55 15.6214 101.683 15.0615 101.951 14.5656C102.226 14.0617 102.604 13.6697 103.085 13.3898C103.567 13.1098 104.109 12.9698 104.713 12.9698C105.309 12.9698 105.84 13.1098 106.306 13.3898C106.779 13.6617 107.146 14.0497 107.406 14.5536C107.673 15.0495 107.807 15.6254 107.807 16.2813ZM104.713 14.1697C104.254 14.1697 103.865 14.3136 103.544 14.6016C103.23 14.8815 103.039 15.2575 102.971 15.7294H106.443C106.382 15.2655 106.195 14.8895 105.882 14.6016C105.568 14.3136 105.179 14.1697 104.713 14.1697Z" fill="white"/>
<path d="M112.656 12.9698C113.427 12.9698 114.046 13.2058 114.512 13.6777C114.978 14.1497 115.211 14.8495 115.211 15.7774V19.4488H113.779V15.9694C113.779 15.4095 113.653 14.9895 113.4 14.7096C113.148 14.4216 112.789 14.2776 112.323 14.2776C111.796 14.2776 111.38 14.4456 111.074 14.7816C110.768 15.1095 110.616 15.5854 110.616 16.2093V19.4488H109.183V13.0418H110.547V13.8697C110.784 13.5737 111.082 13.3498 111.441 13.1978C111.8 13.0458 112.205 12.9698 112.656 12.9698Z" fill="white"/>
<path d="M119.892 19.5328C119.258 19.5328 118.689 19.3928 118.185 19.1129C117.68 18.8329 117.287 18.445 117.004 17.949C116.722 17.4451 116.58 16.8772 116.58 16.2453C116.58 15.6134 116.722 15.0495 117.004 14.5536C117.287 14.0577 117.677 13.6697 118.173 13.3898C118.677 13.1098 119.25 12.9698 119.892 12.9698C120.496 12.9698 121.023 13.0978 121.474 13.3538C121.932 13.6097 122.276 13.9777 122.505 14.4576L121.405 15.1295C121.229 14.8335 121.008 14.6136 120.74 14.4696C120.481 14.3176 120.194 14.2416 119.881 14.2416C119.346 14.2416 118.903 14.4256 118.551 14.7936C118.2 15.1535 118.024 15.6374 118.024 16.2453C118.024 16.8532 118.196 17.3411 118.54 17.7091C118.891 18.069 119.338 18.249 119.881 18.249C120.194 18.249 120.481 18.177 120.74 18.033C121.008 17.8811 121.229 17.6571 121.405 17.3611L122.505 18.033C122.268 18.5129 121.921 18.8849 121.462 19.1488C121.012 19.4048 120.488 19.5328 119.892 19.5328Z" fill="white"/>
<path d="M129.395 13.0418L126.53 19.9647C126.263 20.6606 125.938 21.1485 125.556 21.4285C125.174 21.7164 124.712 21.8604 124.169 21.8604C123.864 21.8604 123.562 21.8084 123.264 21.7044C122.966 21.6005 122.722 21.4565 122.531 21.2725L123.104 20.1687C123.241 20.3047 123.402 20.4126 123.585 20.4926C123.776 20.5726 123.967 20.6126 124.158 20.6126C124.41 20.6126 124.616 20.5446 124.777 20.4086C124.945 20.2727 125.098 20.0447 125.235 19.7248L125.338 19.4728L122.668 13.0418H124.158L126.083 17.7811L128.02 13.0418H129.395Z" fill="white"/>
<path d="M189.638 13.876C190.217 14.0907 190.665 14.4033 190.982 14.814C191.299 15.2247 191.458 15.7193 191.458 16.298C191.458 17.1567 191.103 17.824 190.394 18.3C189.685 18.7667 188.658 19 187.314 19H181.798V9.2H187.034C188.341 9.2 189.325 9.43333 189.988 9.9C190.66 10.3667 190.996 10.9873 190.996 11.762C190.996 12.2193 190.879 12.63 190.646 12.994C190.422 13.358 190.086 13.652 189.638 13.876ZM185.046 11.51V12.966H186.586C187.305 12.966 187.664 12.7233 187.664 12.238C187.664 11.7527 187.305 11.51 186.586 11.51H185.046ZM187.034 16.69C187.762 16.69 188.126 16.4333 188.126 15.92C188.126 15.4067 187.762 15.15 187.034 15.15H185.046V16.69H187.034ZM195.958 11.202C197.302 11.202 198.329 11.5053 199.038 12.112C199.747 12.7093 200.102 13.6333 200.102 14.884V19H197.162V17.992C196.798 18.7573 196.075 19.14 194.992 19.14C194.385 19.14 193.867 19.0373 193.438 18.832C193.018 18.6173 192.696 18.3327 192.472 17.978C192.257 17.614 192.15 17.208 192.15 16.76C192.15 16.004 192.439 15.43 193.018 15.038C193.597 14.646 194.474 14.45 195.65 14.45H196.924C196.821 13.8527 196.341 13.554 195.482 13.554C195.137 13.554 194.787 13.61 194.432 13.722C194.077 13.8247 193.774 13.9693 193.522 14.156L192.514 12.07C192.953 11.7993 193.48 11.5893 194.096 11.44C194.721 11.2813 195.342 11.202 195.958 11.202ZM195.944 17.236C196.168 17.236 196.369 17.1753 196.546 17.054C196.723 16.9327 196.854 16.7507 196.938 16.508V15.976H196.154C195.51 15.976 195.188 16.1907 195.188 16.62C195.188 16.7973 195.253 16.9467 195.384 17.068C195.524 17.18 195.711 17.236 195.944 17.236ZM201.47 8.612H204.634V19H201.47V8.612ZM209.466 11.202C210.81 11.202 211.837 11.5053 212.546 12.112C213.255 12.7093 213.61 13.6333 213.61 14.884V19H210.67V17.992C210.306 18.7573 209.583 19.14 208.5 19.14C207.893 19.14 207.375 19.0373 206.946 18.832C206.526 18.6173 206.204 18.3327 205.98 17.978C205.765 17.614 205.658 17.208 205.658 16.76C205.658 16.004 205.947 15.43 206.526 15.038C207.105 14.646 207.982 14.45 209.158 14.45H210.432C210.329 13.8527 209.849 13.554 208.99 13.554C208.645 13.554 208.295 13.61 207.94 13.722C207.585 13.8247 207.282 13.9693 207.03 14.156L206.022 12.07C206.461 11.7993 206.988 11.5893 207.604 11.44C208.229 11.2813 208.85 11.202 209.466 11.202ZM209.452 17.236C209.676 17.236 209.877 17.1753 210.054 17.054C210.231 16.9327 210.362 16.7507 210.446 16.508V15.976H209.662C209.018 15.976 208.696 16.1907 208.696 16.62C208.696 16.7973 208.761 16.9467 208.892 17.068C209.032 17.18 209.219 17.236 209.452 17.236ZM220.297 11.202C221.24 11.202 221.996 11.4867 222.565 12.056C223.144 12.6253 223.433 13.484 223.433 14.632V19H220.269V15.178C220.269 14.3007 219.957 13.862 219.331 13.862C218.977 13.862 218.687 13.988 218.463 14.24C218.249 14.4827 218.141 14.87 218.141 15.402V19H214.977V11.342H217.987V12.098C218.286 11.7993 218.631 11.5753 219.023 11.426C219.415 11.2767 219.84 11.202 220.297 11.202ZM229.06 19.14C228.192 19.14 227.413 18.972 226.722 18.636C226.041 18.3 225.504 17.8287 225.112 17.222C224.729 16.6153 224.538 15.9293 224.538 15.164C224.538 14.3987 224.729 13.7173 225.112 13.12C225.504 12.5133 226.041 12.042 226.722 11.706C227.413 11.37 228.192 11.202 229.06 11.202C229.993 11.202 230.791 11.4027 231.454 11.804C232.117 12.2053 232.574 12.7607 232.826 13.47L230.376 14.674C230.077 14.002 229.634 13.666 229.046 13.666C228.673 13.666 228.36 13.7967 228.108 14.058C227.865 14.3193 227.744 14.688 227.744 15.164C227.744 15.6493 227.865 16.0227 228.108 16.284C228.36 16.5453 228.673 16.676 229.046 16.676C229.634 16.676 230.077 16.34 230.376 15.668L232.826 16.872C232.574 17.5813 232.117 18.1367 231.454 18.538C230.791 18.9393 229.993 19.14 229.06 19.14ZM241.637 15.164C241.637 15.2107 241.623 15.458 241.595 15.906H236.275C236.387 16.1953 236.574 16.4193 236.835 16.578C237.096 16.7273 237.423 16.802 237.815 16.802C238.151 16.802 238.431 16.76 238.655 16.676C238.888 16.592 239.14 16.4473 239.411 16.242L241.063 17.908C240.316 18.7293 239.201 19.14 237.717 19.14C236.793 19.14 235.981 18.972 235.281 18.636C234.581 18.2907 234.04 17.8147 233.657 17.208C233.274 16.6013 233.083 15.92 233.083 15.164C233.083 14.3987 233.27 13.7173 233.643 13.12C234.026 12.5133 234.544 12.042 235.197 11.706C235.86 11.37 236.602 11.202 237.423 11.202C238.198 11.202 238.902 11.356 239.537 11.664C240.181 11.972 240.69 12.4247 241.063 13.022C241.446 13.6193 241.637 14.3333 241.637 15.164ZM237.451 13.358C237.124 13.358 236.854 13.4467 236.639 13.624C236.424 13.8013 236.284 14.0533 236.219 14.38H238.683C238.618 14.0627 238.478 13.8153 238.263 13.638C238.048 13.4513 237.778 13.358 237.451 13.358Z" fill="white"/>
<path d="M328.326 11.4205H329.814V19.5926H328.326V11.4205Z" fill="white"/>
<path d="M335.313 13.2884C336.084 13.2884 336.702 13.518 337.167 13.9772C337.633 14.4364 337.866 15.1174 337.866 16.0202V19.5926H336.435V16.207C336.435 15.6622 336.309 15.2536 336.057 14.9812C335.805 14.701 335.446 14.5609 334.981 14.5609C334.454 14.5609 334.038 14.7244 333.733 15.0513C333.428 15.3704 333.275 15.8335 333.275 16.4405V19.5926H331.844V13.3585H333.206V14.164C333.443 13.876 333.741 13.6581 334.099 13.5102C334.458 13.3624 334.863 13.2884 335.313 13.2884Z" fill="white"/>
<path d="M345.593 19.6744C344.974 19.6744 344.417 19.5382 343.921 19.2658C343.425 18.9934 343.036 18.6159 342.753 18.1333C342.479 17.643 342.341 17.0904 342.341 16.4756C342.341 15.8607 342.479 15.312 342.753 14.8295C343.036 14.3469 343.425 13.9694 343.921 13.697C344.417 13.4246 344.974 13.2884 345.593 13.2884C346.218 13.2884 346.779 13.4246 347.275 13.697C347.772 13.9694 348.157 14.3469 348.432 14.8295C348.714 15.312 348.855 15.8607 348.855 16.4756C348.855 17.0904 348.714 17.643 348.432 18.1333C348.157 18.6159 347.772 18.9934 347.275 19.2658C346.779 19.5382 346.218 19.6744 345.593 19.6744ZM345.593 18.4252C346.119 18.4252 346.554 18.2462 346.898 17.8882C347.241 17.5301 347.413 17.0593 347.413 16.4756C347.413 15.8918 347.241 15.421 346.898 15.0629C346.554 14.7049 346.119 14.5259 345.593 14.5259C345.066 14.5259 344.631 14.7049 344.288 15.0629C343.952 15.421 343.784 15.8918 343.784 16.4756C343.784 17.0593 343.952 17.5301 344.288 17.8882C344.631 18.2462 345.066 18.4252 345.593 18.4252Z" fill="white"/>
<path d="M351.586 14.2691C351.998 13.6153 352.723 13.2884 353.761 13.2884V14.6777C353.639 14.6543 353.528 14.6427 353.429 14.6427C352.872 14.6427 352.437 14.81 352.124 15.1447C351.811 15.4715 351.655 15.9463 351.655 16.569V19.5926H350.224V13.3585H351.586V14.2691Z" fill="white"/>
<path d="M360.907 10.9302V19.5926H359.533V18.7871C359.296 19.0829 359.002 19.3047 358.651 19.4525C358.308 19.6004 357.926 19.6744 357.507 19.6744C356.919 19.6744 356.388 19.5421 355.915 19.2774C355.45 19.0128 355.083 18.6392 354.816 18.1567C354.549 17.6664 354.416 17.106 354.416 16.4756C354.416 15.8451 354.549 15.2886 354.816 14.8061C355.083 14.3236 355.45 13.95 355.915 13.6854C356.388 13.4207 356.919 13.2884 357.507 13.2884C357.911 13.2884 358.281 13.3585 358.617 13.4986C358.953 13.6387 359.239 13.8488 359.476 14.129V10.9302H360.907ZM357.678 18.4252C358.022 18.4252 358.331 18.3474 358.606 18.1917C358.88 18.0283 359.098 17.7987 359.258 17.5029C359.418 17.2072 359.499 16.8647 359.499 16.4756C359.499 16.0864 359.418 15.744 359.258 15.4482C359.098 15.1524 358.88 14.9267 358.606 14.7711C358.331 14.6076 358.022 14.5259 357.678 14.5259C357.335 14.5259 357.026 14.6076 356.751 14.7711C356.476 14.9267 356.259 15.1524 356.098 15.4482C355.938 15.744 355.858 16.0864 355.858 16.4756C355.858 16.8647 355.938 17.2072 356.098 17.5029C356.259 17.7987 356.476 18.0283 356.751 18.1917C357.026 18.3474 357.335 18.4252 357.678 18.4252Z" fill="white"/>
<path d="M368.526 16.5106C368.526 16.6118 368.518 16.7557 368.503 16.9425H363.706C363.79 17.4017 364.007 17.7675 364.359 18.0399C364.717 18.3046 365.16 18.4369 365.687 18.4369C366.358 18.4369 366.911 18.2112 367.347 17.7597L368.114 18.6587C367.839 18.9934 367.492 19.2463 367.072 19.4175C366.652 19.5887 366.179 19.6744 365.652 19.6744C364.981 19.6744 364.389 19.5382 363.878 19.2658C363.366 18.9934 362.97 18.6159 362.687 18.1333C362.412 17.643 362.275 17.0904 362.275 16.4756C362.275 15.8685 362.409 15.3237 362.676 14.8411C362.95 14.3508 363.328 13.9694 363.809 13.697C364.29 13.4246 364.832 13.2884 365.435 13.2884C366.03 13.2884 366.56 13.4246 367.026 13.697C367.499 13.9616 367.865 14.3391 368.125 14.8295C368.392 15.312 368.526 15.8724 368.526 16.5106ZM365.435 14.4559C364.977 14.4559 364.588 14.596 364.267 14.8762C363.954 15.1486 363.763 15.5144 363.695 15.9736H367.163C367.102 15.5221 366.915 15.1563 366.602 14.8762C366.289 14.596 365.9 14.4559 365.435 14.4559Z" fill="white"/>
<path d="M371.263 14.2691C371.675 13.6153 372.4 13.2884 373.438 13.2884V14.6777C373.316 14.6543 373.205 14.6427 373.106 14.6427C372.549 14.6427 372.114 14.81 371.801 15.1447C371.488 15.4715 371.331 15.9463 371.331 16.569V19.5926H369.9V13.3585H371.263V14.2691Z" fill="white"/>
<path d="M376.563 19.6744C376.067 19.6744 375.582 19.6082 375.109 19.4759C374.636 19.3436 374.258 19.1763 373.976 18.9739L374.525 17.8648C374.8 18.0516 375.128 18.2034 375.51 18.3201C375.899 18.4291 376.281 18.4836 376.655 18.4836C377.509 18.4836 377.937 18.254 377.937 17.7948C377.937 17.5768 377.826 17.4251 377.605 17.3395C377.391 17.2539 377.044 17.1721 376.563 17.0943C376.059 17.0165 375.647 16.927 375.327 16.8258C375.014 16.7246 374.739 16.5495 374.502 16.3004C374.273 16.0436 374.159 15.6895 374.159 15.2381C374.159 14.6466 374.399 14.1757 374.88 13.8254C375.369 13.4674 376.025 13.2884 376.849 13.2884C377.269 13.2884 377.689 13.339 378.108 13.4402C378.528 13.5336 378.872 13.662 379.139 13.8254L378.589 14.9345C378.07 14.6232 377.486 14.4675 376.838 14.4675C376.418 14.4675 376.097 14.5337 375.876 14.666C375.662 14.7905 375.556 14.9579 375.556 15.168C375.556 15.4015 375.67 15.5688 375.899 15.67C376.136 15.7634 376.498 15.8529 376.987 15.9385C377.475 16.0164 377.876 16.1059 378.189 16.207C378.502 16.3082 378.769 16.4794 378.99 16.7207C379.219 16.962 379.333 17.3044 379.333 17.7481C379.333 18.3318 379.085 18.7988 378.589 19.149C378.093 19.4992 377.418 19.6744 376.563 19.6744Z" fill="white"/>
</g>
<defs>
<filter id="filter0_d" x="0" y="5" width="480" height="156" filterUnits="userSpaceOnUse" color-interpolation-filters="sRGB">
<feFlood flood-opacity="0" result="BackgroundImageFix"/>
<feColorMatrix in="SourceAlpha" type="matrix" values="0 0 0 0 0 0 0 0 0 0 0 0 0 0 0 0 0 0 127 0"/>
<feOffset dy="5"/>
<feGaussianBlur stdDeviation="29.5"/>
<feColorMatrix type="matrix" values="0 0 0 0 0 0 0 0 0 0 0 0 0 0 0 0 0 0 0.13 0"/>
<feBlend mode="normal" in2="BackgroundImageFix" result="effect1_dropShadow"/>
<feBlend mode="normal" in="SourceGraphic" in2="effect1_dropShadow" result="shape"/>
</filter>
</defs>
</svg>
