<?xml version="1.0" encoding="utf-8"?><svg width="254" height="251" viewBox="0 0 254 251" xmlns="http://www.w3.org/2000/svg" xmlns:xlink="http://www.w3.org/1999/xlink"><svg width="21" height="33" fill="none" viewBox="0 0 21 33" id="svgsprite_bitcoin" x="153" y="86" xmlns="http://www.w3.org/2000/svg"><path d="M12.694 16.817a5.804 5.804 0 005.792-5.793 5.804 5.804 0 00-5.792-5.792H.5M.5 28.401h12.194a5.804 5.804 0 005.792-5.792 5.804 5.804 0 00-5.792-5.792H4.739M5.711 5.19v23.211M8 5V0M14 5V0M8 33v-5M14 33v-5" stroke="#E96D2D" stroke-width="4" stroke-miterlimit="10"/></svg><svg width="76" height="117" fill="none" viewBox="0 0 76 117" id="svgsprite_certificate" x="178" xmlns="http://www.w3.org/2000/svg"><path d="M41.802 93.74H2V2h72v91.74H62.566" stroke="#CE3A97" stroke-width="3" stroke-miterlimit="10"/><path d="M64.993 74.27a12.544 12.544 0 01-12.566 12.566c-2.05 0-3.991-.485-5.717-1.402-4.045-2.104-6.795-6.31-6.795-11.164A12.544 12.544 0 0152.48 61.703c6.957 0 12.512 5.663 12.512 12.567z" stroke="#CE3A97" stroke-width="3" stroke-miterlimit="10"/><path d="M46.548 85.434v25.995l6.256-8.575 6.095 9.007V85.056M27.618 20.607H48.49M16.885 31.555h42.337M16.885 41.586h42.337M16.885 52.05h42.337M16.885 63.753H35.33M16.885 74.97h14.346" stroke="#CE3A97" stroke-width="3" stroke-miterlimit="10"/></svg><svg width="21" height="21" viewBox="0 0 21 21" id="svgsprite_close" x="171" y="143" xmlns="http://www.w3.org/2000/svg"><path d="M1 19.9L19.9 1M1 1l18.9 18.9"/></svg><svg width="88" height="108" fill="none" viewBox="0 0 88 108" id="svgsprite_exam" y="143" xmlns="http://www.w3.org/2000/svg"><path d="M39.192 94.05H7.63A5.617 5.617 0 012 88.421V7.63A5.617 5.617 0 017.629 2h66.59a5.617 5.617 0 015.63 5.629V61.49" stroke="#61C3FA" stroke-width="3" stroke-miterlimit="10"/><path d="M13.993 27.848l6.841 5.846 9.915-9.44M43.089 28.974h24.376M13.993 49.454l6.841 5.845 9.915-9.396M13.993 71.752l6.841 5.845 9.915-9.439M43.089 50.58h24.376M64.695 106c11.86 0 21.475-9.615 21.475-21.475 0-11.861-9.615-21.476-21.475-21.476-11.86 0-21.476 9.615-21.476 21.476 0 11.86 9.615 21.475 21.476 21.475z" stroke="#61C3FA" stroke-width="3" stroke-miterlimit="10"/><path d="M57.074 83.615l5.37 5.326 9.265-8.92" stroke="#61C3FA" stroke-width="3" stroke-miterlimit="10"/></svg><svg width="22" height="25" fill="none" viewBox="0 0 22 25" id="svgsprite_graph" x="220" y="117" xmlns="http://www.w3.org/2000/svg"><path d="M2 25V15M11 24.388V0M20 24.487V7.452" stroke="#CF372E" stroke-width="4" stroke-miterlimit="10"/></svg><svg width="35" height="17" fill="none" viewBox="0 0 35 17" id="svgsprite_growth" x="122" y="123" xmlns="http://www.w3.org/2000/svg"><path d="M2 15.4l7.402-7.338 7.53 5.424L33.075 2" stroke="#593FF6" stroke-width="4" stroke-miterlimit="10"/></svg><svg width="42" height="26" viewBox="0 0 42 26" id="svgsprite_hamburger" x="178" y="117" xmlns="http://www.w3.org/2000/svg"><rect x="14.631" width="27.368" height="4.105" rx="2.053"/><rect x=".947" y="10.947" width="41.053" height="4.105" rx="2.053"/><rect x="7.79" y="21.895" width="34.211" height="4.105" rx="2.053"/></svg><svg width="83" height="96" fill="none" viewBox="0 0 83 96" id="svgsprite_learn" x="88" y="143" xmlns="http://www.w3.org/2000/svg"><path d="M74.528 93.992H8.372C4.896 93.992 2 91.096 2 87.62V8.372C2 4.896 4.896 2 8.372 2h66.156C78.004 2 80.9 4.896 80.9 8.372V87.62a6.354 6.354 0 01-6.372 6.372zM2 19.958h78.9H2zM11.848 10.69h8.342M26.563 10.805h8.226" stroke="#E96D2D" stroke-width="3" stroke-miterlimit="10"/><path d="M30.153 33.63H13.47v16.683h16.683V33.63zM41.74 36.99h27.806M41.74 46.744h27.806M30.153 61.436H13.47V78.12h16.683V61.436zM41.74 64.796h27.806M41.74 74.55h27.806" stroke="#E96D2D" stroke-width="3" stroke-miterlimit="10"/></svg><svg width="21" height="21" fill="none" viewBox="0 0 21 21" id="svgsprite_play_1" x="192" y="143" xmlns="http://www.w3.org/2000/svg"><circle cx="10.681" cy="10.681" r="10.319" fill="#11111F"/><path d="M13.768 9.757a1 1 0 010 1.59l-3.35 2.558a1 1 0 01-1.607-.795V7.994a1 1 0 011.607-.795l3.35 2.558z" fill="#33F8F8"/></svg><svg width="31" height="37" fill="none" viewBox="0 0 31 37" id="svgsprite_protection" x="122" y="86" xmlns="http://www.w3.org/2000/svg"><path d="M11 17.735L15.102 21 20 12" stroke="#61C3FA" stroke-width="4" stroke-miterlimit="10"/><path d="M28.869 7.116S18.148 5.48 15.505 3c-2.593 2.48-13.34 4.116-13.34 4.116C.546 25.59 14.484 33.227 15.53 33.773c1.022-.521 14.96-8.159 13.339-26.657z" stroke="#61C3FA" stroke-width="4" stroke-miterlimit="10"/></svg><svg width="38" height="42" fill="none" viewBox="0 0 38 42" id="svgsprite_question" x="122" y="44" xmlns="http://www.w3.org/2000/svg"><path d="M17.227 18.457h-2.461v-1.23c0-1.525.597-2.074 1.494-2.43.261-.103.433-.171.69-.484a1.232 1.232 0 00-.953-2.008c-.68 0-1.231.552-1.231 1.23h-2.461a3.696 3.696 0 013.691-3.691 3.696 3.696 0 013.691 3.691c0 .85-.295 1.68-.833 2.336-.625.765-1.234 1.034-1.623 1.19-.003.044-.004.1-.004.165v1.231zM14.766 19.688h2.46v2.46h-2.46v-2.46z" fill="#CE3A97"/><path d="M15.996 27.07c-6.106 0-11.074-4.968-11.074-11.074S9.89 4.922 15.996 4.922 27.07 9.89 27.07 15.996 22.102 27.07 15.996 27.07zm0-19.687c-4.75 0-8.613 3.864-8.613 8.613 0 4.75 3.864 8.613 8.613 8.613 4.75 0 8.613-3.864 8.613-8.613 0-4.75-3.864-8.613-8.613-8.613z" fill="#CE3A97"/><path d="M22.148 42H4.922V27.516A16.01 16.01 0 010 15.996C0 7.176 7.176 0 15.996 0c8.721 0 15.835 7.016 15.993 15.7l5.686 11.37h-5.683v9.844h-9.844V42zM7.383 39.54h12.305v-5.087h9.843V24.61h4.162l-4.162-8.322v-.29c0-7.464-6.072-13.536-13.535-13.536S2.461 8.533 2.461 15.996a13.55 13.55 0 004.513 10.068l.409.366v13.11z" fill="#CE3A97"/></svg><svg width="122" height="99" fill="none" viewBox="0 0 122 99" id="svgsprite_register" y="44" xmlns="http://www.w3.org/2000/svg"><path d="M75.997 86.594h-68.3A5.674 5.674 0 012 80.896V20.123a5.674 5.674 0 015.697-5.698H93.09a5.674 5.674 0 015.697 5.698v36.506M14.1 50h43M14.38 68.868h54.513" stroke="#593FF6" stroke-width="3" stroke-miterlimit="10"/><path d="M95.044 82.78l-6.682 8.722-18.288-35.45 38.686 8.44-6.611 8.581 16.951 8.582-11.113 14.42L95.044 82.78z" stroke="#593FF6" stroke-width="3" stroke-miterlimit="10"/><path d="M31.62 27.5L28.215 38h-3.18l-2.01-6.39-2.1 6.39h-3.18L14.34 27.5h3.06l2.115 6.705 2.22-6.705h2.73l2.115 6.765 2.205-6.765h2.835zm17.754 0L45.969 38h-3.18l-2.01-6.39-2.1 6.39h-3.18l-3.405-10.5h3.06l2.115 6.705 2.22-6.705h2.73l2.115 6.765 2.205-6.765h2.835zm17.754 0L63.723 38h-3.18l-2.01-6.39-2.1 6.39h-3.18l-3.405-10.5h3.06l2.115 6.705 2.22-6.705h2.73l2.115 6.765 2.205-6.765h2.835zm1.763 10.635c-.48 0-.885-.16-1.215-.48-.33-.32-.495-.725-.495-1.215 0-.5.16-.905.48-1.215.33-.31.74-.465 1.23-.465.5 0 .91.155 1.23.465.32.31.48.715.48 1.215 0 .49-.165.895-.495 1.215-.32.32-.725.48-1.215.48z" fill="#593FF6"/></svg><svg width="178" height="22" fill="none" viewBox="0 0 178 22" id="svgsprite_separator_1" xmlns="http://www.w3.org/2000/svg"><path d="M1 21c25-15 95.2-36 176 0" stroke="#AABBCF" stroke-dasharray="3 3"/></svg><svg width="178" height="22" fill="none" viewBox="0 0 178 22" id="svgsprite_separator_2" y="22" xmlns="http://www.w3.org/2000/svg"><path d="M177 1.123c-25 15-95.2 36-176 0" stroke="#AABBCF" stroke-dasharray="3 3"/></svg></svg>