<?xml version="1.0" encoding="utf-8"?><svg width="98" height="59" viewBox="0 0 98 59" xmlns="http://www.w3.org/2000/svg" xmlns:xlink="http://www.w3.org/1999/xlink"><svg width="21" height="33" fill="none" viewBox="0 0 21 33" id="svgsprite_bitcoin" y="26" xmlns="http://www.w3.org/2000/svg"><path d="M12.694 16.817a5.804 5.804 0 005.792-5.793 5.804 5.804 0 00-5.792-5.792H.5M.5 28.401h12.194a5.804 5.804 0 005.792-5.792 5.804 5.804 0 00-5.792-5.792H4.739M5.711 5.19v23.211M8 5V0M14 5V0M8 33v-5M14 33v-5" stroke="#E96D2D" stroke-width="4" stroke-miterlimit="10"/></svg><svg width="21" height="21" viewBox="0 0 21 21" id="svgsprite_close" x="43" y="26" xmlns="http://www.w3.org/2000/svg"><path d="M1 19.9L19.9 1M1 1l18.9 18.9"/></svg><svg width="22" height="25" fill="none" viewBox="0 0 22 25" id="svgsprite_graph" x="21" y="26" xmlns="http://www.w3.org/2000/svg"><path d="M2 25V15M11 24.388V0M20 24.487V7.452" stroke="#CF372E" stroke-width="4" stroke-miterlimit="10"/></svg><svg width="35" height="17" fill="none" viewBox="0 0 35 17" id="svgsprite_growth" x="42" xmlns="http://www.w3.org/2000/svg"><path d="M2 15.4l7.402-7.338 7.53 5.424L33.075 2" stroke="#593FF6" stroke-width="4" stroke-miterlimit="10"/></svg><svg width="42" height="26" viewBox="0 0 42 26" id="svgsprite_hamburger" xmlns="http://www.w3.org/2000/svg"><rect x="14.631" width="27.368" height="4.105" rx="2.053"/><rect x=".947" y="10.947" width="41.053" height="4.105" rx="2.053"/><rect x="7.79" y="21.895" width="34.211" height="4.105" rx="2.053"/></svg><svg width="21" height="21" fill="none" viewBox="0 0 21 21" id="svgsprite_play_1" x="77" xmlns="http://www.w3.org/2000/svg"><circle cx="10.681" cy="10.681" r="10.319" fill="#11111F"/><path d="M13.768 9.757a1 1 0 010 1.59l-3.35 2.558a1 1 0 01-1.607-.795V7.994a1 1 0 011.607-.795l3.35 2.558z" fill="#33F8F8"/></svg></svg>