<?xml version="1.0" encoding="utf-8"?><svg width="384" height="249" viewBox="0 0 384 249" xmlns="http://www.w3.org/2000/svg" xmlns:xlink="http://www.w3.org/1999/xlink"><svg width="147" height="44" fill="none" viewBox="0 0 147 44" id="svgsprite_appstore" y="88" xmlns="http://www.w3.org/2000/svg"><path d="M129.259 11.023c.123.217.216.559.216.9h-2.321c0-.341.124-.683.341-.9.216-.341.557-.435.897-.435.31 0 .619.094.867.435zm-2.662-.435c-.433.56-.68 1.118-.68 1.894 0 .777.216 1.46.68 1.895.434.434 1.114.683 1.888.683.681 0 1.207-.125 1.671-.342l-.217-.776c-.433.124-.897.217-1.33.217a1.97 1.97 0 01-1.114-.341c-.341-.218-.434-.684-.434-1.118h3.343v-.56c0-.682-.124-1.117-.434-1.552-.34-.559-.897-.776-1.671-.776-.619 0-1.268.217-1.702.776zM107.38 9.905v.777c.124-.218.34-.435.557-.56.34-.217.681-.34.99-.34.434 0 .898.123 1.207.434.433.341.557.9.557 1.677v3.012h-1.114v-2.888c0-.9-.34-1.335-.99-1.335-.34 0-.557.124-.774.341-.216.218-.34.56-.34.9v3.013h-1.114V11.24 9.78h.99v.124h.031zM76.744 7.577H75.63v7.359h1.114v-7.36zM61.612 9.905l.557 2.453c.124.56.217 1.118.34 1.677.124-.435.217-.994.434-1.677l.68-2.453h.898l.68 2.33c.218.558.341 1.117.434 1.676.124-.559.217-1.118.34-1.677l.681-2.329h1.114l-1.547 5.124h-.99l-.681-2.236c-.124-.559-.34-1.118-.433-1.677-.124.56-.217 1.118-.434 1.677l-.68 2.236h-.99L60.56 9.905h1.052zM26.86 9.253c.99-1.118 2.662-2.018 3.992-2.111.217 1.676-.433 3.229-1.454 4.347-.99 1.118-2.568 2.018-4.116 1.894-.062-1.46.712-3.136 1.578-4.13zM34.659 31.207c-1.114 1.677-2.321 3.353-4.209 3.353-1.764 0-2.444-1.117-4.549-1.117-2.104 0-2.785.993-4.549 1.117-1.764.125-3.094-1.77-4.332-3.446-2.352-3.478-4.147-9.595-1.702-13.85 1.207-2.11 3.342-3.446 5.663-3.446 1.764 0 3.435 1.211 4.549 1.211 1.114 0 3.095-1.46 5.23-1.211.897 0 3.435.342 4.982 2.67-.124.125-3.002 1.77-3.002 5.248 0 4.13 3.652 5.558 3.652 5.558.154.125-.31 2.019-1.733 3.913zM52.08 21.953c.341 1.46.558 2.33.682 2.67l1.206 3.789H50.07l1.207-3.788c.372-1.118.588-2.019.805-2.67zm6.097 12.483l-4.642-14.377h-2.878l-4.549 14.377h2.321l1.207-4.223h4.766l1.33 4.223h2.445zM56.97 10.589c.434 0 .774.217.99.559a2.3 2.3 0 01.341 1.21c0 .435-.124.901-.34 1.211-.217.435-.557.684-.99.684-.434 0-.774-.218-.99-.56a2.299 2.299 0 01-.341-1.21c0-.435.123-.9.34-1.211.217-.466.526-.683.99-.683zm1.764 3.664c.433-.435.681-1.118.681-1.895 0-.776-.217-1.335-.68-1.894-.434-.434-.991-.683-1.765-.683-.773 0-1.33.218-1.887.776-.434.435-.681 1.118-.681 1.895 0 .776.216 1.335.68 1.894.434.434.99.776 1.764.776.774-.093 1.455-.31 1.888-.87zM64.954 25.617c.774 0 1.455.342 2.012.994.433.683.68 1.46.68 2.453 0 1.118-.216 2.018-.68 2.67-.465.652-1.114.994-2.012.994-.774 0-1.33-.217-1.764-.776-.433-.56-.68-1.118-.68-1.894V28.38c0-.218 0-.435.123-.683.124-.56.433-1.118.898-1.46.309-.403.866-.62 1.423-.62zm3.559 7.701c.99-.994 1.454-2.453 1.454-4.13 0-1.552-.433-2.794-1.207-3.788-.773-.994-1.764-1.46-3.001-1.46-1.548 0-2.662.684-3.435 1.895l-.124-1.677h-2.012c0 1.118.124 2.329.124 3.447v11.147h2.321v-5.465c.557.994 1.547 1.46 2.878 1.46 1.114-.094 2.228-.529 3.002-1.429zM70.741 11.023c-.217.217-.34.559-.34.9v3.012h-1.114V11.24 9.78h.99v.777c.124-.217.34-.434.557-.559.34-.217.68-.341.99-.341.433 0 .898.124 1.207.434.433.342.557.901.557 1.677v3.012h-1.114v-2.888c0-.9-.34-1.335-.99-1.335-.31.124-.526.249-.743.466zM76.837 25.617c.774 0 1.455.342 2.012.994.433.683.68 1.46.68 2.453 0 1.118-.216 2.018-.68 2.67-.433.683-1.114.994-2.012.994-.773 0-1.33-.217-1.764-.776-.433-.56-.68-1.118-.68-1.894V28.38c0-.218 0-.435.123-.683.124-.56.434-1.118.898-1.46.31-.403.866-.62 1.423-.62zm3.56 7.701c.99-.994 1.453-2.453 1.453-4.13 0-1.552-.433-2.794-1.206-3.788-.774-.994-1.764-1.46-3.002-1.46-1.547 0-2.661.684-3.435 1.895l-.124-1.677h-2.011c.124 1.118.124 2.329.124 3.447v11.147h2.32v-5.465c.557.994 1.548 1.46 2.878 1.46 1.114-.094 2.105-.529 3.002-1.429zM80.953 10.588c.433 0 .774.218.99.56a2.3 2.3 0 01.34 1.21c0 .435-.123.9-.34 1.211-.216.435-.556.684-.99.684-.433 0-.773-.218-.99-.56a2.3 2.3 0 01-.34-1.21c0-.435.123-.9.34-1.211.093-.466.526-.684.99-.684zm1.764 3.665c.433-.435.68-1.118.68-1.895 0-.776-.216-1.335-.68-1.894-.433-.434-.99-.776-1.764-.776-.773 0-1.33.217-1.887.776-.434.435-.681 1.118-.681 1.894 0 .777.216 1.336.68 1.895.434.434.99.776 1.764.776s1.455-.217 1.888-.776zM87.266 14.035c-.217.124-.433.218-.681.218-.217 0-.433-.125-.557-.218a.83.83 0 01-.217-.559c0-.683.681-.993 1.888-.993v.993c-.093.124-.186.342-.433.56zm-2.662-.434c0 .434.124.776.434.993.34.342.68.435 1.114.435.68 0 1.114-.217 1.454-.683l.124.559h1.114c0-.342-.124-.683-.124-1.211v-1.895c0-1.459-.68-2.111-2.011-2.111-.681 0-1.207.124-1.764.435l.217.776c.34-.217.773-.342 1.33-.342.681 0 .99.342.99.994v.124c-.897 0-1.67.124-2.228.435-.31.373-.65.807-.65 1.49zM93.703 33.318c-.898.9-2.229 1.212-3.9 1.212-1.547 0-2.785-.342-3.651-.901l.557-1.894c.99.559 2.104.9 3.342.9.897 0 1.547-.217 2.011-.559.434-.434.681-.9.681-1.552 0-.56-.216-1.118-.557-1.46-.433-.434-.99-.776-2.011-1.117-2.569-.901-3.776-2.33-3.776-4.13 0-1.211.434-2.112 1.331-2.888.897-.776 2.011-1.118 3.435-1.118 1.33 0 2.32.217 3.218.683l-.557 1.894c-.773-.434-1.67-.683-2.785-.683-.773 0-1.454.218-1.888.56-.34.34-.556.775-.556 1.334 0 .56.216.994.68 1.46.34.341 1.114.683 2.105 1.118 1.206.434 2.104 1.117 2.66 1.77.558.652.898 1.459.898 2.453.124 1.242-.34 2.142-1.237 2.918zM93.61 10.93c.216.218.34.435.433.683v1.242c0 .342-.124.684-.34.9-.217.218-.558.436-.898.436-.433 0-.774-.218-.99-.56-.217-.34-.34-.682-.34-1.21 0-.528.123-.994.34-1.335.216-.342.557-.435.99-.435.371.03.588.03.805.28zm1.547 4.006V7.577h-1.114v2.887c-.34-.434-.774-.683-1.455-.683-.68 0-1.114.218-1.547.683a3.175 3.175 0 00-.68 2.019c0 .807.216 1.335.556 1.894.434.435.898.683 1.548.683.773 0 1.33-.341 1.67-.9v.776h1.022zM102.615 25.741h-2.569v5c0 1.21.433 1.894 1.331 1.894.433 0 .773 0 .99-.124l.124 1.77c-.433.217-.99.217-1.764.217-.898 0-1.547-.217-2.104-.776-.557-.56-.774-1.46-.774-2.795v-5.186h-1.547v-1.676h1.547V22.17l2.228-.683v2.578h2.569v1.676h-.031zM108.928 25.524c.897 0 1.547.435 2.104 1.211.433.684.681 1.46.681 2.454 0 .993-.217 1.77-.681 2.453-.433.9-1.207 1.21-2.012 1.21-.897 0-1.547-.434-2.104-1.21-.433-.683-.681-1.46-.681-2.453 0-.994.217-1.77.681-2.454.34-.776 1.114-1.21 2.012-1.21zm3.651 7.577c.897-.994 1.331-2.329 1.331-3.912 0-1.553-.434-2.795-1.331-3.789-.897-.993-2.104-1.552-3.651-1.552-1.548 0-2.786.559-3.776 1.552-.897.994-1.454 2.33-1.454 3.913 0 1.552.433 2.794 1.33 3.788.898.994 2.105 1.553 3.652 1.553 1.702 0 3.033-.56 3.899-1.553zM115.364 9.906h.774v-.994l1.114-.342v1.211h1.207v.9h-1.207v2.454c0 .683.217.9.681.9h.433v.9c-.217.125-.557.125-.897.125-.434 0-.774-.124-.991-.435-.216-.217-.34-.776-.34-1.335v-2.577h-.774v-.807zM121.368 26.083c-.217 0-.434-.124-.681-.124-.774 0-1.455.342-1.888.9a3.774 3.774 0 00-.557 2.019v5.465h-2.321v-7.049c0-1.21 0-2.235-.124-3.229h2.012l.124 2.018h.123c.217-.683.681-1.21 1.114-1.676.557-.342 1.114-.56 1.671-.56h.557c-.03 0-.03 2.236-.03 2.236zM121.151 11.49v3.446h-1.114v-7.36h1.114v3.013c.341-.56.898-.777 1.547-.777.434 0 .898.125 1.114.435.341.342.557.994.557 1.677v3.012h-1.114v-2.888c0-.9-.34-1.335-.99-1.335-.557-.031-.897.217-1.114.776zM131.58 29.748h-6.87c0 .993.34 1.77.99 2.329.557.434 1.331.683 2.228.683.99 0 1.888-.125 2.785-.435l.341 1.552c-.991.435-2.105.684-3.435.684-1.548 0-2.878-.435-3.776-1.46-.897-.9-1.33-2.235-1.33-3.788s.433-2.888 1.207-3.913c.897-1.117 2.104-1.676 3.558-1.676 1.455 0 2.569.559 3.342 1.676.557.9.898 2.019.898 3.23.062.559.062.9.062 1.118zm-4.456-4.348c-.774 0-1.331.342-1.764.9-.341.436-.557 1.119-.681 1.77h4.765c0-.682-.123-1.21-.433-1.77-.433-.558-.99-.9-1.887-.9zM47.408 8.011c.557-.124 1.207-.124 1.888-.124 1.207 0 2.104.218 2.785.776.681.56.99 1.46.99 2.578 0 1.21-.34 2.236-1.114 2.888-.68.559-1.67.9-3.001.9-.681 0-1.207 0-1.671-.124l.123-6.894zm3.776 5.372c.433-.434.68-1.21.68-2.111 0-.777-.216-1.46-.68-1.894-.433-.435-1.114-.683-1.888-.683-.34 0-.68 0-.897.124v5.247h.773c.898.094 1.579-.248 2.012-.683zM100.48 10.464c.433-.559 1.114-.776 1.887-.776.774 0 1.331.217 1.764.776.433.435.681 1.118.681 1.894 0 .777-.217 1.46-.681 1.895-.433.559-1.114.776-1.887.776-.774 0-1.331-.217-1.764-.776-.434-.435-.681-1.118-.681-1.895a3.364 3.364 0 01.681-1.894zm1.887 3.789c.434 0 .774-.218.991-.684.216-.341.34-.776.34-1.21 0-.435-.124-.901-.34-1.212-.217-.434-.557-.559-.991-.559-.433 0-.773.218-.99.56-.217.341-.34.776-.34 1.21 0 .435.123.9.34 1.211.217.466.557.684.99.684z" fill="#D5D5E1"/><path d="M140.461 44H5.446C2.352 44 0 41.671 0 38.535V5.465C0 2.33 2.32 0 5.446 0h135.139c3.094 0 5.446 2.329 5.446 5.465v32.977c0 1.21-.34 2.329-.99 3.23l-.217.34c-1.145 1.336-2.692 1.988-4.363 1.988zM5.446 1.677a3.757 3.757 0 00-3.775 3.788v33.101a3.757 3.757 0 003.775 3.788h135.139c1.114 0 2.228-.434 2.877-1.335l.217-.341c.433-.684.681-1.46.681-2.236V5.465a3.757 3.757 0 00-3.775-3.788H5.446z" fill="#D5D5E1"/></svg><svg width="21" height="33" fill="none" viewBox="0 0 21 33" id="svgsprite_bitcoin" x="300" y="152" xmlns="http://www.w3.org/2000/svg"><path d="M12.694 16.817a5.804 5.804 0 005.792-5.793 5.804 5.804 0 00-5.792-5.792H.5M.5 28.401h12.194a5.804 5.804 0 005.792-5.792 5.804 5.804 0 00-5.792-5.792H4.739M5.711 5.19v23.211M8 5V0M14 5V0M8 33v-5M14 33v-5" stroke="#E96D2D" stroke-width="4" stroke-miterlimit="10"/></svg><svg width="76" height="117" fill="none" viewBox="0 0 76 117" id="svgsprite_certificate" y="132" xmlns="http://www.w3.org/2000/svg"><path d="M41.802 93.74H2V2h72v91.74H62.566" stroke="#CE3A97" stroke-width="3" stroke-miterlimit="10"/><path d="M64.993 74.27a12.544 12.544 0 01-12.566 12.566c-2.05 0-3.991-.485-5.717-1.402-4.045-2.104-6.795-6.31-6.795-11.164A12.544 12.544 0 0152.48 61.703c6.957 0 12.512 5.663 12.512 12.567z" stroke="#CE3A97" stroke-width="3" stroke-miterlimit="10"/><path d="M46.548 85.434v25.995l6.256-8.575 6.095 9.007V85.056M27.618 20.607H48.49M16.885 31.555h42.337M16.885 41.586h42.337M16.885 52.05h42.337M16.885 63.753H35.33M16.885 74.97h14.346" stroke="#CE3A97" stroke-width="3" stroke-miterlimit="10"/></svg><svg width="21" height="21" viewBox="0 0 21 21" id="svgsprite_close" x="343" y="152" xmlns="http://www.w3.org/2000/svg"><path fill-rule="evenodd" clip-rule="evenodd" d="M10.45 11.864l-8.743 8.743-1.414-1.414 8.743-8.743L.293 1.707 1.707.293l8.743 8.743L19.193.293l1.414 1.414-8.743 8.743 8.743 8.743-1.414 1.414-8.743-8.743z"/></svg><svg width="88" height="108" fill="none" viewBox="0 0 88 108" id="svgsprite_exam" x="76" y="132" xmlns="http://www.w3.org/2000/svg"><path d="M39.192 94.05H7.63A5.617 5.617 0 012 88.421V7.63A5.617 5.617 0 017.629 2h66.59a5.617 5.617 0 015.63 5.629V61.49" stroke="#61C3FA" stroke-width="3" stroke-miterlimit="10"/><path d="M13.993 27.848l6.841 5.846 9.915-9.44M43.089 28.974h24.376M13.993 49.454l6.841 5.845 9.915-9.396M13.993 71.752l6.841 5.845 9.915-9.439M43.089 50.58h24.376M64.695 106c11.86 0 21.475-9.615 21.475-21.475 0-11.861-9.615-21.476-21.475-21.476-11.86 0-21.476 9.615-21.476 21.476 0 11.86 9.615 21.475 21.476 21.475z" stroke="#61C3FA" stroke-width="3" stroke-miterlimit="10"/><path d="M57.074 83.615l5.37 5.326 9.265-8.92" stroke="#61C3FA" stroke-width="3" stroke-miterlimit="10"/></svg><svg width="10" height="20" viewBox="0 0 10 20" id="svgsprite_facebook" x="369" y="110" xmlns="http://www.w3.org/2000/svg"><path d="M1.966 4.204V6.9H0v3.298h1.966v9.8h4.038v-9.8h2.71s.254-1.581.377-3.31H6.02V4.634c0-.337.44-.79.875-.79h2.2V.41H6.104c-4.238 0-4.138 3.3-4.138 3.794z"/></svg><svg width="149" height="44" fill="none" viewBox="0 0 149 44" id="svgsprite_googleplay" y="44" xmlns="http://www.w3.org/2000/svg"><path d="M79.144 8.57h1.099l2.948 4.472-.125-.777V8.57h1.004v6.149h-1.004l-2.918-4.69v4.69h-1.004V8.57zM64.025 8.57H63.02v6.366h1.004V8.57zM51.32 8.57h3.827v.9h-2.792v1.77h2.447v.901h-2.447v1.801h2.792v.777H51.32V8.57zM44.92 9.346c.69-.683 1.475-.9 2.353-.9.44 0 .91.124 1.35.217.344.124.69.342.909.683l.125.124h-.125l-.69.684-.126-.125c-.345-.434-.91-.683-1.568-.683-.69 0-1.13.218-1.569.683-.439.435-.69.994-.69 1.677s.22 1.211.69 1.677c.44.435 1.004.683 1.569.683.69 0 1.223-.217 1.694-.683.22-.217.439-.559.439-1.118h-2.227v-.9h3.137V11.924c0 .9-.22 1.552-.785 2.111-.564.683-1.348.9-2.352.9-.91 0-1.694-.341-2.353-.993-.69-.683-1.004-1.46-1.004-2.329.188-.807.533-1.708 1.224-2.267zM14.305 9.595l14.304 8.135-3.513 3.447-11.92-11.8c.344-.03.658.094 1.129.218zM12.39 32.977V10.682c0-.218 0-.435.126-.683l12.046 11.923-12.046 11.924c-.125-.31-.125-.435-.125-.87zM14.305 34.094c-.345.218-.785.342-1.004.218l11.92-11.8 3.482 3.447-14.398 8.135zM34.224 22.947l-4.737 2.67-3.702-3.664 3.702-3.695 4.737 2.67c.564.342.784.684.784 1.119.125.248-.22.683-.785.9zM55.367 30.306c-1.223 1.335-2.698 2.018-4.737 2.018-3.702 0-6.87-3.012-6.87-6.676s3.137-6.676 6.87-6.676c2.04 0 3.608.776 4.611 1.894l-1.223 1.211c-.784-.776-1.913-1.335-3.388-1.335-2.698 0-4.83 2.236-4.83 4.906 0 2.67 2.132 4.906 4.83 4.906 1.788 0 2.823-.683 3.388-1.335.565-.559.91-1.21 1.004-2.329H50.63v-1.77h6.18c.125.342.125.683.125 1.118.032 1.18-.313 2.857-1.568 4.068zM55.712 9.47v-.9h4.517v.9h-1.82v5.248h-.878V9.472h-1.82zM62.017 25.4c1.349 0 2.478 1.118 2.478 2.67 0 1.553-1.13 2.671-2.478 2.671-1.35 0-2.479-1.118-2.479-2.67 0-1.77 1.13-2.67 2.479-2.67zm0 6.925c2.478 0 4.391-1.77 4.391-4.347 0-2.578-2.039-4.348-4.391-4.348-2.353 0-4.392 1.77-4.392 4.348 0 2.577 2.039 4.347 4.392 4.347zM64.84 9.47v-.9h4.486v.9h-1.788v5.248h-.91V9.472H64.84zM71.585 25.4c1.348 0 2.478 1.118 2.478 2.67 0 1.553-1.13 2.671-2.478 2.671-1.35 0-2.479-1.118-2.479-2.67 0-1.77 1.13-2.67 2.479-2.67zm0 6.925c2.478 0 4.391-1.77 4.391-4.347 0-2.578-2.039-4.348-4.391-4.348-2.479 0-4.392 1.77-4.392 4.348 0 2.546 2.039 4.347 4.392 4.347zM81.152 25.4c1.349 0 2.353 1.118 2.353 2.67 0 1.553-1.004 2.578-2.353 2.578-1.349 0-2.478-1.118-2.478-2.577 0-1.553 1.13-2.67 2.478-2.67zm4.047-1.46H83.41v.684h-.126c-.439-.559-1.223-.994-2.258-.994-2.133 0-4.172 1.895-4.172 4.348s2.038 4.347 4.172 4.347c1.003 0 1.913-.435 2.258-.994h.126v.683c0 1.677-.91 2.578-2.353 2.578-1.13 0-1.914-.9-2.259-1.553l-1.694.683c.44 1.118 1.788 2.577 3.828 2.577 2.258 0 4.172-1.335 4.172-4.471l.094-7.887zM88.367 19.159h-1.913v12.7h1.913v-12.7zM93.543 25.183c.784 0 1.474.341 1.569.9l-3.953 1.553c0-1.46 1.38-2.453 2.384-2.453zm.094 5.465c-1.004 0-1.694-.435-2.133-1.335l5.866-2.453-.22-.435c-.345-.994-1.474-2.795-3.701-2.795-2.227 0-4.172 1.77-4.172 4.348 0 2.453 1.788 4.347 4.391 4.347 2.04 0 3.137-1.211 3.608-1.894l-1.569-1.118c-.376.776-1.035 1.335-2.07 1.335zM106.248 21.053c1.474 0 2.258 1.21 2.258 2.235s-.784 2.236-2.258 2.236h-2.698v-4.471h2.698zm0 6.148c2.133 0 4.172-1.553 4.172-3.913 0-2.453-2.133-3.912-4.172-3.912h-4.612v12.7h1.914v-4.782l2.698-.093zM113.462 19.159h-1.913v12.7h1.913v-12.7zM125.603 35.864h-2.008l2.008-4.223-3.482-7.7h2.133l2.258 5.465h.126l2.133-5.466h2.133l-5.301 11.924zM122.026 31.859h-1.788v-.9h-.125c-.44.682-1.13 1.21-2.479 1.21-1.693 0-3.136-1.117-3.136-2.794 0-1.895 1.913-2.888 3.701-2.888.91 0 1.694.341 2.039.435v-.125c0-.993-1.004-1.676-2.039-1.676-.69 0-1.349.217-1.788.9l-1.694-.683c.565-1.335 2.039-1.894 3.388-1.894 2.259 0 3.953 1.21 3.953 3.57-.032.063-.032 4.845-.032 4.845zm-5.646-2.33c0 .777.909 1.119 1.474 1.119 1.129 0 2.133-.776 2.259-2.018-.565-.218-.91-.435-1.788-.435-.816-.125-1.945.341-1.945 1.335zM72.588 9.347c.69-.683 1.35-.994 2.353-.994.91 0 1.694.342 2.353.994.69.683.91 1.46.91 2.329 0 .9-.346 1.676-.91 2.328-.69.684-1.475.994-2.353.994-.91 0-1.694-.341-2.353-.994-.69-.683-.91-1.459-.91-2.329.032-.869.346-1.645.91-2.328zm4.643 2.36c0-.684-.22-1.211-.69-1.677-.44-.435-1.004-.683-1.569-.683-.69 0-1.129.217-1.568.683-.44.434-.69.994-.69 1.677s.22 1.21.69 1.676c.47.466 1.004.684 1.569.684.69 0 1.129-.218 1.568-.684.44-.465.69-1.024.69-1.676z" fill="#D5D5E1"/><path d="M142.385 44H5.521C2.384 44 0 41.671 0 38.535V5.465C0 2.33 2.353 0 5.521 0H142.51c3.137 0 5.521 2.329 5.521 5.465v32.977c0 1.21-.345 2.329-1.003 3.23l-.22.34c-1.161 1.336-2.729 1.988-4.423 1.988zM5.521 1.677c-2.133 0-3.827 1.677-3.827 3.788v33.101c0 2.111 1.694 3.788 3.827 3.788H142.51c1.13 0 2.259-.434 2.918-1.335l.219-.341c.439-.684.69-1.46.69-2.236V5.465c0-2.111-1.694-3.788-3.827-3.788H5.521z" fill="#D5D5E1"/></svg><svg width="22" height="25" fill="none" viewBox="0 0 22 25" id="svgsprite_graph" x="321" y="152" xmlns="http://www.w3.org/2000/svg"><path d="M2 25V15M11 24.388V0M20 24.487V7.452" stroke="#CF372E" stroke-width="4" stroke-miterlimit="10"/></svg><svg width="35" height="17" fill="none" viewBox="0 0 35 17" id="svgsprite_growth" x="342" y="84" xmlns="http://www.w3.org/2000/svg"><path d="M2 15.4l7.402-7.338 7.53 5.424L33.075 2" stroke="#593FF6" stroke-width="4" stroke-miterlimit="10"/></svg><svg width="42" height="26" viewBox="0 0 42 26" id="svgsprite_hamburger" x="300" y="84" xmlns="http://www.w3.org/2000/svg"><rect x="14.631" width="27.368" height="4.105" rx="2.053"/><rect x=".947" y="10.947" width="41.053" height="4.105" rx="2.053"/><rect x="7.79" y="21.895" width="34.211" height="4.105" rx="2.053"/></svg><svg width="83" height="96" fill="none" viewBox="0 0 83 96" id="svgsprite_learn" x="164" y="132" xmlns="http://www.w3.org/2000/svg"><path d="M74.528 93.992H8.372C4.896 93.992 2 91.096 2 87.62V8.372C2 4.896 4.896 2 8.372 2h66.156C78.004 2 80.9 4.896 80.9 8.372V87.62a6.354 6.354 0 01-6.372 6.372zM2 19.958h78.9H2zM11.848 10.69h8.342M26.563 10.805h8.226" stroke="#E96D2D" stroke-width="3" stroke-miterlimit="10"/><path d="M30.153 33.63H13.47v16.683h16.683V33.63zM41.74 36.99h27.806M41.74 46.744h27.806M30.153 61.436H13.47V78.12h16.683V61.436zM41.74 64.796h27.806M41.74 74.55h27.806" stroke="#E96D2D" stroke-width="3" stroke-miterlimit="10"/></svg><svg width="19" height="16" viewBox="0 0 19 16" id="svgsprite_link" x="364" y="152" xmlns="http://www.w3.org/2000/svg"><path fill-rule="evenodd" clip-rule="evenodd" d="M15.477 7.998l-5.384-5.726L11.913.56l5.868 6.238c.355.367.469.83.469 1.193 0 .36-.113.819-.462 1.185l-5.863 6.399-1.844-1.69 5.396-5.887z"/><path fill-rule="evenodd" clip-rule="evenodd" d="M.233 9.24v-2.5h16.645v2.5H.233z"/></svg><svg width="84" height="84" viewBox="0 0 84 84" id="svgsprite_play_1" x="300" xmlns="http://www.w3.org/2000/svg"><path fill-rule="evenodd" clip-rule="evenodd" d="M42 84c23.196 0 42-18.804 42-42S65.196 0 42 0 0 18.804 0 42s18.804 42 42 42zm14.718-40.935a2 2 0 000-3.18L37.601 25.288c-1.316-1.005-3.213-.067-3.213 1.59v29.195c0 1.656 1.897 2.594 3.213 1.59l19.117-14.598z"/></svg><svg width="31" height="37" fill="none" viewBox="0 0 31 37" id="svgsprite_protection" x="338" y="110" xmlns="http://www.w3.org/2000/svg"><path d="M11 17.735L15.102 21 20 12" stroke="#61C3FA" stroke-width="4" stroke-miterlimit="10"/><path d="M28.869 7.116S18.148 5.48 15.505 3c-2.593 2.48-13.34 4.116-13.34 4.116C.546 25.59 14.484 33.227 15.53 33.773c1.022-.521 14.96-8.159 13.339-26.657z" stroke="#61C3FA" stroke-width="4" stroke-miterlimit="10"/></svg><svg width="38" height="42" fill="none" viewBox="0 0 38 42" id="svgsprite_question" x="300" y="110" xmlns="http://www.w3.org/2000/svg"><path d="M17.227 18.457h-2.461v-1.23c0-1.525.597-2.074 1.494-2.43.261-.103.433-.171.69-.484a1.232 1.232 0 00-.953-2.008c-.68 0-1.231.552-1.231 1.23h-2.461a3.696 3.696 0 013.691-3.691 3.696 3.696 0 013.691 3.691c0 .85-.295 1.68-.833 2.336-.625.765-1.234 1.034-1.623 1.19-.003.044-.004.1-.004.165v1.231zM14.766 19.688h2.46v2.46h-2.46v-2.46z" fill="#CE3A97"/><path d="M15.996 27.07c-6.106 0-11.074-4.968-11.074-11.074S9.89 4.922 15.996 4.922 27.07 9.89 27.07 15.996 22.102 27.07 15.996 27.07zm0-19.687c-4.75 0-8.613 3.864-8.613 8.613 0 4.75 3.864 8.613 8.613 8.613 4.75 0 8.613-3.864 8.613-8.613 0-4.75-3.864-8.613-8.613-8.613z" fill="#CE3A97"/><path d="M22.148 42H4.922V27.516A16.01 16.01 0 010 15.996C0 7.176 7.176 0 15.996 0c8.721 0 15.835 7.016 15.993 15.7l5.686 11.37h-5.683v9.844h-9.844V42zM7.383 39.54h12.305v-5.087h9.843V24.61h4.162l-4.162-8.322v-.29c0-7.464-6.072-13.536-13.535-13.536S2.461 8.533 2.461 15.996a13.55 13.55 0 004.513 10.068l.409.366v13.11z" fill="#CE3A97"/></svg><svg width="122" height="99" fill="none" viewBox="0 0 122 99" id="svgsprite_register" x="178" xmlns="http://www.w3.org/2000/svg"><path d="M75.997 86.594h-68.3A5.674 5.674 0 012 80.896V20.123a5.674 5.674 0 015.697-5.698H93.09a5.674 5.674 0 015.697 5.698v36.506M14.1 50h43M14.38 68.868h54.513" stroke="#593FF6" stroke-width="3" stroke-miterlimit="10"/><path d="M95.044 82.78l-6.682 8.722-18.288-35.45 38.686 8.44-6.611 8.581 16.951 8.582-11.113 14.42L95.044 82.78z" stroke="#593FF6" stroke-width="3" stroke-miterlimit="10"/><path d="M31.62 27.5L28.215 38h-3.18l-2.01-6.39-2.1 6.39h-3.18L14.34 27.5h3.06l2.115 6.705 2.22-6.705h2.73l2.115 6.765 2.205-6.765h2.835zm17.754 0L45.969 38h-3.18l-2.01-6.39-2.1 6.39h-3.18l-3.405-10.5h3.06l2.115 6.705 2.22-6.705h2.73l2.115 6.765 2.205-6.765h2.835zm17.754 0L63.723 38h-3.18l-2.01-6.39-2.1 6.39h-3.18l-3.405-10.5h3.06l2.115 6.705 2.22-6.705h2.73l2.115 6.765 2.205-6.765h2.835zm1.763 10.635c-.48 0-.885-.16-1.215-.48-.33-.32-.495-.725-.495-1.215 0-.5.16-.905.48-1.215.33-.31.74-.465 1.23-.465.5 0 .91.155 1.23.465.32.31.48.715.48 1.215 0 .49-.165.895-.495 1.215-.32.32-.725.48-1.215.48z" fill="#593FF6"/></svg><svg width="178" height="22" fill="none" viewBox="0 0 178 22" id="svgsprite_separator_1" xmlns="http://www.w3.org/2000/svg"><path d="M1 21c25-15 95.2-36 176 0" stroke="#AABBCF" stroke-dasharray="3 3"/></svg><svg width="178" height="22" fill="none" viewBox="0 0 178 22" id="svgsprite_separator_2" y="22" xmlns="http://www.w3.org/2000/svg"><path d="M177 1.123c-25 15-95.2 36-176 0" stroke="#AABBCF" stroke-dasharray="3 3"/></svg></svg>