<svg width="23" height="20" viewBox="0 0 23 20"  xmlns="http://www.w3.org/2000/svg">
<path d="M0.489658 9.83399L5.69265 11.7122L7.70653 17.9763C7.83539 18.3775 8.34263 18.5258 8.6793 18.2596L11.5795 15.9728C11.8835 15.7333 12.3166 15.7213 12.6343 15.9444L17.8653 19.6176C18.2254 19.8708 18.7357 19.6799 18.826 19.259L22.658 1.43116C22.7566 0.971357 22.2895 0.587779 21.8368 0.75711L0.483562 8.72431C-0.0433917 8.92087 -0.0388004 9.64246 0.489658 9.83399ZM7.38198 10.7124L17.5506 4.65499C17.7333 4.54645 17.9213 4.78545 17.7644 4.92624L9.37237 12.4711C9.07739 12.7367 8.88712 13.0921 8.83322 13.4779L8.54735 15.5269C8.50949 15.8005 8.11215 15.8276 8.0341 15.5628L6.93466 11.8264C6.80873 11.4003 6.99224 10.945 7.38198 10.7124Z" />
</svg>
