<svg width="76" height="117" viewBox="0 0 76 117" fill="none" xmlns="http://www.w3.org/2000/svg">
<path d="M41.8022 93.7393H2V2H74V93.7393H62.5663" stroke="#CE3A97" stroke-width="3" stroke-miterlimit="10"/>
<path d="M64.9932 74.2697C64.9932 81.227 59.3842 86.836 52.4269 86.836C50.3775 86.836 48.4359 86.3506 46.7101 85.4337C42.6651 83.3303 39.9146 79.1236 39.9146 74.2697C39.9146 67.3124 45.5235 61.7034 52.4808 61.7034C59.4381 61.7034 64.9932 67.3663 64.9932 74.2697Z" stroke="#CE3A97" stroke-width="3" stroke-miterlimit="10"/>
<path d="M46.5483 85.4337V111.429L52.8045 102.854L58.8989 111.861V85.0562" stroke="#CE3A97" stroke-width="3" stroke-miterlimit="10"/>
<path d="M27.6182 20.6067H48.4901" stroke="#CE3A97" stroke-width="3" stroke-miterlimit="10"/>
<path d="M16.8853 31.5551H59.2223" stroke="#CE3A97" stroke-width="3" stroke-miterlimit="10"/>
<path d="M16.8853 41.5864H59.2223" stroke="#CE3A97" stroke-width="3" stroke-miterlimit="10"/>
<path d="M16.8853 52.0494H59.2223" stroke="#CE3A97" stroke-width="3" stroke-miterlimit="10"/>
<path d="M16.8853 63.7528H35.3302" stroke="#CE3A97" stroke-width="3" stroke-miterlimit="10"/>
<path d="M16.8853 74.9707H31.2313" stroke="#CE3A97" stroke-width="3" stroke-miterlimit="10"/>
</svg>
