<svg width="38" height="42" viewBox="0 0 38 42" fill="none" xmlns="http://www.w3.org/2000/svg">
<path d="M17.2266 18.457H14.7656V17.2265C14.7656 15.7024 15.3631 15.1533 16.2604 14.7977C16.5212 14.6943 16.6935 14.626 16.9495 14.313C17.0759 14.1585 17.2266 13.8981 17.2266 13.535C17.2266 12.8566 16.6746 12.3046 15.9961 12.3046C15.3176 12.3046 14.7656 12.8566 14.7656 13.535H12.3047C12.3047 11.4996 13.9606 9.84363 15.9961 9.84363C18.0315 9.84363 19.6875 11.4996 19.6875 13.535C19.6875 14.3846 19.3917 15.2143 18.8544 15.8711C18.2291 16.6356 17.6196 16.9046 17.2305 17.0602C17.2281 17.1055 17.2266 17.1605 17.2266 17.2264V18.457Z" fill="#CE3A97"/>
<path d="M14.7656 19.6875H17.2266V22.1484H14.7656V19.6875Z" fill="#CE3A97"/>
<path d="M15.9961 27.0703C9.88977 27.0703 4.92188 22.1024 4.92188 15.9961C4.92188 9.88977 9.88977 4.92188 15.9961 4.92188C22.1024 4.92188 27.0703 9.88977 27.0703 15.9961C27.0703 22.1024 22.1024 27.0703 15.9961 27.0703ZM15.9961 7.38281C11.2467 7.38281 7.38281 11.2467 7.38281 15.9961C7.38281 20.7455 11.2467 24.6094 15.9961 24.6094C20.7455 24.6094 24.6094 20.7455 24.6094 15.9961C24.6094 11.2467 20.7455 7.38281 15.9961 7.38281Z" fill="#CE3A97"/>
<path d="M22.1484 42H4.92187V27.5159C1.78713 24.5018 0 20.3348 0 15.9961C0 7.17585 7.17585 0 15.9961 0C24.7172 0 31.8308 7.01622 31.9895 15.7002L37.6745 27.0703H31.9921V36.9141H22.1484V42H22.1484ZM7.38281 39.5391H19.6875V34.4531H29.5312V24.6094H33.6926L29.5312 16.2866V15.9961C29.5312 8.53281 23.4594 2.46094 15.9961 2.46094C8.53281 2.46094 2.46094 8.53281 2.46094 15.9961C2.46094 19.8219 4.10583 23.4914 6.97389 26.0635L7.38281 26.4303V39.5391Z" fill="#CE3A97"/>
</svg>
