<svg width="88" height="108" viewBox="0 0 88 108" fill="none" xmlns="http://www.w3.org/2000/svg">
<path d="M39.1923 94.05H7.62864C4.51124 94.05 2 91.5387 2 88.4213V7.62864C2 4.51124 4.51124 2 7.62864 2H74.2198C77.3372 2 79.8485 4.51124 79.8485 7.62864V61.4904" stroke="#61C3FA" stroke-width="3" stroke-miterlimit="10"/>
<path d="M13.9932 27.8484L20.8341 33.6936L30.7492 24.2548" stroke="#61C3FA" stroke-width="3" stroke-miterlimit="10"/>
<path d="M43.0889 28.9741H67.4652" stroke="#61C3FA" stroke-width="3" stroke-miterlimit="10"/>
<path d="M13.9932 49.4538L20.8341 55.2989L30.7492 45.9034" stroke="#61C3FA" stroke-width="3" stroke-miterlimit="10"/>
<path d="M13.9932 71.7519L20.8341 77.597L30.7492 68.1582" stroke="#61C3FA" stroke-width="3" stroke-miterlimit="10"/>
<path d="M43.0889 50.5795H67.4652" stroke="#61C3FA" stroke-width="3" stroke-miterlimit="10"/>
<path d="M64.6947 106C76.5552 106 86.1701 96.3851 86.1701 84.5245C86.1701 72.664 76.5552 63.0491 64.6947 63.0491C52.8341 63.0491 43.2192 72.664 43.2192 84.5245C43.2192 96.3851 52.8341 106 64.6947 106Z" stroke="#61C3FA" stroke-width="3" stroke-miterlimit="10"/>
<path d="M57.0742 83.6154L62.4431 88.941L71.7087 80.0217" stroke="#61C3FA" stroke-width="3" stroke-miterlimit="10"/>
</svg>
