<svg width="10" height="20" viewBox="0 0 10 20" xmlns="http://www.w3.org/2000/svg">
<path d="M1.96593 4.20366C1.96593 4.69734 1.96593 6.90085 1.96593 6.90085H0V10.199H1.96593V19.9998H6.00437V10.1992H8.71435C8.71435 10.1992 8.96815 8.61782 9.09118 6.88868C8.73846 6.88868 6.01964 6.88868 6.01964 6.88868C6.01964 6.88868 6.01964 4.96994 6.01964 4.63362C6.01964 4.29658 6.45995 3.84321 6.89514 3.84321C7.32952 3.84321 8.24631 3.84321 9.09544 3.84321C9.09544 3.39416 9.09544 1.84261 9.09544 0.409668C7.96187 0.409668 6.67225 0.409668 6.10379 0.409668C1.86611 0.40944 1.96593 3.71085 1.96593 4.20366Z" />
</svg>
