<svg width="21" height="17" viewBox="0 0 21 17" xmlns="http://www.w3.org/2000/svg">
<path d="M21 2.01137C20.2271 2.35269 19.3978 2.58417 18.5264 2.68751C19.4161 2.15653 20.0972 1.31433 20.42 0.313861C19.5854 0.80558 18.6642 1.16263 17.6826 1.35619C16.8966 0.520513 15.7785 0 14.5384 0C12.1593 0 10.2303 1.92246 10.2303 4.29217C10.2303 4.62826 10.2683 4.95652 10.3418 5.27041C6.76201 5.09122 3.58768 3.38195 1.46314 0.784651C1.09176 1.41764 0.880492 2.1552 0.880492 2.94252C0.880492 4.43211 1.64161 5.74644 2.7964 6.51539C2.0904 6.49186 1.42639 6.29831 0.84508 5.97658V6.0302C0.84508 8.10959 2.33056 9.84502 4.30024 10.24C3.93936 10.3368 3.55882 10.3904 3.16514 10.3904C2.88696 10.3904 2.61794 10.3629 2.35417 10.3106C2.90267 12.0173 4.49315 13.2584 6.37756 13.2924C4.90388 14.4433 3.04573 15.1272 1.02749 15.1272C0.679756 15.1272 0.337236 15.1063 0 15.0684C1.90671 16.2886 4.17036 17 6.60327 17C14.528 17 18.8597 10.4584 18.8597 4.78523L18.8453 4.22942C19.6917 3.62779 20.4239 2.8719 21 2.01137Z" />
</svg>
