<svg width="27" height="19" viewBox="0 0 27 19"  xmlns="http://www.w3.org/2000/svg">
<path d="M26.4458 3.51276C26.1447 2.39391 25.2626 1.51198 24.1439 1.21069C22.1001 0.651367 13.9248 0.651367 13.9248 0.651367C13.9248 0.651367 5.7497 0.651367 3.70588 1.18937C2.60875 1.49046 1.7051 2.39411 1.40402 3.51276C0.866211 5.55638 0.866211 9.79467 0.866211 9.79467C0.866211 9.79467 0.866211 14.0543 1.40402 16.0766C1.7053 17.1952 2.58723 18.0774 3.70608 18.3786C5.77122 18.938 13.925 18.938 13.925 18.938C13.925 18.938 22.1001 18.938 24.1439 18.4C25.2628 18.0989 26.1447 17.2167 26.446 16.0981C26.9838 14.0543 26.9838 9.81619 26.9838 9.81619C26.9838 9.81619 27.0053 5.55638 26.4458 3.51276Z" />
<path d="M11.3218 13.7104L18.12 9.79489L11.3218 5.87939V13.7104Z" fill="#11111F"/>
</svg>
