<svg width="147" height="44" viewBox="0 0 147 44" fill="none" xmlns="http://www.w3.org/2000/svg">
<path d="M129.259 11.023C129.382 11.2404 129.475 11.5819 129.475 11.9235H127.154C127.154 11.5819 127.278 11.2404 127.495 11.023C127.711 10.6815 128.052 10.5883 128.392 10.5883C128.702 10.5883 129.011 10.6815 129.259 11.023ZM126.597 10.5883C126.164 11.1472 125.917 11.7062 125.917 12.4824C125.917 13.2587 126.133 13.9419 126.597 14.3766C127.031 14.8113 127.711 15.0597 128.485 15.0597C129.166 15.0597 129.692 14.9355 130.156 14.7182L129.939 13.9419C129.506 14.0661 129.042 14.1592 128.609 14.1592C128.176 14.1592 127.835 14.035 127.495 13.8177C127.154 13.6003 127.061 13.1345 127.061 12.6998H130.404C130.404 12.5756 130.404 12.3582 130.404 12.1409C130.404 11.4577 130.28 11.023 129.97 10.5883C129.63 10.0294 129.073 9.81201 128.299 9.81201C127.68 9.81201 127.031 10.0294 126.597 10.5883Z" fill="#D5D5E1"/>
<path d="M107.38 9.90546V10.6817C107.504 10.4644 107.72 10.247 107.937 10.1228C108.277 9.90546 108.618 9.78125 108.927 9.78125C109.361 9.78125 109.825 9.90546 110.134 10.216C110.567 10.5575 110.691 11.1165 110.691 11.8928V14.9047H109.577V12.017C109.577 11.1165 109.237 10.6817 108.587 10.6817C108.247 10.6817 108.03 10.8059 107.813 11.0233C107.597 11.2407 107.473 11.5822 107.473 11.9238V14.9358H106.359V11.2407C106.359 10.806 106.359 10.3402 106.359 9.78125H107.349V9.90546H107.38Z" fill="#D5D5E1"/>
<path d="M76.7444 7.57666H75.6304V14.9359H76.7444V7.57666Z" fill="#D5D5E1"/>
<path d="M61.6122 9.90527L62.1692 12.3583C62.293 12.9173 62.3858 13.4762 62.5096 14.0351C62.6334 13.6004 62.7262 13.0415 62.9428 12.3583L63.6236 9.90527H64.5211L65.2019 12.2341C65.4185 12.7931 65.5423 13.352 65.6351 13.9109C65.7589 13.352 65.8517 12.7931 65.9755 12.2341L66.6563 9.90527H67.7703L66.2231 15.0288H65.2328L64.552 12.7931C64.4282 12.2341 64.2116 11.6752 64.1188 11.1163C63.995 11.6752 63.9022 12.2341 63.6855 12.7931L63.0047 15.0288H62.0145L60.5601 9.90527H61.6122Z" fill="#D5D5E1"/>
<path d="M26.8605 9.2531C27.8507 8.13525 29.5218 7.23476 30.8524 7.1416C31.0691 8.81838 30.4192 10.371 29.398 11.4888C28.4078 12.6067 26.8296 13.5072 25.2823 13.383C25.2204 11.9235 25.994 10.2468 26.8605 9.2531Z" fill="#D5D5E1"/>
<path d="M34.6588 31.2069C33.5448 32.8836 32.3379 34.5604 30.4503 34.5604C28.6864 34.5604 28.0056 33.4426 25.9013 33.4426C23.797 33.4426 23.1162 34.4362 21.3523 34.5604C19.5884 34.6846 18.2578 32.7905 17.02 31.1137C14.6681 27.6359 12.8733 21.5188 15.318 17.2647C16.5249 15.1532 18.6601 13.818 20.981 13.818C22.7449 13.818 24.4159 15.029 25.5299 15.029C26.644 15.029 28.6245 13.5696 30.7597 13.818C31.6571 13.818 34.1946 14.1596 35.7419 16.4884C35.6181 16.6126 32.7402 18.2584 32.7402 21.7361C32.7402 25.866 36.3918 27.2944 36.3918 27.2944C36.5465 27.4186 36.0823 29.3127 34.6588 31.2069Z" fill="#D5D5E1"/>
<path d="M52.0808 21.9532C52.4212 23.4126 52.6379 24.2821 52.7616 24.6237L53.9685 28.4119H50.0694L51.2763 24.6237C51.6476 23.5058 51.8642 22.6053 52.0808 21.9532ZM58.1771 34.4359L53.5353 20.0591H50.6574L46.1084 34.4359H48.4293L49.6362 30.2129H54.4017L55.7324 34.4359H58.1771Z" fill="#D5D5E1"/>
<path d="M56.9703 10.5886C57.4036 10.5886 57.744 10.806 57.9606 11.1475C58.1772 11.4891 58.301 11.9238 58.301 12.3585C58.301 12.7932 58.1772 13.259 57.9606 13.5695C57.744 14.0043 57.4036 14.2527 56.9703 14.2527C56.5371 14.2527 56.1967 14.0353 55.9801 13.6937C55.7634 13.3522 55.6397 12.9175 55.6397 12.4827C55.6397 12.048 55.7634 11.5822 55.9801 11.2717C56.1967 10.8059 56.5061 10.5886 56.9703 10.5886ZM58.7342 14.2527C59.1674 13.8179 59.415 13.1348 59.415 12.3585C59.415 11.5822 59.1984 11.0233 58.7342 10.4644C58.301 10.0297 57.744 9.78125 56.9703 9.78125C56.1967 9.78125 55.6397 9.99861 55.0827 10.5575C54.6494 10.9923 54.4019 11.6754 54.4019 12.4517C54.4019 13.228 54.6185 13.7869 55.0827 14.3458C55.5159 14.7805 56.0729 15.1221 56.8465 15.1221C57.6202 15.029 58.301 14.8116 58.7342 14.2527Z" fill="#D5D5E1"/>
<path d="M64.9541 25.6172C65.7277 25.6172 66.4085 25.9588 66.9655 26.6109C67.3987 27.294 67.6463 28.0703 67.6463 29.0639C67.6463 30.1818 67.4297 31.0823 66.9655 31.7344C66.5013 32.3864 65.8515 32.728 64.9541 32.728C64.1804 32.728 63.6234 32.5106 63.1902 31.9517C62.7569 31.3928 62.5094 30.8339 62.5094 30.0576V28.3808C62.5094 28.1634 62.5094 27.9461 62.6332 27.6977C62.7569 27.1387 63.0664 26.5798 63.5306 26.2382C63.84 25.8346 64.397 25.6172 64.9541 25.6172ZM68.5128 33.318C69.503 32.3243 69.9672 30.8649 69.9672 29.1881C69.9672 27.6356 69.534 26.3935 68.7603 25.3999C67.9867 24.4062 66.9965 23.9404 65.7586 23.9404C64.2114 23.9404 63.0973 24.6236 62.3237 25.8346L62.1999 24.1578H60.1885C60.1885 25.2756 60.3123 26.4867 60.3123 27.6045V38.752H62.6332V33.2869C63.1902 34.2806 64.1804 34.7464 65.5111 34.7464C66.6251 34.6532 67.7391 34.2185 68.5128 33.318Z" fill="#D5D5E1"/>
<path d="M70.7411 11.023C70.5244 11.2404 70.4007 11.5819 70.4007 11.9235V14.9355H69.2866V11.2404C69.2866 10.8056 69.2866 10.3399 69.2866 9.78094H70.2769V10.5572C70.4007 10.3399 70.6173 10.1225 70.8339 9.99831C71.1743 9.78094 71.5147 9.65674 71.8241 9.65674C72.2574 9.65674 72.7216 9.78094 73.031 10.0915C73.4642 10.433 73.588 10.992 73.588 11.7682V14.7802H72.474V11.8924C72.474 10.992 72.1336 10.5572 71.4837 10.5572C71.1743 10.6814 70.9577 10.8056 70.7411 11.023Z" fill="#D5D5E1"/>
<path d="M76.8374 25.6172C77.611 25.6172 78.2918 25.9588 78.8488 26.6109C79.282 27.294 79.5296 28.0703 79.5296 29.0639C79.5296 30.1818 79.313 31.0823 78.8488 31.7344C78.4156 32.4175 77.7348 32.728 76.8374 32.728C76.0637 32.728 75.5067 32.5106 75.0735 31.9517C74.6402 31.3928 74.3927 30.8339 74.3927 30.0576V28.3808C74.3927 28.1634 74.3927 27.9461 74.5165 27.6977C74.6402 27.1387 74.9497 26.5798 75.4139 26.2382C75.7233 25.8346 76.2803 25.6172 76.8374 25.6172ZM80.3961 33.318C81.3863 32.3243 81.8505 30.8649 81.8505 29.1881C81.8505 27.6356 81.4173 26.3935 80.6436 25.3999C79.87 24.4062 78.8797 23.9404 77.6419 23.9404C76.0947 23.9404 74.9806 24.6236 74.207 25.8346L74.0832 24.1578H72.0718C72.1956 25.2756 72.1956 26.4867 72.1956 27.6045V38.752H74.5165V33.2869C75.0735 34.2806 76.0637 34.7464 77.3944 34.7464C78.5084 34.6532 79.4986 34.2185 80.3961 33.318Z" fill="#D5D5E1"/>
<path d="M80.9532 10.5885C81.3865 10.5885 81.7269 10.8058 81.9435 11.1474C82.1601 11.489 82.2839 11.9237 82.2839 12.3584C82.2839 12.7931 82.1601 13.2589 81.9435 13.5694C81.7269 14.0041 81.3865 14.2526 80.9532 14.2526C80.52 14.2526 80.1796 14.0352 79.963 13.6936C79.7464 13.3521 79.6226 12.9173 79.6226 12.4826C79.6226 12.0479 79.7464 11.5821 79.963 11.2716C80.0558 10.8058 80.489 10.5885 80.9532 10.5885ZM82.7171 14.2526C83.1503 13.8178 83.3979 13.1347 83.3979 12.3584C83.3979 11.5821 83.1813 11.0232 82.7171 10.4643C82.2839 10.0296 81.7269 9.68799 80.9532 9.68799C80.1796 9.68799 79.6226 9.90535 79.0656 10.4643C78.6323 10.899 78.3848 11.5821 78.3848 12.3584C78.3848 13.1347 78.6014 13.6936 79.0656 14.2526C79.4988 14.6873 80.0558 15.0288 80.8294 15.0288C81.6031 15.0288 82.2839 14.8115 82.7171 14.2526Z" fill="#D5D5E1"/>
<path d="M87.2658 14.0352C87.0492 14.1594 86.8326 14.2526 86.585 14.2526C86.3684 14.2526 86.1518 14.1284 86.028 14.0352C85.9042 13.911 85.8114 13.6936 85.8114 13.4763C85.8114 12.7931 86.4922 12.4826 87.699 12.4826V13.2589C87.699 13.3831 87.699 13.3831 87.699 13.4763C87.6062 13.6005 87.5134 13.8178 87.2658 14.0352ZM84.6045 13.6005C84.6045 14.0352 84.7283 14.3768 85.0377 14.5941C85.3781 14.9357 85.7185 15.0288 86.1518 15.0288C86.8326 15.0288 87.2658 14.8115 87.6062 14.3457L87.73 14.9046H88.844C88.844 14.5631 88.7202 14.2215 88.7202 13.6936V11.7995C88.7202 10.3401 88.0394 9.68799 86.7088 9.68799C86.028 9.68799 85.5019 9.81219 84.9449 10.1227L85.1615 10.899C85.5019 10.6816 85.9351 10.5574 86.4922 10.5574C87.173 10.5574 87.4824 10.899 87.4824 11.5511V11.6753C86.585 11.6753 85.8114 11.7995 85.2543 12.11C84.9449 12.4826 84.6045 12.9173 84.6045 13.6005Z" fill="#D5D5E1"/>
<path d="M93.7025 33.3184C92.8051 34.2189 91.4744 34.5295 89.8034 34.5295C88.2561 34.5295 87.0183 34.1879 86.1519 33.629L86.7089 31.7348C87.6991 32.2937 88.8132 32.6353 90.051 32.6353C90.9484 32.6353 91.5982 32.418 92.0624 32.0764C92.4956 31.6417 92.7432 31.1759 92.7432 30.5238C92.7432 29.9649 92.5266 29.406 92.1862 29.0644C91.7529 28.6297 91.1959 28.2881 90.1747 27.9465C87.6063 27.046 86.3994 25.6177 86.3994 23.8167C86.3994 22.6057 86.8327 21.7052 87.7301 20.9289C88.6275 20.1526 89.7415 19.811 91.165 19.811C92.4956 19.811 93.4859 20.0284 94.3833 20.4942L93.8263 22.3883C93.0527 21.9536 92.1552 21.7052 91.0412 21.7052C90.2676 21.7052 89.5868 21.9225 89.1535 22.2641C88.8132 22.6057 88.5965 23.0404 88.5965 23.5993C88.5965 24.1582 88.8132 24.593 89.2773 25.0587C89.6177 25.4003 90.3914 25.7419 91.3816 26.1766C92.5885 26.6113 93.4859 27.2945 94.0429 27.9465C94.5999 28.5986 94.9403 29.406 94.9403 30.3996C95.0641 31.6417 94.5999 32.5422 93.7025 33.3184Z" fill="#D5D5E1"/>
<path d="M93.6096 10.9302C93.8262 11.1476 93.95 11.3649 94.0428 11.6134C94.0428 11.7376 94.0428 11.8307 94.0428 11.9549V12.8554C94.0428 13.197 93.9191 13.5386 93.7024 13.7559C93.4858 13.9733 93.1454 14.1906 92.805 14.1906C92.3718 14.1906 92.0314 13.9733 91.8148 13.6317C91.5982 13.2901 91.4744 12.9486 91.4744 12.4207C91.4744 11.8928 91.5982 11.427 91.8148 11.0855C92.0314 10.7439 92.3718 10.6508 92.805 10.6508C93.1764 10.6818 93.393 10.6818 93.6096 10.9302ZM95.1569 14.9359C95.1569 14.5011 95.1569 14.0354 95.1569 13.6007V7.57666H94.0428V10.4645C93.7024 10.0297 93.2692 9.78132 92.5884 9.78132C91.9076 9.78132 91.4744 9.99868 91.0412 10.4645C90.6079 11.0234 90.3604 11.6755 90.3604 12.4828C90.3604 13.2901 90.577 13.818 90.9174 14.3769C91.3506 14.8117 91.8148 15.0601 92.4646 15.0601C93.2383 15.0601 93.7953 14.7185 94.1357 14.1596V14.9359H95.1569Z" fill="#D5D5E1"/>
<path d="M102.615 25.7414H100.046V30.7407C100.046 31.9517 100.479 32.6348 101.377 32.6348C101.81 32.6348 102.15 32.6348 102.367 32.5106L102.491 34.2805C102.058 34.4979 101.501 34.4979 100.727 34.4979C99.8295 34.4979 99.1797 34.2805 98.6227 33.7216C98.0656 33.1627 97.849 32.2622 97.849 30.927V25.7414H96.3018V24.0646H97.849V22.1704L100.077 21.4873V24.0646H102.646V25.7414H102.615Z" fill="#D5D5E1"/>
<path d="M108.928 25.5244C109.825 25.5244 110.475 25.9592 111.032 26.7354C111.465 27.4186 111.713 28.1949 111.713 29.1885C111.713 30.1822 111.496 30.9585 111.032 31.6416C110.599 32.5421 109.825 32.8526 109.02 32.8526C108.123 32.8526 107.473 32.4179 106.916 31.6416C106.483 30.9585 106.235 30.1822 106.235 29.1885C106.235 28.1949 106.452 27.4186 106.916 26.7354C107.256 25.9592 108.03 25.5244 108.928 25.5244ZM112.579 33.101C113.476 32.1074 113.91 30.7721 113.91 29.1885C113.91 27.6359 113.476 26.3939 112.579 25.4002C111.682 24.4066 110.475 23.8477 108.928 23.8477C107.38 23.8477 106.142 24.4066 105.152 25.4002C104.255 26.3939 103.698 27.7291 103.698 29.3127C103.698 30.8653 104.131 32.1074 105.028 33.101C105.926 34.0947 107.133 34.6536 108.68 34.6536C110.382 34.6536 111.713 34.0947 112.579 33.101Z" fill="#D5D5E1"/>
<path d="M115.364 9.90553H116.138V8.91188L117.252 8.57031V9.78132H118.459V10.6818H117.252V13.1349C117.252 13.818 117.469 14.0354 117.933 14.0354C118.149 14.0354 118.273 14.0354 118.366 14.0354V14.9359C118.149 15.0601 117.809 15.0601 117.469 15.0601C117.035 15.0601 116.695 14.9359 116.478 14.6254C116.262 14.408 116.138 13.8491 116.138 13.2901V10.7129H115.364C115.364 10.6818 115.364 9.90553 115.364 9.90553Z" fill="#D5D5E1"/>
<path d="M121.368 26.0834C121.151 26.0834 120.934 25.9592 120.687 25.9592C119.913 25.9592 119.232 26.3007 118.799 26.8597C118.459 27.4186 118.242 28.0707 118.242 28.878V34.3431H115.921V27.2944C115.921 26.0834 115.921 25.0587 115.797 24.065H117.809L117.933 26.0834H118.056C118.273 25.4002 118.737 24.8724 119.17 24.4066C119.727 24.065 120.284 23.8477 120.841 23.8477C121.058 23.8477 121.275 23.8477 121.398 23.8477C121.368 23.8477 121.368 26.0834 121.368 26.0834Z" fill="#D5D5E1"/>
<path d="M121.151 11.4892C121.151 11.6134 121.151 11.7065 121.151 11.9239V14.9359H120.037V7.57666H121.151V10.5887C121.492 10.0297 122.049 9.81237 122.698 9.81237C123.132 9.81237 123.596 9.93658 123.812 10.2471C124.153 10.5887 124.369 11.2407 124.369 11.9239V14.9359H123.255V12.0481C123.255 11.1476 122.915 10.7129 122.265 10.7129C121.708 10.6818 121.368 10.9302 121.151 11.4892Z" fill="#D5D5E1"/>
<path d="M131.58 29.7476H124.71C124.71 30.7413 125.05 31.5176 125.7 32.0765C126.257 32.5112 127.031 32.7596 127.928 32.7596C128.918 32.7596 129.816 32.6354 130.713 32.3249L131.054 33.8775C130.063 34.3122 128.949 34.5606 127.619 34.5606C126.071 34.5606 124.741 34.1259 123.843 33.1012C122.946 32.2007 122.513 30.8655 122.513 29.3129C122.513 27.7603 122.946 26.4251 123.72 25.4004C124.617 24.2826 125.824 23.7236 127.278 23.7236C128.733 23.7236 129.847 24.2826 130.62 25.4004C131.177 26.3009 131.518 27.4188 131.518 28.6298C131.58 29.1887 131.58 29.5303 131.58 29.7476ZM127.124 25.4004C126.35 25.4004 125.793 25.742 125.36 26.3009C125.019 26.7356 124.803 27.4188 124.679 28.0708H129.444C129.444 27.3877 129.321 26.8598 129.011 26.3009C128.578 25.742 128.021 25.4004 127.124 25.4004Z" fill="#D5D5E1"/>
<path d="M47.4084 8.01141C47.9655 7.88721 48.6153 7.88721 49.2961 7.88721C50.503 7.88721 51.4004 8.10457 52.0812 8.66349C52.762 9.22242 53.0714 10.1229 53.0714 11.2408C53.0714 12.4518 52.731 13.4765 51.9574 14.1286C51.2766 14.6875 50.2864 15.0291 48.9557 15.0291C48.2749 15.0291 47.7488 15.0291 47.2847 14.9048L47.4084 8.01141ZM51.1838 13.3833C51.617 12.9486 51.8646 12.1723 51.8646 11.2718C51.8646 10.4955 51.648 9.8124 51.1838 9.37768C50.7505 8.94296 50.0697 8.69455 49.2961 8.69455C48.9557 8.69455 48.6153 8.69455 48.3987 8.81875V14.0665C48.5225 14.0665 48.8319 14.0665 49.1723 14.0665C50.0697 14.1596 50.7505 13.818 51.1838 13.3833Z" fill="#D5D5E1"/>
<path d="M100.48 10.4643C100.913 9.90535 101.594 9.68799 102.367 9.68799C103.141 9.68799 103.698 9.90535 104.131 10.4643C104.564 10.899 104.812 11.5821 104.812 12.3584C104.812 13.1347 104.595 13.8178 104.131 14.2526C103.698 14.8115 103.017 15.0288 102.244 15.0288C101.47 15.0288 100.913 14.8115 100.48 14.2526C100.046 13.8178 99.7988 13.1347 99.7988 12.3584C99.8298 11.7063 100.046 11.0232 100.48 10.4643ZM102.367 14.2526C102.801 14.2526 103.141 14.0352 103.358 13.5694C103.574 13.2279 103.698 12.7931 103.698 12.3584C103.698 11.9237 103.574 11.4579 103.358 11.1474C103.141 10.7127 102.801 10.5885 102.367 10.5885C101.934 10.5885 101.594 10.8058 101.377 11.1474C101.16 11.489 101.037 11.9237 101.037 12.3584C101.037 12.7931 101.16 13.2589 101.377 13.5694C101.594 14.0352 101.934 14.2526 102.367 14.2526Z" fill="#D5D5E1"/>
<path d="M140.461 44H5.44638C2.35184 44 0 41.6711 0 38.5349V5.46507C0 2.32886 2.3209 0 5.44638 0H140.585C143.679 0 146.031 2.32886 146.031 5.46507V34.8709V34.9951V38.4418C146.031 39.6528 145.691 40.7706 145.041 41.6711L144.824 42.0127C143.679 43.3479 142.132 44 140.461 44ZM5.44638 1.67678C3.34209 1.67678 1.67105 3.35356 1.67105 5.46507V38.566C1.67105 40.6775 3.34209 42.3543 5.44638 42.3543H140.585C141.699 42.3543 142.813 41.9195 143.462 41.0191L143.679 40.6775C144.112 39.9944 144.36 39.2181 144.36 38.4418V35.2124V35.0882V5.46507C144.36 3.35356 142.689 1.67678 140.585 1.67678H5.44638Z" fill="#D5D5E1"/>
</svg>
