<svg width="26" height="15" viewBox="0 0 26 15" xmlns="http://www.w3.org/2000/svg">
<path fill-rule="evenodd" clip-rule="evenodd" d="M22.2106 9.74088C23.0376 10.5562 23.9105 11.3232 24.6522 12.2207C24.9798 12.6195 25.29 13.0311 25.5273 13.4939C25.8636 14.1519 25.559 14.8759 24.9747 14.9152L21.3428 14.9136C20.4061 14.9921 19.6588 14.6113 19.0304 13.9646C18.5276 13.4474 18.0619 12.8969 17.5784 12.3623C17.3802 12.1438 17.1727 11.9382 16.9248 11.7756C16.429 11.4507 15.9987 11.5502 15.7153 12.0723C15.4268 12.6034 15.3613 13.1915 15.333 13.7833C15.2941 14.6469 15.0356 14.874 14.1765 14.9135C12.3405 15.0009 10.5981 14.7204 8.97944 13.7852C7.55238 12.9608 6.44576 11.7969 5.48257 10.4792C3.60721 7.91348 2.17106 5.09413 0.880302 2.1958C0.589763 1.5428 0.802241 1.19228 1.51577 1.17987C2.70062 1.15663 3.8853 1.15828 5.07154 1.17822C5.55309 1.18533 5.87189 1.46423 6.05783 1.9236C6.69887 3.51519 7.48325 5.02945 8.46782 6.43304C8.73002 6.80673 8.99738 7.18041 9.3781 7.44343C9.79929 7.73466 10.12 7.63813 10.3181 7.16437C10.4439 6.86397 10.4989 6.5404 10.5272 6.21866C10.6211 5.11175 10.6335 4.00674 10.4688 2.90372C10.3678 2.21532 9.98376 1.76968 9.30348 1.63941C8.95634 1.57299 9.00803 1.44256 9.17611 1.24248C9.46804 0.897416 9.74261 0.682617 10.2899 0.682617H14.3946C15.0408 0.811397 15.1843 1.10452 15.2728 1.76108L15.2763 6.36497C15.2692 6.61914 15.402 7.37338 15.8554 7.54161C16.2183 7.66137 16.4574 7.36825 16.6752 7.13592C17.6579 6.08268 18.3593 4.83798 18.986 3.54911C19.2641 2.98237 19.5032 2.39381 19.7349 1.80574C19.9066 1.36936 20.176 1.15464 20.6628 1.16416L24.6133 1.16771C24.7304 1.16771 24.8489 1.16945 24.9624 1.18905C25.6281 1.30361 25.8105 1.59276 25.6049 2.24915C25.2809 3.27897 24.6506 4.13718 24.0343 4.99935C23.3755 5.91983 22.6709 6.8088 22.0176 7.73474C21.4173 8.58029 21.465 9.00649 22.2106 9.74088Z" />
</svg>
