<svg width="83" height="96" viewBox="0 0 83 96" fill="none" xmlns="http://www.w3.org/2000/svg">
<path d="M74.5278 93.9922H8.37226C4.89648 93.9922 2 91.0957 2 87.6199V8.37225C2 4.89648 4.89648 2 8.37226 2H74.5278C78.0036 2 80.9001 4.89648 80.9001 8.37225V15.2079V87.6199C80.9001 91.0957 78.1195 93.9922 74.5278 93.9922Z" stroke="#E96D2D" stroke-width="3" stroke-miterlimit="10"/>
<path d="M2 19.9581H80.9001H2Z" stroke="#E96D2D" stroke-width="3" stroke-miterlimit="10"/>
<path d="M11.8481 10.6895H20.19" stroke="#E96D2D" stroke-width="3" stroke-miterlimit="10"/>
<path d="M26.5625 10.8053H34.7885" stroke="#E96D2D" stroke-width="3" stroke-miterlimit="10"/>
<path d="M30.1534 33.6295H13.4697V50.3132H30.1534V33.6295Z" stroke="#E96D2D" stroke-width="3" stroke-miterlimit="10"/>
<path d="M41.7393 36.9894H69.5455" stroke="#E96D2D" stroke-width="3" stroke-miterlimit="10"/>
<path d="M41.7393 46.7437H69.5455" stroke="#E96D2D" stroke-width="3" stroke-miterlimit="10"/>
<path d="M30.1534 61.4358H13.4697V78.1195H30.1534V61.4358Z" stroke="#E96D2D" stroke-width="3" stroke-miterlimit="10"/>
<path d="M41.7393 64.7955H69.5455" stroke="#E96D2D" stroke-width="3" stroke-miterlimit="10"/>
<path d="M41.7393 74.5498H69.5455" stroke="#E96D2D" stroke-width="3" stroke-miterlimit="10"/>
</svg>
