<svg width="20" height="20" viewBox="0 0 20 20" xmlns="http://www.w3.org/2000/svg">
<path d="M14.1027 0.409668H5.89377C2.75593 0.409668 0.203125 2.96247 0.203125 6.10031V14.3092C0.203125 17.447 2.75593 19.9998 5.89377 19.9998H14.1027C17.2405 19.9998 19.7933 17.447 19.7933 14.3092V6.10031C19.7933 2.96247 17.2405 0.409668 14.1027 0.409668ZM18.2628 14.3092C18.2628 16.6031 16.3966 18.4694 14.1027 18.4694H5.89377C3.59984 18.4694 1.73361 16.6031 1.73361 14.3092V6.10031C1.73361 3.80638 3.59984 1.94015 5.89377 1.94015H14.1027C16.3966 1.94015 18.2628 3.80638 18.2628 6.10031V14.3092Z" />
<path d="M9.99838 4.92425C7.08687 4.92425 4.71822 7.2929 4.71822 10.2044C4.71822 13.1159 7.08687 15.4846 9.99838 15.4846C12.9099 15.4846 15.2785 13.1159 15.2785 10.2044C15.2785 7.2929 12.9099 4.92425 9.99838 4.92425ZM9.99838 13.9541C7.93081 13.9541 6.2487 12.272 6.2487 10.2044C6.2487 8.13684 7.93081 6.45473 9.99838 6.45473C12.0659 6.45473 13.7481 8.13684 13.7481 10.2044C13.7481 12.272 12.0659 13.9541 9.99838 13.9541Z" />
<path d="M15.3549 5.61333C15.7775 5.61333 16.1201 5.27072 16.1201 4.84809C16.1201 4.42545 15.7775 4.08284 15.3549 4.08284C14.9323 4.08284 14.5897 4.42545 14.5897 4.84809C14.5897 5.27072 14.9323 5.61333 15.3549 5.61333Z" />
</svg>
