<svg width="21" height="17" viewBox="0 0 21 17" xmlns="http://www.w3.org/2000/svg">
<path d="M18.9579 1.89021L20.579 0.339443V0H14.9634L10.9611 9.96151L6.40786 0H0.51967V0.339443L2.41327 2.61904C2.59781 2.7875 2.69431 3.03382 2.66976 3.28185V12.2403C2.72817 12.5628 2.6232 12.8946 2.39634 13.1291L0.263184 15.7143V16.0495H6.31136V15.71L4.17821 13.1291C3.94711 12.8938 3.83792 12.5679 3.88447 12.2403V4.49148L9.19367 16.0537H9.81076L14.3759 4.49148V13.7022C14.3759 13.9451 14.3759 13.995 14.2167 14.1542L12.5746 15.743V16.0833H20.5417V15.7439L18.9588 14.194C18.82 14.089 18.748 13.9129 18.7776 13.7419V2.34224C18.748 2.1704 18.8191 1.99433 18.9579 1.89021Z" />
</svg>
