<svg width="149" height="44" viewBox="0 0 149 44" fill="none" xmlns="http://www.w3.org/2000/svg">
<path d="M79.1445 8.57031H80.2425L83.1912 13.0417L83.0657 12.2654V8.57031H84.0695V14.7185H83.0657L80.1483 10.0297V10.9302V14.7185H79.1445V8.57031Z" fill="#D5D5E1"/>
<path d="M64.0248 8.57031H63.021V14.9359H64.0248V8.57031Z" fill="#D5D5E1"/>
<path d="M51.3198 8.57031H55.1469V9.47081H52.355V11.2407H54.8018V12.1412H52.355V13.9422H55.1469V14.7185H51.3198V8.57031Z" fill="#D5D5E1"/>
<path d="M44.9207 9.34629C45.6108 8.66316 46.395 8.4458 47.2734 8.4458C47.7125 8.4458 48.1831 8.57001 48.6222 8.66316C48.9673 8.78737 49.3124 9.00473 49.5319 9.34629L49.6574 9.4705H49.5319L48.8418 10.1536L48.7163 10.0294C48.3713 9.59471 47.8066 9.34629 47.1479 9.34629C46.4578 9.34629 46.0186 9.56365 45.5794 10.0294C45.1403 10.4641 44.8893 11.0231 44.8893 11.7062C44.8893 12.3893 45.1089 12.9172 45.5794 13.383C46.0186 13.8177 46.5832 14.0661 47.1479 14.0661C47.838 14.0661 48.3713 13.8488 48.8418 13.383C49.0614 13.1656 49.281 12.8241 49.281 12.2651H47.0538V11.3646H50.1907V11.4888C50.1907 11.6131 50.1907 11.8304 50.1907 11.9236C50.1907 12.8241 49.9711 13.4761 49.4065 14.0351C48.8418 14.7182 48.0576 14.9356 47.0538 14.9356C46.1441 14.9356 45.3598 14.594 44.7011 13.9419C44.011 13.2588 43.6973 12.4825 43.6973 11.6131C43.8855 10.8057 44.2305 9.90522 44.9207 9.34629Z" fill="#D5D5E1"/>
<path d="M14.3046 9.59474L28.609 17.7302L25.0956 21.177L13.1753 9.37738C13.5204 9.34633 13.834 9.47054 14.3046 9.59474Z" fill="#D5D5E1"/>
<path d="M12.3906 32.9767V10.6817C12.3906 10.4643 12.3906 10.2469 12.5161 9.99854L24.5619 21.9223L12.5161 33.8461C12.3906 33.5356 12.3906 33.4114 12.3906 32.9767Z" fill="#D5D5E1"/>
<path d="M14.3046 34.0944C13.9595 34.3118 13.5204 34.436 13.3008 34.3118L25.2211 22.5122L28.7031 25.9589L14.3046 34.0944Z" fill="#D5D5E1"/>
<path d="M34.2235 22.9471L29.4867 25.6175L25.7852 21.9534L29.4867 18.2583L34.2235 20.9287C34.7881 21.2703 35.0077 21.6119 35.0077 22.0466C35.1332 22.295 34.7881 22.7297 34.2235 22.9471Z" fill="#D5D5E1"/>
<path d="M55.3669 30.306C54.1435 31.6412 52.6691 32.3243 50.6301 32.3243C46.9285 32.3243 43.7603 29.3123 43.7603 25.6482C43.7603 21.9842 46.8972 18.9722 50.6301 18.9722C52.6691 18.9722 54.2376 19.7485 55.2414 20.8663L54.018 22.0773C53.2338 21.301 52.1045 20.7421 50.6301 20.7421C47.9324 20.7421 45.7993 22.9778 45.7993 25.6482C45.7993 28.3187 47.9324 30.5544 50.6301 30.5544C52.4182 30.5544 53.4533 29.8713 54.018 29.2192C54.5826 28.6602 54.9277 28.0082 55.0218 26.8903H50.6301V25.1204H56.8099C56.9353 25.4619 56.9353 25.8035 56.9353 26.2382C56.9667 27.4182 56.6216 29.095 55.3669 30.306Z" fill="#D5D5E1"/>
<path d="M55.7119 9.47081V8.57031H60.2291V9.47081H58.4097V14.7185H57.5313V9.47081H55.7119Z" fill="#D5D5E1"/>
<path d="M62.0167 25.4003C63.3656 25.4003 64.4949 26.5182 64.4949 28.0707C64.4949 29.6233 63.3656 30.7412 62.0167 30.7412C60.6678 30.7412 59.5385 29.6233 59.5385 28.0707C59.5385 26.3008 60.6678 25.4003 62.0167 25.4003ZM62.0167 32.3248C64.4949 32.3248 66.4084 30.5549 66.4084 27.9776C66.4084 25.4003 64.3694 23.6304 62.0167 23.6304C59.664 23.6304 57.625 25.4003 57.625 27.9776C57.625 30.5549 59.664 32.3248 62.0167 32.3248Z" fill="#D5D5E1"/>
<path d="M64.8398 9.47081V8.57031H69.3256V9.47081H67.5376V14.7185H66.6279V9.47081H64.8398Z" fill="#D5D5E1"/>
<path d="M71.5846 25.4003C72.9334 25.4003 74.0627 26.5182 74.0627 28.0707C74.0627 29.6233 72.9334 30.7412 71.5846 30.7412C70.2357 30.7412 69.1064 29.6233 69.1064 28.0707C69.1064 26.3008 70.2357 25.4003 71.5846 25.4003ZM71.5846 32.3248C74.0627 32.3248 75.9763 30.5549 75.9763 27.9776C75.9763 25.4003 73.9373 23.6304 71.5846 23.6304C69.1064 23.6304 67.1929 25.4003 67.1929 27.9776C67.1929 30.5238 69.2319 32.3248 71.5846 32.3248Z" fill="#D5D5E1"/>
<path d="M81.1521 25.4003C82.5009 25.4003 83.5048 26.5182 83.5048 28.0707C83.5048 29.6233 82.5009 30.648 81.1521 30.648C79.8032 30.648 78.6739 29.5302 78.6739 28.0707C78.6739 26.5182 79.8032 25.4003 81.1521 25.4003ZM85.1987 23.9409H83.4106V24.624H83.2852C82.846 24.0651 82.0618 23.6304 81.0266 23.6304C78.8935 23.6304 76.8545 25.5245 76.8545 27.9776C76.8545 30.4307 78.8935 32.3248 81.0266 32.3248C82.0304 32.3248 82.9401 31.8901 83.2852 31.3311H83.4106V32.0143C83.4106 33.6911 82.5009 34.5916 81.058 34.5916C79.9287 34.5916 79.1444 33.6911 78.7994 33.039L77.1054 33.7221C77.5446 34.84 78.8935 36.2994 80.9325 36.2994C83.1911 36.2994 85.1046 34.9642 85.1046 31.828L85.1987 23.9409Z" fill="#D5D5E1"/>
<path d="M88.3671 19.1587H86.4536V31.8588H88.3671V19.1587Z" fill="#D5D5E1"/>
<path d="M93.5431 25.1829C94.3273 25.1829 95.0174 25.5245 95.1115 26.0834L91.159 27.636C91.159 26.1766 92.5393 25.1829 93.5431 25.1829ZM93.6372 30.648C92.6334 30.648 91.9432 30.2133 91.5041 29.3128L97.3701 26.8597L97.1505 26.425C96.8055 25.4314 95.6762 23.6304 93.449 23.6304C91.2217 23.6304 89.2769 25.4003 89.2769 27.9776C89.2769 30.4307 91.0649 32.3248 93.6685 32.3248C95.7075 32.3248 96.8055 31.1138 97.276 30.4307L95.7075 29.3128C95.3311 30.0891 94.6724 30.648 93.6372 30.648Z" fill="#D5D5E1"/>
<path d="M106.248 21.0528C107.722 21.0528 108.506 22.2638 108.506 23.2885C108.506 24.3132 107.722 25.5242 106.248 25.5242H103.55V21.0528H106.248ZM106.248 27.201C108.381 27.201 110.42 25.6484 110.42 23.2885C110.42 20.8354 108.287 19.376 106.248 19.376H101.636V32.076H103.55V27.2941L106.248 27.201Z" fill="#D5D5E1"/>
<path d="M113.462 19.1587H111.549V31.8588H113.462V19.1587Z" fill="#D5D5E1"/>
<path d="M125.603 35.8642H123.595L125.603 31.6412L122.121 23.9404H124.254L126.512 29.4055H126.638L128.771 23.9404H130.904L125.603 35.8642Z" fill="#D5D5E1"/>
<path d="M122.026 31.8588H120.238V30.9583H120.113C119.673 31.6414 118.983 32.1693 117.634 32.1693C115.941 32.1693 114.498 31.0515 114.498 29.3747C114.498 27.4805 116.411 26.4869 118.199 26.4869C119.109 26.4869 119.893 26.8285 120.238 26.9216V26.7974C120.238 25.8038 119.234 25.1206 118.199 25.1206C117.509 25.1206 116.85 25.338 116.411 26.0211L114.717 25.338C115.282 24.0028 116.756 23.4438 118.105 23.4438C120.364 23.4438 122.058 24.6549 122.058 27.0148C122.026 27.0769 122.026 31.8588 122.026 31.8588ZM116.38 29.5299C116.38 30.3062 117.289 30.6478 117.854 30.6478C118.983 30.6478 119.987 29.8715 120.113 28.6295C119.548 28.4121 119.203 28.1947 118.325 28.1947C117.509 28.0705 116.38 28.5363 116.38 29.5299Z" fill="#D5D5E1"/>
<path d="M72.5884 9.34668C73.2785 8.66354 73.9373 8.35303 74.9411 8.35303C75.8508 8.35303 76.635 8.69459 77.2938 9.34668C77.9839 10.0298 78.2035 10.8061 78.2035 11.6755C78.2035 12.576 77.8584 13.3523 77.2938 14.0044C76.6037 14.6875 75.8194 14.9981 74.9411 14.9981C74.0314 14.9981 73.2472 14.6565 72.5884 14.0044C71.8983 13.3213 71.6787 12.545 71.6787 11.6755C71.7101 10.8061 72.0238 10.0298 72.5884 9.34668ZM77.2311 11.7066C77.2311 11.0235 77.0115 10.4956 76.5409 10.0298C76.1018 9.59509 75.5371 9.34668 74.9725 9.34668C74.2824 9.34668 73.8432 9.56404 73.404 10.0298C72.9648 10.4645 72.7139 11.0235 72.7139 11.7066C72.7139 12.3897 72.9335 12.9176 73.404 13.3834C73.8746 13.8491 74.4078 14.0665 74.9725 14.0665C75.6626 14.0665 76.1018 13.8491 76.5409 13.3834C76.9801 12.9176 77.2311 12.3587 77.2311 11.7066Z" fill="#D5D5E1"/>
<path d="M142.385 44H5.52098C2.38406 44 0 41.6711 0 38.5349V5.46507C0 2.32886 2.35269 0 5.52098 0H142.51C145.647 0 148.031 2.32886 148.031 5.46507V34.8709V34.9951V38.4418C148.031 39.6528 147.686 40.7706 147.028 41.6711L146.808 42.0127C145.647 43.3479 144.079 44 142.385 44ZM5.52098 1.67678C3.38788 1.67678 1.69394 3.35356 1.69394 5.46507V38.566C1.69394 40.6775 3.38788 42.3543 5.52098 42.3543H142.51C143.64 42.3543 144.769 41.9195 145.428 41.0191L145.647 40.6775C146.086 39.9944 146.337 39.2181 146.337 38.4418V35.2124V35.0882V5.46507C146.337 3.35356 144.643 1.67678 142.51 1.67678H5.52098Z" fill="#D5D5E1"/>
</svg>
