<svg width="122" height="99" viewBox="0 0 122 99" fill="none" xmlns="http://www.w3.org/2000/svg">
<path d="M75.9971 86.5939H7.6975C4.53222 86.5939 2 84.0616 2 80.8964V20.123C2 16.9578 4.53222 14.4255 7.6975 14.4255H93.0896C96.2549 14.4255 98.7871 16.9578 98.7871 20.123V56.6292" stroke="#593FF6" stroke-width="3" stroke-miterlimit="10"/>
<path d="M14.1001 50H57.1001" stroke="#593FF6" stroke-width="3" stroke-miterlimit="10"/>
<path d="M14.3799 68.8683H68.893" stroke="#593FF6" stroke-width="3" stroke-miterlimit="10"/>
<path d="M95.0443 82.7803L88.362 91.5024L70.0737 56.0513L108.76 64.492L102.149 73.0734L119.1 81.6548L107.987 96.0744L95.0443 82.7803Z" stroke="#593FF6" stroke-width="3" stroke-miterlimit="10"/>
<path d="M31.6201 27.5L28.2151 38H25.0351L23.0251 31.61L20.9251 38H17.7451L14.3401 27.5H17.4001L19.5151 34.205L21.7351 27.5H24.4651L26.5801 34.265L28.7851 27.5H31.6201ZM49.374 27.5L45.969 38H42.789L40.779 31.61L38.679 38H35.499L32.094 27.5H35.154L37.269 34.205L39.489 27.5H42.219L44.334 34.265L46.539 27.5H49.374ZM67.1279 27.5L63.7229 38H60.5429L58.5329 31.61L56.4329 38H53.2529L49.8479 27.5H52.9079L55.0229 34.205L57.2429 27.5H59.9729L62.0879 34.265L64.2929 27.5H67.1279ZM68.8909 38.135C68.4109 38.135 68.0059 37.975 67.6759 37.655C67.3459 37.335 67.1809 36.93 67.1809 36.44C67.1809 35.94 67.3409 35.535 67.6609 35.225C67.9909 34.915 68.4009 34.76 68.8909 34.76C69.3909 34.76 69.8009 34.915 70.1209 35.225C70.4409 35.535 70.6009 35.94 70.6009 36.44C70.6009 36.93 70.4359 37.335 70.1059 37.655C69.7859 37.975 69.3809 38.135 68.8909 38.135Z" fill="#593FF6"/>
</svg>
